<svg version="1.1" class="highcharts-root" xmlns="http://www.w3.org/2000/svg" width="408" height="200" viewBox="0 0 408 200"><desc>Created with Highcharts 7.0.1</desc><defs><style>.highcharts-3d-top{filter: url(#highcharts-brighter)}
.highcharts-3d-side{filter: url(#highcharts-darker)}
</style><filter id="highcharts-darker"><feComponentTransfer><feFuncR type="linear" slope="0.6"></feFuncR><feFuncG type="linear" slope="0.6"></feFuncG><feFuncB type="linear" slope="0.6"></feFuncB></feComponentTransfer></filter><filter id="highcharts-brighter"><feComponentTransfer><feFuncR type="linear" slope="1.4"></feFuncR><feFuncG type="linear" slope="1.4"></feFuncG><feFuncB type="linear" slope="1.4"></feFuncB></feComponentTransfer></filter><clipPath id="highcharts-8rtc7oz-1"><rect x="0" y="0" width="356" height="167"></rect></clipPath><clipPath id="highcharts-8rtc7oz-35"><rect x="-96.76579496495883" y="-5" width="107.03411103509755" height="200"></rect></clipPath><clipPath id="highcharts-8rtc7oz-36"><rect x="0" y="0" width="8.034111035097554" height="167"></rect></clipPath><clipPath id="highcharts-8rtc7oz-37"><rect x="0" y="97" width="408" height="75"></rect></clipPath><clipPath id="highcharts-8rtc7oz-38"><rect x="0" y="0" width="408" height="97"></rect></clipPath></defs><rect class="highcharts-background" x="0.5" y="0.5" width="406" height="198" rx="0" ry="0"></rect><rect class="highcharts-plot-background" x="1" y="5" width="356" height="167"></rect><g class="highcharts-pane-group" data-z-index="0"></g><g class="highcharts-plot-lines-0" data-z-index="0"><path class="highcharts-plot-line " d="M 1 102 L 357 102"></path></g><g class="highcharts-grid highcharts-xaxis-grid highcharts-nogrid" data-z-index="1"><path data-z-index="1" class="highcharts-grid-line" d="M 40.5 5 L 40.5 172" opacity="1"></path><path data-z-index="1" class="highcharts-grid-line" d="M 119.5 5 L 119.5 172" opacity="1"></path><path data-z-index="1" class="highcharts-grid-line" d="M 198.5 5 L 198.5 172" opacity="1"></path><path data-z-index="1" class="highcharts-grid-line" d="M 277.5 5 L 277.5 172" opacity="1"></path><path data-z-index="1" class="highcharts-grid-line" d="M 356.5 5 L 356.5 172" opacity="1"></path></g><g class="highcharts-grid highcharts-yaxis-grid highcharts-nogrid" data-z-index="1"><path data-z-index="1" class="highcharts-grid-line" d="M 1 161.5 L 357 161.5" opacity="1"></path><path data-z-index="1" class="highcharts-grid-line" d="M 1 135.5 L 357 135.5" opacity="1"></path><path data-z-index="1" class="highcharts-grid-line" d="M 1 110.5 L 357 110.5" opacity="1"></path><path data-z-index="1" class="highcharts-grid-line" d="M 1 85.5 L 357 85.5" opacity="1"></path><path data-z-index="1" class="highcharts-grid-line" d="M 1 59.5 L 357 59.5" opacity="1"></path><path data-z-index="1" class="highcharts-grid-line" d="M 1 34.5 L 357 34.5" opacity="1"></path><path data-z-index="1" class="highcharts-grid-line" d="M 1 9.5 L 357 9.5" opacity="1"></path></g><rect class="highcharts-plot-border" data-z-index="1" x="0.5" y="4.5" width="357" height="168"></rect><g class="highcharts-axis highcharts-xaxis highcharts-nogrid" data-z-index="2"><path class="highcharts-axis-line" d="M 1 172 L 357 172"></path><path class="highcharts-tick" d="M 41 172 L 41 182" opacity="1"></path><path class="highcharts-tick" d="M 120 172 L 120 182" opacity="1"></path><path class="highcharts-tick" d="M 199 172 L 199 182" opacity="1"></path><path class="highcharts-tick" d="M 278 172 L 278 182" opacity="1"></path><path class="highcharts-tick" d="M 357 172 L 357 182" opacity="1"></path></g><g class="highcharts-axis highcharts-yaxis highcharts-nogrid" data-z-index="2"><path class="highcharts-axis-line" d="M 357 5 L 357 172"></path></g><g class="highcharts-series-group" data-z-index="3"><g data-z-index="0.1" class="highcharts-series highcharts-series-0 highcharts-area-series highcharts-color-0 highcharts-positive" transform="translate(1,5) scale(1 1)" clip-path="url(#highcharts-8rtc7oz-36)"><path d="M 0 94.9209726443764 L 16.481481481481 59.389057750760216 L 26.37037037037 56.85106382978718 L 29.666666666667 59.389057750760216 L 36.259259259259 49.237082066868965 L 42.851851851852 49.237082066868965 L 49.444444444444 54.31306990881414 L 62.62962962963 39.08510638297862 L 65.925925925926 49.237082066868965 L 79.111111111111 39.08510638297862 L 85.703703703704 23.857142857143117 L 98.888888888889 44.1610942249238 L 112.07407407407 51.775075987842 L 118.66666666667 59.389057750760216 L 131.85185185185 67.00303951367752 L 135.14814814815 72.07902735562269 L 138.44444444444 79.6930091185409 L 164.81481481481 77.15501519756786 L 171.40740740741 79.6930091185409 L 187.88888888889 79.6930091185409 L 194.48148148148 82.23100303951394 L 217.55555555556 84.76899696048606 L 220.85185185185 97.45896656534944 L 253.81481481481 117.76291793313013 L 267 132.99088145896656 L 270.2962962963 143.14285714285688 L 283.48148148148 122.8389057750762 L 306.55555555556 117.76291793313013 L 309.85185185185 115.224924012158 L 319.74074074074 132.99088145896656 L 323.03703703704 125.37689969604833 L 339.51851851852 143.14285714285688 L 356 143.14285714285688 L 356 97.45896656534944 L 339.51851851852 97.45896656534944 L 323.03703703704 97.45896656534944 L 319.74074074074 97.45896656534944 L 309.85185185185 97.45896656534944 L 306.55555555556 97.45896656534944 L 283.48148148148 97.45896656534944 L 270.2962962963 97.45896656534944 L 267 97.45896656534944 L 253.81481481481 97.45896656534944 L 220.85185185185 97.45896656534944 L 217.55555555556 97.45896656534944 L 194.48148148148 97.45896656534944 L 187.88888888889 97.45896656534944 L 171.40740740741 97.45896656534944 L 164.81481481481 97.45896656534944 L 138.44444444444 97.45896656534944 L 135.14814814815 97.45896656534944 L 131.85185185185 97.45896656534944 L 118.66666666667 97.45896656534944 L 112.07407407407 97.45896656534944 L 98.888888888889 97.45896656534944 L 85.703703703704 97.45896656534944 L 79.111111111111 97.45896656534944 L 65.925925925926 97.45896656534944 L 62.62962962963 97.45896656534944 L 49.444444444444 97.45896656534944 L 42.851851851852 97.45896656534944 L 36.259259259259 97.45896656534944 L 29.666666666667 97.45896656534944 L 26.37037037037 97.45896656534944 L 16.481481481481 97.45896656534944 L 0 97.45896656534944" class="highcharts-area" data-z-index="0" visibility="hidden"></path><path d="M 0 94.9209726443764 L 16.481481481481 59.389057750760216 L 26.37037037037 56.85106382978718 L 29.666666666667 59.389057750760216 L 36.259259259259 49.237082066868965 L 42.851851851852 49.237082066868965 L 49.444444444444 54.31306990881414 L 62.62962962963 39.08510638297862 L 65.925925925926 49.237082066868965 L 79.111111111111 39.08510638297862 L 85.703703703704 23.857142857143117 L 98.888888888889 44.1610942249238 L 112.07407407407 51.775075987842 L 118.66666666667 59.389057750760216 L 131.85185185185 67.00303951367752 L 135.14814814815 72.07902735562269 L 138.44444444444 79.6930091185409 L 164.81481481481 77.15501519756786 L 171.40740740741 79.6930091185409 L 187.88888888889 79.6930091185409 L 194.48148148148 82.23100303951394 L 217.55555555556 84.76899696048606 L 220.85185185185 97.45896656534944 L 253.81481481481 117.76291793313013 L 267 132.99088145896656 L 270.2962962963 143.14285714285688 L 283.48148148148 122.8389057750762 L 306.55555555556 117.76291793313013 L 309.85185185185 115.224924012158 L 319.74074074074 132.99088145896656 L 323.03703703704 125.37689969604833 L 339.51851851852 143.14285714285688 L 356 143.14285714285688 L 356 97.45896656534944 L 339.51851851852 97.45896656534944 L 323.03703703704 97.45896656534944 L 319.74074074074 97.45896656534944 L 309.85185185185 97.45896656534944 L 306.55555555556 97.45896656534944 L 283.48148148148 97.45896656534944 L 270.2962962963 97.45896656534944 L 267 97.45896656534944 L 253.81481481481 97.45896656534944 L 220.85185185185 97.45896656534944 L 217.55555555556 97.45896656534944 L 194.48148148148 97.45896656534944 L 187.88888888889 97.45896656534944 L 171.40740740741 97.45896656534944 L 164.81481481481 97.45896656534944 L 138.44444444444 97.45896656534944 L 135.14814814815 97.45896656534944 L 131.85185185185 97.45896656534944 L 118.66666666667 97.45896656534944 L 112.07407407407 97.45896656534944 L 98.888888888889 97.45896656534944 L 85.703703703704 97.45896656534944 L 79.111111111111 97.45896656534944 L 65.925925925926 97.45896656534944 L 62.62962962963 97.45896656534944 L 49.444444444444 97.45896656534944 L 42.851851851852 97.45896656534944 L 36.259259259259 97.45896656534944 L 29.666666666667 97.45896656534944 L 26.37037037037 97.45896656534944 L 16.481481481481 97.45896656534944 L 0 97.45896656534944" class="highcharts-area highcharts-zone-area-0 highcharts-negative" data-z-index="0" clip-path="url(#highcharts-8rtc7oz-37)"></path><path d="M 0 94.9209726443764 L 16.481481481481 59.389057750760216 L 26.37037037037 56.85106382978718 L 29.666666666667 59.389057750760216 L 36.259259259259 49.237082066868965 L 42.851851851852 49.237082066868965 L 49.444444444444 54.31306990881414 L 62.62962962963 39.08510638297862 L 65.925925925926 49.237082066868965 L 79.111111111111 39.08510638297862 L 85.703703703704 23.857142857143117 L 98.888888888889 44.1610942249238 L 112.07407407407 51.775075987842 L 118.66666666667 59.389057750760216 L 131.85185185185 67.00303951367752 L 135.14814814815 72.07902735562269 L 138.44444444444 79.6930091185409 L 164.81481481481 77.15501519756786 L 171.40740740741 79.6930091185409 L 187.88888888889 79.6930091185409 L 194.48148148148 82.23100303951394 L 217.55555555556 84.76899696048606 L 220.85185185185 97.45896656534944 L 253.81481481481 117.76291793313013 L 267 132.99088145896656 L 270.2962962963 143.14285714285688 L 283.48148148148 122.8389057750762 L 306.55555555556 117.76291793313013 L 309.85185185185 115.224924012158 L 319.74074074074 132.99088145896656 L 323.03703703704 125.37689969604833 L 339.51851851852 143.14285714285688 L 356 143.14285714285688 L 356 97.45896656534944 L 339.51851851852 97.45896656534944 L 323.03703703704 97.45896656534944 L 319.74074074074 97.45896656534944 L 309.85185185185 97.45896656534944 L 306.55555555556 97.45896656534944 L 283.48148148148 97.45896656534944 L 270.2962962963 97.45896656534944 L 267 97.45896656534944 L 253.81481481481 97.45896656534944 L 220.85185185185 97.45896656534944 L 217.55555555556 97.45896656534944 L 194.48148148148 97.45896656534944 L 187.88888888889 97.45896656534944 L 171.40740740741 97.45896656534944 L 164.81481481481 97.45896656534944 L 138.44444444444 97.45896656534944 L 135.14814814815 97.45896656534944 L 131.85185185185 97.45896656534944 L 118.66666666667 97.45896656534944 L 112.07407407407 97.45896656534944 L 98.888888888889 97.45896656534944 L 85.703703703704 97.45896656534944 L 79.111111111111 97.45896656534944 L 65.925925925926 97.45896656534944 L 62.62962962963 97.45896656534944 L 49.444444444444 97.45896656534944 L 42.851851851852 97.45896656534944 L 36.259259259259 97.45896656534944 L 29.666666666667 97.45896656534944 L 26.37037037037 97.45896656534944 L 16.481481481481 97.45896656534944 L 0 97.45896656534944" class="highcharts-area highcharts-zone-area-1 undefined" data-z-index="0" clip-path="url(#highcharts-8rtc7oz-38)"></path><path d="M 0 94.9209726443764 L 16.481481481481 59.389057750760216 L 26.37037037037 56.85106382978718 L 29.666666666667 59.389057750760216 L 36.259259259259 49.237082066868965 L 42.851851851852 49.237082066868965 L 49.444444444444 54.31306990881414 L 62.62962962963 39.08510638297862 L 65.925925925926 49.237082066868965 L 79.111111111111 39.08510638297862 L 85.703703703704 23.857142857143117 L 98.888888888889 44.1610942249238 L 112.07407407407 51.775075987842 L 118.66666666667 59.389057750760216 L 131.85185185185 67.00303951367752 L 135.14814814815 72.07902735562269 L 138.44444444444 79.6930091185409 L 164.81481481481 77.15501519756786 L 171.40740740741 79.6930091185409 L 187.88888888889 79.6930091185409 L 194.48148148148 82.23100303951394 L 217.55555555556 84.76899696048606 L 220.85185185185 97.45896656534944 L 253.81481481481 117.76291793313013 L 267 132.99088145896656 L 270.2962962963 143.14285714285688 L 283.48148148148 122.8389057750762 L 306.55555555556 117.76291793313013 L 309.85185185185 115.224924012158 L 319.74074074074 132.99088145896656 L 323.03703703704 125.37689969604833 L 339.51851851852 143.14285714285688 L 356 143.14285714285688" class="highcharts-graph" data-z-index="1" visibility="hidden"></path><path d="M 0 94.9209726443764 L 16.481481481481 59.389057750760216 L 26.37037037037 56.85106382978718 L 29.666666666667 59.389057750760216 L 36.259259259259 49.237082066868965 L 42.851851851852 49.237082066868965 L 49.444444444444 54.31306990881414 L 62.62962962963 39.08510638297862 L 65.925925925926 49.237082066868965 L 79.111111111111 39.08510638297862 L 85.703703703704 23.857142857143117 L 98.888888888889 44.1610942249238 L 112.07407407407 51.775075987842 L 118.66666666667 59.389057750760216 L 131.85185185185 67.00303951367752 L 135.14814814815 72.07902735562269 L 138.44444444444 79.6930091185409 L 164.81481481481 77.15501519756786 L 171.40740740741 79.6930091185409 L 187.88888888889 79.6930091185409 L 194.48148148148 82.23100303951394 L 217.55555555556 84.76899696048606 L 220.85185185185 97.45896656534944 L 253.81481481481 117.76291793313013 L 267 132.99088145896656 L 270.2962962963 143.14285714285688 L 283.48148148148 122.8389057750762 L 306.55555555556 117.76291793313013 L 309.85185185185 115.224924012158 L 319.74074074074 132.99088145896656 L 323.03703703704 125.37689969604833 L 339.51851851852 143.14285714285688 L 356 143.14285714285688" class="highcharts-graph highcharts-zone-graph-0 highcharts-negative" data-z-index="1" clip-path="url(#highcharts-8rtc7oz-37)"></path><path d="M 0 94.9209726443764 L 16.481481481481 59.389057750760216 L 26.37037037037 56.85106382978718 L 29.666666666667 59.389057750760216 L 36.259259259259 49.237082066868965 L 42.851851851852 49.237082066868965 L 49.444444444444 54.31306990881414 L 62.62962962963 39.08510638297862 L 65.925925925926 49.237082066868965 L 79.111111111111 39.08510638297862 L 85.703703703704 23.857142857143117 L 98.888888888889 44.1610942249238 L 112.07407407407 51.775075987842 L 118.66666666667 59.389057750760216 L 131.85185185185 67.00303951367752 L 135.14814814815 72.07902735562269 L 138.44444444444 79.6930091185409 L 164.81481481481 77.15501519756786 L 171.40740740741 79.6930091185409 L 187.88888888889 79.6930091185409 L 194.48148148148 82.23100303951394 L 217.55555555556 84.76899696048606 L 220.85185185185 97.45896656534944 L 253.81481481481 117.76291793313013 L 267 132.99088145896656 L 270.2962962963 143.14285714285688 L 283.48148148148 122.8389057750762 L 306.55555555556 117.76291793313013 L 309.85185185185 115.224924012158 L 319.74074074074 132.99088145896656 L 323.03703703704 125.37689969604833 L 339.51851851852 143.14285714285688 L 356 143.14285714285688" class="highcharts-graph highcharts-zone-graph-1 " data-z-index="1" clip-path="url(#highcharts-8rtc7oz-38)"></path><path d="M -10 94.9209726443764 L 0 94.9209726443764 L 16.481481481481 59.389057750760216 L 26.37037037037 56.85106382978718 L 29.666666666667 59.389057750760216 L 36.259259259259 49.237082066868965 L 42.851851851852 49.237082066868965 L 49.444444444444 54.31306990881414 L 62.62962962963 39.08510638297862 L 65.925925925926 49.237082066868965 L 79.111111111111 39.08510638297862 L 85.703703703704 23.857142857143117 L 98.888888888889 44.1610942249238 L 112.07407407407 51.775075987842 L 118.66666666667 59.389057750760216 L 131.85185185185 67.00303951367752 L 135.14814814815 72.07902735562269 L 138.44444444444 79.6930091185409 L 164.81481481481 77.15501519756786 L 171.40740740741 79.6930091185409 L 187.88888888889 79.6930091185409 L 194.48148148148 82.23100303951394 L 217.55555555556 84.76899696048606 L 220.85185185185 97.45896656534944 L 253.81481481481 117.76291793313013 L 267 132.99088145896656 L 270.2962962963 143.14285714285688 L 283.48148148148 122.8389057750762 L 306.55555555556 117.76291793313013 L 309.85185185185 115.224924012158 L 319.74074074074 132.99088145896656 L 323.03703703704 125.37689969604833 L 339.51851851852 143.14285714285688 L 356 143.14285714285688 L 366 143.14285714285688" visibility="visible" data-z-index="2" class="highcharts-tracker-line"></path></g><g data-z-index="0.1" class="highcharts-markers highcharts-series-0 highcharts-area-series highcharts-color-0 highcharts-positive highcharts-tracker" transform="translate(1,5) scale(1 1)" clip-path="url(#highcharts-8rtc7oz-35)"></g></g><text x="204" text-anchor="middle" class="highcharts-title" data-z-index="4" y="27"></text><text x="204" text-anchor="middle" class="highcharts-subtitle" data-z-index="4" y="26"></text><g class="highcharts-axis-labels highcharts-xaxis-labels highcharts-nogrid" data-z-index="7"><text x="40.555555555556" text-anchor="middle" transform="translate(0,0)" y="193" opacity="1">10:00</text><text x="119.66666666667" text-anchor="middle" transform="translate(0,0)" y="193" opacity="1">12:00</text><text x="198.77777777778" text-anchor="middle" transform="translate(0,0)" y="193" opacity="1">14:00</text><text x="277.88888888889" text-anchor="middle" transform="translate(0,0)" y="193" opacity="1">16:00</text><text x="357" text-anchor="middle" transform="translate(0,0)" y="193" opacity="1">18:00</text></g><g class="highcharts-axis-labels highcharts-yaxis-labels highcharts-nogrid" data-z-index="7"><text x="397.6579895019531" text-anchor="end" transform="translate(0,0)" y="165" opacity="1"><tspan>23,2</tspan></text><text x="397.6579895019531" text-anchor="end" transform="translate(0,0)" y="140" opacity="1"><tspan>23,3</tspan></text><text x="397.6579895019531" text-anchor="end" transform="translate(0,0)" y="115" opacity="1"><tspan>23,4</tspan></text><text x="397.6579895019531" text-anchor="end" transform="translate(0,0)" y="89" opacity="1"><tspan>23,5</tspan></text><text x="397.6579895019531" text-anchor="end" transform="translate(0,0)" y="64" opacity="1"><tspan>23,6</tspan></text><text x="397.6579895019531" text-anchor="end" transform="translate(0,0)" y="38" opacity="1"><tspan>23,7</tspan></text><text x="397.6579895019531" text-anchor="end" transform="translate(0,0)" y="13" opacity="1"><tspan>23,8</tspan></text></g></svg>