<svg version="1.1" class="highcharts-root" xmlns="http://www.w3.org/2000/svg" width="399" height="200" viewBox="0 0 399 200"><desc>Created with Highcharts 7.0.1</desc><defs><style>.highcharts-3d-top{filter: url(#highcharts-brighter)}
.highcharts-3d-side{filter: url(#highcharts-darker)}
</style><filter id="highcharts-darker"><feComponentTransfer><feFuncR type="linear" slope="0.6"></feFuncR><feFuncG type="linear" slope="0.6"></feFuncG><feFuncB type="linear" slope="0.6"></feFuncB></feComponentTransfer></filter><filter id="highcharts-brighter"><feComponentTransfer><feFuncR type="linear" slope="1.4"></feFuncR><feFuncG type="linear" slope="1.4"></feFuncG><feFuncB type="linear" slope="1.4"></feFuncB></feComponentTransfer></filter><clipPath id="highcharts-goa3fqa-571"><rect x="0" y="0" width="358" height="167"></rect></clipPath><clipPath id="highcharts-goa3fqa-704"><rect x="0" y="109" width="399" height="63"></rect></clipPath><clipPath id="highcharts-goa3fqa-705"><rect x="0" y="0" width="399" height="109"></rect></clipPath><filter id="drop-shadow-5" opacity="0.5"><feGaussianBlur in="SourceAlpha" stdDeviation="1"></feGaussianBlur><feOffset dx="1" dy="1"></feOffset><feComponentTransfer><feFuncA type="linear" slope="0.3"></feFuncA></feComponentTransfer><feMerge><feMergeNode></feMergeNode><feMergeNode in="SourceGraphic"></feMergeNode></feMerge></filter><style>.highcharts-tooltip-5{filter:url(#drop-shadow-5)}</style></defs><rect class="highcharts-background" x="0.5" y="0.5" width="397" height="198" rx="0" ry="0"></rect><rect class="highcharts-plot-background" x="1" y="5" width="358" height="167"></rect><g class="highcharts-pane-group" data-z-index="0"></g><g class="highcharts-plot-lines-0" data-z-index="0"><path class="highcharts-plot-line " d="M 1 114 L 359 114"></path></g><g class="highcharts-grid highcharts-xaxis-grid highcharts-nogrid" data-z-index="1"><path data-z-index="1" class="highcharts-grid-line" d="M 26.5 5 L 26.5 172" opacity="1"></path><path data-z-index="1" class="highcharts-grid-line" d="M 149.5 5 L 149.5 172" opacity="1"></path><path data-z-index="1" class="highcharts-grid-line" d="M 270.5 5 L 270.5 172" opacity="1"></path></g><g class="highcharts-grid highcharts-yaxis-grid highcharts-nogrid" data-z-index="1"><path data-z-index="1" class="highcharts-grid-line" d="M 1 148.5 L 359 148.5" opacity="1"></path><path data-z-index="1" class="highcharts-grid-line" d="M 1 104.5 L 359 104.5" opacity="1"></path><path data-z-index="1" class="highcharts-grid-line" d="M 1 60.5 L 359 60.5" opacity="1"></path><path data-z-index="1" class="highcharts-grid-line" d="M 1 16.5 L 359 16.5" opacity="1"></path></g><rect class="highcharts-plot-border" data-z-index="1" x="0.5" y="4.5" width="359" height="168"></rect><g class="highcharts-axis highcharts-xaxis highcharts-nogrid" data-z-index="2"><path class="highcharts-axis-line" d="M 1 172 L 359 172"></path><path class="highcharts-tick" d="M 27 172 L 27 182" opacity="1"></path><path class="highcharts-tick" d="M 150 172 L 150 182" opacity="1"></path><path class="highcharts-tick" d="M 271 172 L 271 182" opacity="1"></path></g><g class="highcharts-axis highcharts-yaxis highcharts-nogrid" data-z-index="2"><path class="highcharts-axis-line" d="M 359 5 L 359 172"></path></g><g class="highcharts-series-group" data-z-index="3"><g data-z-index="0.1" class="highcharts-series highcharts-series-0 highcharts-area-series highcharts-color-0 highcharts-positive " transform="translate(1,5) scale(1 1)" clip-path="url(#highcharts-goa3fqa-571)"><path d="M 0 118.5388055774796 L 2.3246753246753 121.61431202315181 L 4.6493506493506 127.32596685082876 L 6.974025974026 131.939226519337 L 9.2987012987013 138.52959747434886 L 13.948051948052 138.09023941068142 L 16.272727272727 136.55248618784532 L 18.597402597403 129.522757169166 L 20.922077922078 134.35569586950808 L 23.246753246753 127.9850039463299 L 27.896103896104 122.05367008681925 L 30.220779220779 105.79742173112342 L 32.545454545455 110.6303604314654 L 34.87012987013 127.10628781899501 L 37.194805194805 125.12917653249147 L 41.844155844156 128.20468297816367 L 44.168831168831 118.31912654564593 L 46.493506493506 106.0171007629571 L 48.818181818182 103.6006314127861 L 51.142857142857 106.45645882662456 L 55.792207792208 111.94843462246774 L 58.116883116883 106.6761378584583 L 60.441558441558 88.66245724809261 L 62.766233766234 90.20021047092871 L 65.090909090909 89.98053143909495 L 69.74025974026 91.51828466193105 L 72.064935064935 90.41988950276247 L 74.38961038961 87.56406208892395 L 76.714285714286 88.44277821625892 L 79.038961038961 93.27571691660091 L 83.688311688312 90.85924756642991 L 86.012987012987 97.22993948960801 L 88.337662337662 102.28255722178376 L 90.662337662338 100.74480399894766 L 92.987012987013 99.20705077611156 L 97.636363636364 101.62352012628256 L 99.961038961039 102.28255722178376 L 102.28571428571 98.54801368061035 L 104.61038961039 91.73796369376481 L 106.93506493506 100.74480399894766 L 111.58441558442 102.06287818995 L 113.90909090909 106.0171007629571 L 116.23376623377 105.79742173112342 L 118.55844155844 111.5090765588003 L 120.88311688312 118.97816364114705 L 125.53246753247 127.32596685082876 L 127.85714285714 119.63720073664825 L 130.18181818182 110.85003946329917 L 132.50649350649 111.72875559063407 L 134.83116883117 112.38779268613527 L 139.48051948052 108.87292817679563 L 141.80519480519 104.03998947645354 L 144.12987012987 102.94159431728497 L 146.45454545455 95.47250723493815 L 148.77922077922 101.40384109444886 L 153.42857142857 101.62352012628256 L 155.75324675325 102.7219152854512 L 158.07792207792 99.86608787161276 L 160.4025974026 102.28255722178376 L 162.72727272727 103.16127334911866 L 167.37662337662 97.88897658510922 L 169.7012987013 102.94159431728497 L 172.02597402597 100.96448303078134 L 174.35064935065 89.10181531176005 L 176.67532467532 97.22993948960801 L 181.32467532468 107.11549592212575 L 183.64935064935 103.6006314127861 L 185.97402597403 94.1544330439358 L 188.2987012987 98.32833464877666 L 190.62337662338 102.28255722178376 L 195.27272727273 103.6006314127861 L 197.5974025974 112.38779268613527 L 199.92207792208 120.51591686398315 L 202.24675324675 122.49302815048671 L 204.57142857143 111.28939752696661 L 209.22077922078 114.5845830044725 L 211.54545454545 125.34885556432522 L 213.87012987013 125.56853459615891 L 216.19480519481 121.83399105498557 L 218.51948051948 118.75848460931337 L 223.16883116883 119.19784267298081 L 225.49350649351 111.06971849513286 L 227.81818181818 107.5548539857932 L 230.14285714286 111.5090765588003 L 232.46753246753 118.5388055774796 L 237.11688311688 116.56169429097605 L 239.44155844156 118.5388055774796 L 241.76623376623 127.10628781899501 L 244.09090909091 136.55248618784532 L 246.41558441558 136.55248618784532 L 251.06493506494 138.9689555380163 L 253.38961038961 135.45409102867666 L 255.71428571429 143.14285714285717 L 258.03896103896 141.82478295185481 L 260.36363636364 138.09023941068142 L 265.01298701299 137.65088134701398 L 267.33766233766 126.88660878716132 L 269.66233766234 123.81110234148912 L 271.98701298701 100.96448303078134 L 274.31168831169 87.34438305709025 L 278.96103896104 99.86608787161276 L 281.28571428571 97.88897658510922 L 283.61038961039 100.96448303078134 L 285.93506493506 93.93475401210212 L 288.25974025974 99.20705077611156 L 292.90909090909 100.5251249671139 L 295.23376623377 70.4290976058932 L 297.55844155844 76.36043146540386 L 299.88311688312 82.07208629308074 L 302.20779220779 73.0652459878979 L 306.85714285714 71.74717179689556 L 309.18181818182 82.29176532491451 L 311.50649350649 75.04235727440144 L 313.83116883117 75.04235727440144 L 316.15584415584 74.82267824256776 L 320.80519480519 70.6487766377269 L 323.12987012987 73.28492501973166 L 325.45454545455 67.353591160221 L 327.77922077922 69.770060510392 L 330.1038961039 58.786108918705594 L 334.75324675325 58.34675085503815 L 337.07792207792 50.21862667719019 L 339.4025974026 45.60536700868188 L 341.72727272727 48.021836358852966 L 344.05194805195 52.195737963693745 L 348.7012987013 48.46119442252041 L 351.02597402597 53.513812154696154 L 353.35064935065 49.99894764535651 L 355.67532467532 23.857142857142833 L 358 27.811365430149948 L 358 109.31228624046307 L 355.67532467532 109.31228624046307 L 353.35064935065 109.31228624046307 L 351.02597402597 109.31228624046307 L 348.7012987013 109.31228624046307 L 344.05194805195 109.31228624046307 L 341.72727272727 109.31228624046307 L 339.4025974026 109.31228624046307 L 337.07792207792 109.31228624046307 L 334.75324675325 109.31228624046307 L 330.1038961039 109.31228624046307 L 327.77922077922 109.31228624046307 L 325.45454545455 109.31228624046307 L 323.12987012987 109.31228624046307 L 320.80519480519 109.31228624046307 L 316.15584415584 109.31228624046307 L 313.83116883117 109.31228624046307 L 311.50649350649 109.31228624046307 L 309.18181818182 109.31228624046307 L 306.85714285714 109.31228624046307 L 302.20779220779 109.31228624046307 L 299.88311688312 109.31228624046307 L 297.55844155844 109.31228624046307 L 295.23376623377 109.31228624046307 L 292.90909090909 109.31228624046307 L 288.25974025974 109.31228624046307 L 285.93506493506 109.31228624046307 L 283.61038961039 109.31228624046307 L 281.28571428571 109.31228624046307 L 278.96103896104 109.31228624046307 L 274.31168831169 109.31228624046307 L 271.98701298701 109.31228624046307 L 269.66233766234 109.31228624046307 L 267.33766233766 109.31228624046307 L 265.01298701299 109.31228624046307 L 260.36363636364 109.31228624046307 L 258.03896103896 109.31228624046307 L 255.71428571429 109.31228624046307 L 253.38961038961 109.31228624046307 L 251.06493506494 109.31228624046307 L 246.41558441558 109.31228624046307 L 244.09090909091 109.31228624046307 L 241.76623376623 109.31228624046307 L 239.44155844156 109.31228624046307 L 237.11688311688 109.31228624046307 L 232.46753246753 109.31228624046307 L 230.14285714286 109.31228624046307 L 227.81818181818 109.31228624046307 L 225.49350649351 109.31228624046307 L 223.16883116883 109.31228624046307 L 218.51948051948 109.31228624046307 L 216.19480519481 109.31228624046307 L 213.87012987013 109.31228624046307 L 211.54545454545 109.31228624046307 L 209.22077922078 109.31228624046307 L 204.57142857143 109.31228624046307 L 202.24675324675 109.31228624046307 L 199.92207792208 109.31228624046307 L 197.5974025974 109.31228624046307 L 195.27272727273 109.31228624046307 L 190.62337662338 109.31228624046307 L 188.2987012987 109.31228624046307 L 185.97402597403 109.31228624046307 L 183.64935064935 109.31228624046307 L 181.32467532468 109.31228624046307 L 176.67532467532 109.31228624046307 L 174.35064935065 109.31228624046307 L 172.02597402597 109.31228624046307 L 169.7012987013 109.31228624046307 L 167.37662337662 109.31228624046307 L 162.72727272727 109.31228624046307 L 160.4025974026 109.31228624046307 L 158.07792207792 109.31228624046307 L 155.75324675325 109.31228624046307 L 153.42857142857 109.31228624046307 L 148.77922077922 109.31228624046307 L 146.45454545455 109.31228624046307 L 144.12987012987 109.31228624046307 L 141.80519480519 109.31228624046307 L 139.48051948052 109.31228624046307 L 134.83116883117 109.31228624046307 L 132.50649350649 109.31228624046307 L 130.18181818182 109.31228624046307 L 127.85714285714 109.31228624046307 L 125.53246753247 109.31228624046307 L 120.88311688312 109.31228624046307 L 118.55844155844 109.31228624046307 L 116.23376623377 109.31228624046307 L 113.90909090909 109.31228624046307 L 111.58441558442 109.31228624046307 L 106.93506493506 109.31228624046307 L 104.61038961039 109.31228624046307 L 102.28571428571 109.31228624046307 L 99.961038961039 109.31228624046307 L 97.636363636364 109.31228624046307 L 92.987012987013 109.31228624046307 L 90.662337662338 109.31228624046307 L 88.337662337662 109.31228624046307 L 86.012987012987 109.31228624046307 L 83.688311688312 109.31228624046307 L 79.038961038961 109.31228624046307 L 76.714285714286 109.31228624046307 L 74.38961038961 109.31228624046307 L 72.064935064935 109.31228624046307 L 69.74025974026 109.31228624046307 L 65.090909090909 109.31228624046307 L 62.766233766234 109.31228624046307 L 60.441558441558 109.31228624046307 L 58.116883116883 109.31228624046307 L 55.792207792208 109.31228624046307 L 51.142857142857 109.31228624046307 L 48.818181818182 109.31228624046307 L 46.493506493506 109.31228624046307 L 44.168831168831 109.31228624046307 L 41.844155844156 109.31228624046307 L 37.194805194805 109.31228624046307 L 34.87012987013 109.31228624046307 L 32.545454545455 109.31228624046307 L 30.220779220779 109.31228624046307 L 27.896103896104 109.31228624046307 L 23.246753246753 109.31228624046307 L 20.922077922078 109.31228624046307 L 18.597402597403 109.31228624046307 L 16.272727272727 109.31228624046307 L 13.948051948052 109.31228624046307 L 9.2987012987013 109.31228624046307 L 6.974025974026 109.31228624046307 L 4.6493506493506 109.31228624046307 L 2.3246753246753 109.31228624046307 L 0 109.31228624046307" class="highcharts-area" data-z-index="0" visibility="hidden"></path><path d="M 0 118.5388055774796 L 2.3246753246753 121.61431202315181 L 4.6493506493506 127.32596685082876 L 6.974025974026 131.939226519337 L 9.2987012987013 138.52959747434886 L 13.948051948052 138.09023941068142 L 16.272727272727 136.55248618784532 L 18.597402597403 129.522757169166 L 20.922077922078 134.35569586950808 L 23.246753246753 127.9850039463299 L 27.896103896104 122.05367008681925 L 30.220779220779 105.79742173112342 L 32.545454545455 110.6303604314654 L 34.87012987013 127.10628781899501 L 37.194805194805 125.12917653249147 L 41.844155844156 128.20468297816367 L 44.168831168831 118.31912654564593 L 46.493506493506 106.0171007629571 L 48.818181818182 103.6006314127861 L 51.142857142857 106.45645882662456 L 55.792207792208 111.94843462246774 L 58.116883116883 106.6761378584583 L 60.441558441558 88.66245724809261 L 62.766233766234 90.20021047092871 L 65.090909090909 89.98053143909495 L 69.74025974026 91.51828466193105 L 72.064935064935 90.41988950276247 L 74.38961038961 87.56406208892395 L 76.714285714286 88.44277821625892 L 79.038961038961 93.27571691660091 L 83.688311688312 90.85924756642991 L 86.012987012987 97.22993948960801 L 88.337662337662 102.28255722178376 L 90.662337662338 100.74480399894766 L 92.987012987013 99.20705077611156 L 97.636363636364 101.62352012628256 L 99.961038961039 102.28255722178376 L 102.28571428571 98.54801368061035 L 104.61038961039 91.73796369376481 L 106.93506493506 100.74480399894766 L 111.58441558442 102.06287818995 L 113.90909090909 106.0171007629571 L 116.23376623377 105.79742173112342 L 118.55844155844 111.5090765588003 L 120.88311688312 118.97816364114705 L 125.53246753247 127.32596685082876 L 127.85714285714 119.63720073664825 L 130.18181818182 110.85003946329917 L 132.50649350649 111.72875559063407 L 134.83116883117 112.38779268613527 L 139.48051948052 108.87292817679563 L 141.80519480519 104.03998947645354 L 144.12987012987 102.94159431728497 L 146.45454545455 95.47250723493815 L 148.77922077922 101.40384109444886 L 153.42857142857 101.62352012628256 L 155.75324675325 102.7219152854512 L 158.07792207792 99.86608787161276 L 160.4025974026 102.28255722178376 L 162.72727272727 103.16127334911866 L 167.37662337662 97.88897658510922 L 169.7012987013 102.94159431728497 L 172.02597402597 100.96448303078134 L 174.35064935065 89.10181531176005 L 176.67532467532 97.22993948960801 L 181.32467532468 107.11549592212575 L 183.64935064935 103.6006314127861 L 185.97402597403 94.1544330439358 L 188.2987012987 98.32833464877666 L 190.62337662338 102.28255722178376 L 195.27272727273 103.6006314127861 L 197.5974025974 112.38779268613527 L 199.92207792208 120.51591686398315 L 202.24675324675 122.49302815048671 L 204.57142857143 111.28939752696661 L 209.22077922078 114.5845830044725 L 211.54545454545 125.34885556432522 L 213.87012987013 125.56853459615891 L 216.19480519481 121.83399105498557 L 218.51948051948 118.75848460931337 L 223.16883116883 119.19784267298081 L 225.49350649351 111.06971849513286 L 227.81818181818 107.5548539857932 L 230.14285714286 111.5090765588003 L 232.46753246753 118.5388055774796 L 237.11688311688 116.56169429097605 L 239.44155844156 118.5388055774796 L 241.76623376623 127.10628781899501 L 244.09090909091 136.55248618784532 L 246.41558441558 136.55248618784532 L 251.06493506494 138.9689555380163 L 253.38961038961 135.45409102867666 L 255.71428571429 143.14285714285717 L 258.03896103896 141.82478295185481 L 260.36363636364 138.09023941068142 L 265.01298701299 137.65088134701398 L 267.33766233766 126.88660878716132 L 269.66233766234 123.81110234148912 L 271.98701298701 100.96448303078134 L 274.31168831169 87.34438305709025 L 278.96103896104 99.86608787161276 L 281.28571428571 97.88897658510922 L 283.61038961039 100.96448303078134 L 285.93506493506 93.93475401210212 L 288.25974025974 99.20705077611156 L 292.90909090909 100.5251249671139 L 295.23376623377 70.4290976058932 L 297.55844155844 76.36043146540386 L 299.88311688312 82.07208629308074 L 302.20779220779 73.0652459878979 L 306.85714285714 71.74717179689556 L 309.18181818182 82.29176532491451 L 311.50649350649 75.04235727440144 L 313.83116883117 75.04235727440144 L 316.15584415584 74.82267824256776 L 320.80519480519 70.6487766377269 L 323.12987012987 73.28492501973166 L 325.45454545455 67.353591160221 L 327.77922077922 69.770060510392 L 330.1038961039 58.786108918705594 L 334.75324675325 58.34675085503815 L 337.07792207792 50.21862667719019 L 339.4025974026 45.60536700868188 L 341.72727272727 48.021836358852966 L 344.05194805195 52.195737963693745 L 348.7012987013 48.46119442252041 L 351.02597402597 53.513812154696154 L 353.35064935065 49.99894764535651 L 355.67532467532 23.857142857142833 L 358 27.811365430149948 L 358 109.31228624046307 L 355.67532467532 109.31228624046307 L 353.35064935065 109.31228624046307 L 351.02597402597 109.31228624046307 L 348.7012987013 109.31228624046307 L 344.05194805195 109.31228624046307 L 341.72727272727 109.31228624046307 L 339.4025974026 109.31228624046307 L 337.07792207792 109.31228624046307 L 334.75324675325 109.31228624046307 L 330.1038961039 109.31228624046307 L 327.77922077922 109.31228624046307 L 325.45454545455 109.31228624046307 L 323.12987012987 109.31228624046307 L 320.80519480519 109.31228624046307 L 316.15584415584 109.31228624046307 L 313.83116883117 109.31228624046307 L 311.50649350649 109.31228624046307 L 309.18181818182 109.31228624046307 L 306.85714285714 109.31228624046307 L 302.20779220779 109.31228624046307 L 299.88311688312 109.31228624046307 L 297.55844155844 109.31228624046307 L 295.23376623377 109.31228624046307 L 292.90909090909 109.31228624046307 L 288.25974025974 109.31228624046307 L 285.93506493506 109.31228624046307 L 283.61038961039 109.31228624046307 L 281.28571428571 109.31228624046307 L 278.96103896104 109.31228624046307 L 274.31168831169 109.31228624046307 L 271.98701298701 109.31228624046307 L 269.66233766234 109.31228624046307 L 267.33766233766 109.31228624046307 L 265.01298701299 109.31228624046307 L 260.36363636364 109.31228624046307 L 258.03896103896 109.31228624046307 L 255.71428571429 109.31228624046307 L 253.38961038961 109.31228624046307 L 251.06493506494 109.31228624046307 L 246.41558441558 109.31228624046307 L 244.09090909091 109.31228624046307 L 241.76623376623 109.31228624046307 L 239.44155844156 109.31228624046307 L 237.11688311688 109.31228624046307 L 232.46753246753 109.31228624046307 L 230.14285714286 109.31228624046307 L 227.81818181818 109.31228624046307 L 225.49350649351 109.31228624046307 L 223.16883116883 109.31228624046307 L 218.51948051948 109.31228624046307 L 216.19480519481 109.31228624046307 L 213.87012987013 109.31228624046307 L 211.54545454545 109.31228624046307 L 209.22077922078 109.31228624046307 L 204.57142857143 109.31228624046307 L 202.24675324675 109.31228624046307 L 199.92207792208 109.31228624046307 L 197.5974025974 109.31228624046307 L 195.27272727273 109.31228624046307 L 190.62337662338 109.31228624046307 L 188.2987012987 109.31228624046307 L 185.97402597403 109.31228624046307 L 183.64935064935 109.31228624046307 L 181.32467532468 109.31228624046307 L 176.67532467532 109.31228624046307 L 174.35064935065 109.31228624046307 L 172.02597402597 109.31228624046307 L 169.7012987013 109.31228624046307 L 167.37662337662 109.31228624046307 L 162.72727272727 109.31228624046307 L 160.4025974026 109.31228624046307 L 158.07792207792 109.31228624046307 L 155.75324675325 109.31228624046307 L 153.42857142857 109.31228624046307 L 148.77922077922 109.31228624046307 L 146.45454545455 109.31228624046307 L 144.12987012987 109.31228624046307 L 141.80519480519 109.31228624046307 L 139.48051948052 109.31228624046307 L 134.83116883117 109.31228624046307 L 132.50649350649 109.31228624046307 L 130.18181818182 109.31228624046307 L 127.85714285714 109.31228624046307 L 125.53246753247 109.31228624046307 L 120.88311688312 109.31228624046307 L 118.55844155844 109.31228624046307 L 116.23376623377 109.31228624046307 L 113.90909090909 109.31228624046307 L 111.58441558442 109.31228624046307 L 106.93506493506 109.31228624046307 L 104.61038961039 109.31228624046307 L 102.28571428571 109.31228624046307 L 99.961038961039 109.31228624046307 L 97.636363636364 109.31228624046307 L 92.987012987013 109.31228624046307 L 90.662337662338 109.31228624046307 L 88.337662337662 109.31228624046307 L 86.012987012987 109.31228624046307 L 83.688311688312 109.31228624046307 L 79.038961038961 109.31228624046307 L 76.714285714286 109.31228624046307 L 74.38961038961 109.31228624046307 L 72.064935064935 109.31228624046307 L 69.74025974026 109.31228624046307 L 65.090909090909 109.31228624046307 L 62.766233766234 109.31228624046307 L 60.441558441558 109.31228624046307 L 58.116883116883 109.31228624046307 L 55.792207792208 109.31228624046307 L 51.142857142857 109.31228624046307 L 48.818181818182 109.31228624046307 L 46.493506493506 109.31228624046307 L 44.168831168831 109.31228624046307 L 41.844155844156 109.31228624046307 L 37.194805194805 109.31228624046307 L 34.87012987013 109.31228624046307 L 32.545454545455 109.31228624046307 L 30.220779220779 109.31228624046307 L 27.896103896104 109.31228624046307 L 23.246753246753 109.31228624046307 L 20.922077922078 109.31228624046307 L 18.597402597403 109.31228624046307 L 16.272727272727 109.31228624046307 L 13.948051948052 109.31228624046307 L 9.2987012987013 109.31228624046307 L 6.974025974026 109.31228624046307 L 4.6493506493506 109.31228624046307 L 2.3246753246753 109.31228624046307 L 0 109.31228624046307" class="highcharts-area highcharts-zone-area-0 highcharts-negative" data-z-index="0" clip-path="url(#highcharts-goa3fqa-704)"></path><path d="M 0 118.5388055774796 L 2.3246753246753 121.61431202315181 L 4.6493506493506 127.32596685082876 L 6.974025974026 131.939226519337 L 9.2987012987013 138.52959747434886 L 13.948051948052 138.09023941068142 L 16.272727272727 136.55248618784532 L 18.597402597403 129.522757169166 L 20.922077922078 134.35569586950808 L 23.246753246753 127.9850039463299 L 27.896103896104 122.05367008681925 L 30.220779220779 105.79742173112342 L 32.545454545455 110.6303604314654 L 34.87012987013 127.10628781899501 L 37.194805194805 125.12917653249147 L 41.844155844156 128.20468297816367 L 44.168831168831 118.31912654564593 L 46.493506493506 106.0171007629571 L 48.818181818182 103.6006314127861 L 51.142857142857 106.45645882662456 L 55.792207792208 111.94843462246774 L 58.116883116883 106.6761378584583 L 60.441558441558 88.66245724809261 L 62.766233766234 90.20021047092871 L 65.090909090909 89.98053143909495 L 69.74025974026 91.51828466193105 L 72.064935064935 90.41988950276247 L 74.38961038961 87.56406208892395 L 76.714285714286 88.44277821625892 L 79.038961038961 93.27571691660091 L 83.688311688312 90.85924756642991 L 86.012987012987 97.22993948960801 L 88.337662337662 102.28255722178376 L 90.662337662338 100.74480399894766 L 92.987012987013 99.20705077611156 L 97.636363636364 101.62352012628256 L 99.961038961039 102.28255722178376 L 102.28571428571 98.54801368061035 L 104.61038961039 91.73796369376481 L 106.93506493506 100.74480399894766 L 111.58441558442 102.06287818995 L 113.90909090909 106.0171007629571 L 116.23376623377 105.79742173112342 L 118.55844155844 111.5090765588003 L 120.88311688312 118.97816364114705 L 125.53246753247 127.32596685082876 L 127.85714285714 119.63720073664825 L 130.18181818182 110.85003946329917 L 132.50649350649 111.72875559063407 L 134.83116883117 112.38779268613527 L 139.48051948052 108.87292817679563 L 141.80519480519 104.03998947645354 L 144.12987012987 102.94159431728497 L 146.45454545455 95.47250723493815 L 148.77922077922 101.40384109444886 L 153.42857142857 101.62352012628256 L 155.75324675325 102.7219152854512 L 158.07792207792 99.86608787161276 L 160.4025974026 102.28255722178376 L 162.72727272727 103.16127334911866 L 167.37662337662 97.88897658510922 L 169.7012987013 102.94159431728497 L 172.02597402597 100.96448303078134 L 174.35064935065 89.10181531176005 L 176.67532467532 97.22993948960801 L 181.32467532468 107.11549592212575 L 183.64935064935 103.6006314127861 L 185.97402597403 94.1544330439358 L 188.2987012987 98.32833464877666 L 190.62337662338 102.28255722178376 L 195.27272727273 103.6006314127861 L 197.5974025974 112.38779268613527 L 199.92207792208 120.51591686398315 L 202.24675324675 122.49302815048671 L 204.57142857143 111.28939752696661 L 209.22077922078 114.5845830044725 L 211.54545454545 125.34885556432522 L 213.87012987013 125.56853459615891 L 216.19480519481 121.83399105498557 L 218.51948051948 118.75848460931337 L 223.16883116883 119.19784267298081 L 225.49350649351 111.06971849513286 L 227.81818181818 107.5548539857932 L 230.14285714286 111.5090765588003 L 232.46753246753 118.5388055774796 L 237.11688311688 116.56169429097605 L 239.44155844156 118.5388055774796 L 241.76623376623 127.10628781899501 L 244.09090909091 136.55248618784532 L 246.41558441558 136.55248618784532 L 251.06493506494 138.9689555380163 L 253.38961038961 135.45409102867666 L 255.71428571429 143.14285714285717 L 258.03896103896 141.82478295185481 L 260.36363636364 138.09023941068142 L 265.01298701299 137.65088134701398 L 267.33766233766 126.88660878716132 L 269.66233766234 123.81110234148912 L 271.98701298701 100.96448303078134 L 274.31168831169 87.34438305709025 L 278.96103896104 99.86608787161276 L 281.28571428571 97.88897658510922 L 283.61038961039 100.96448303078134 L 285.93506493506 93.93475401210212 L 288.25974025974 99.20705077611156 L 292.90909090909 100.5251249671139 L 295.23376623377 70.4290976058932 L 297.55844155844 76.36043146540386 L 299.88311688312 82.07208629308074 L 302.20779220779 73.0652459878979 L 306.85714285714 71.74717179689556 L 309.18181818182 82.29176532491451 L 311.50649350649 75.04235727440144 L 313.83116883117 75.04235727440144 L 316.15584415584 74.82267824256776 L 320.80519480519 70.6487766377269 L 323.12987012987 73.28492501973166 L 325.45454545455 67.353591160221 L 327.77922077922 69.770060510392 L 330.1038961039 58.786108918705594 L 334.75324675325 58.34675085503815 L 337.07792207792 50.21862667719019 L 339.4025974026 45.60536700868188 L 341.72727272727 48.021836358852966 L 344.05194805195 52.195737963693745 L 348.7012987013 48.46119442252041 L 351.02597402597 53.513812154696154 L 353.35064935065 49.99894764535651 L 355.67532467532 23.857142857142833 L 358 27.811365430149948 L 358 109.31228624046307 L 355.67532467532 109.31228624046307 L 353.35064935065 109.31228624046307 L 351.02597402597 109.31228624046307 L 348.7012987013 109.31228624046307 L 344.05194805195 109.31228624046307 L 341.72727272727 109.31228624046307 L 339.4025974026 109.31228624046307 L 337.07792207792 109.31228624046307 L 334.75324675325 109.31228624046307 L 330.1038961039 109.31228624046307 L 327.77922077922 109.31228624046307 L 325.45454545455 109.31228624046307 L 323.12987012987 109.31228624046307 L 320.80519480519 109.31228624046307 L 316.15584415584 109.31228624046307 L 313.83116883117 109.31228624046307 L 311.50649350649 109.31228624046307 L 309.18181818182 109.31228624046307 L 306.85714285714 109.31228624046307 L 302.20779220779 109.31228624046307 L 299.88311688312 109.31228624046307 L 297.55844155844 109.31228624046307 L 295.23376623377 109.31228624046307 L 292.90909090909 109.31228624046307 L 288.25974025974 109.31228624046307 L 285.93506493506 109.31228624046307 L 283.61038961039 109.31228624046307 L 281.28571428571 109.31228624046307 L 278.96103896104 109.31228624046307 L 274.31168831169 109.31228624046307 L 271.98701298701 109.31228624046307 L 269.66233766234 109.31228624046307 L 267.33766233766 109.31228624046307 L 265.01298701299 109.31228624046307 L 260.36363636364 109.31228624046307 L 258.03896103896 109.31228624046307 L 255.71428571429 109.31228624046307 L 253.38961038961 109.31228624046307 L 251.06493506494 109.31228624046307 L 246.41558441558 109.31228624046307 L 244.09090909091 109.31228624046307 L 241.76623376623 109.31228624046307 L 239.44155844156 109.31228624046307 L 237.11688311688 109.31228624046307 L 232.46753246753 109.31228624046307 L 230.14285714286 109.31228624046307 L 227.81818181818 109.31228624046307 L 225.49350649351 109.31228624046307 L 223.16883116883 109.31228624046307 L 218.51948051948 109.31228624046307 L 216.19480519481 109.31228624046307 L 213.87012987013 109.31228624046307 L 211.54545454545 109.31228624046307 L 209.22077922078 109.31228624046307 L 204.57142857143 109.31228624046307 L 202.24675324675 109.31228624046307 L 199.92207792208 109.31228624046307 L 197.5974025974 109.31228624046307 L 195.27272727273 109.31228624046307 L 190.62337662338 109.31228624046307 L 188.2987012987 109.31228624046307 L 185.97402597403 109.31228624046307 L 183.64935064935 109.31228624046307 L 181.32467532468 109.31228624046307 L 176.67532467532 109.31228624046307 L 174.35064935065 109.31228624046307 L 172.02597402597 109.31228624046307 L 169.7012987013 109.31228624046307 L 167.37662337662 109.31228624046307 L 162.72727272727 109.31228624046307 L 160.4025974026 109.31228624046307 L 158.07792207792 109.31228624046307 L 155.75324675325 109.31228624046307 L 153.42857142857 109.31228624046307 L 148.77922077922 109.31228624046307 L 146.45454545455 109.31228624046307 L 144.12987012987 109.31228624046307 L 141.80519480519 109.31228624046307 L 139.48051948052 109.31228624046307 L 134.83116883117 109.31228624046307 L 132.50649350649 109.31228624046307 L 130.18181818182 109.31228624046307 L 127.85714285714 109.31228624046307 L 125.53246753247 109.31228624046307 L 120.88311688312 109.31228624046307 L 118.55844155844 109.31228624046307 L 116.23376623377 109.31228624046307 L 113.90909090909 109.31228624046307 L 111.58441558442 109.31228624046307 L 106.93506493506 109.31228624046307 L 104.61038961039 109.31228624046307 L 102.28571428571 109.31228624046307 L 99.961038961039 109.31228624046307 L 97.636363636364 109.31228624046307 L 92.987012987013 109.31228624046307 L 90.662337662338 109.31228624046307 L 88.337662337662 109.31228624046307 L 86.012987012987 109.31228624046307 L 83.688311688312 109.31228624046307 L 79.038961038961 109.31228624046307 L 76.714285714286 109.31228624046307 L 74.38961038961 109.31228624046307 L 72.064935064935 109.31228624046307 L 69.74025974026 109.31228624046307 L 65.090909090909 109.31228624046307 L 62.766233766234 109.31228624046307 L 60.441558441558 109.31228624046307 L 58.116883116883 109.31228624046307 L 55.792207792208 109.31228624046307 L 51.142857142857 109.31228624046307 L 48.818181818182 109.31228624046307 L 46.493506493506 109.31228624046307 L 44.168831168831 109.31228624046307 L 41.844155844156 109.31228624046307 L 37.194805194805 109.31228624046307 L 34.87012987013 109.31228624046307 L 32.545454545455 109.31228624046307 L 30.220779220779 109.31228624046307 L 27.896103896104 109.31228624046307 L 23.246753246753 109.31228624046307 L 20.922077922078 109.31228624046307 L 18.597402597403 109.31228624046307 L 16.272727272727 109.31228624046307 L 13.948051948052 109.31228624046307 L 9.2987012987013 109.31228624046307 L 6.974025974026 109.31228624046307 L 4.6493506493506 109.31228624046307 L 2.3246753246753 109.31228624046307 L 0 109.31228624046307" class="highcharts-area highcharts-zone-area-1 undefined" data-z-index="0" clip-path="url(#highcharts-goa3fqa-705)"></path><path d="M 0 118.5388055774796 L 2.3246753246753 121.61431202315181 L 4.6493506493506 127.32596685082876 L 6.974025974026 131.939226519337 L 9.2987012987013 138.52959747434886 L 13.948051948052 138.09023941068142 L 16.272727272727 136.55248618784532 L 18.597402597403 129.522757169166 L 20.922077922078 134.35569586950808 L 23.246753246753 127.9850039463299 L 27.896103896104 122.05367008681925 L 30.220779220779 105.79742173112342 L 32.545454545455 110.6303604314654 L 34.87012987013 127.10628781899501 L 37.194805194805 125.12917653249147 L 41.844155844156 128.20468297816367 L 44.168831168831 118.31912654564593 L 46.493506493506 106.0171007629571 L 48.818181818182 103.6006314127861 L 51.142857142857 106.45645882662456 L 55.792207792208 111.94843462246774 L 58.116883116883 106.6761378584583 L 60.441558441558 88.66245724809261 L 62.766233766234 90.20021047092871 L 65.090909090909 89.98053143909495 L 69.74025974026 91.51828466193105 L 72.064935064935 90.41988950276247 L 74.38961038961 87.56406208892395 L 76.714285714286 88.44277821625892 L 79.038961038961 93.27571691660091 L 83.688311688312 90.85924756642991 L 86.012987012987 97.22993948960801 L 88.337662337662 102.28255722178376 L 90.662337662338 100.74480399894766 L 92.987012987013 99.20705077611156 L 97.636363636364 101.62352012628256 L 99.961038961039 102.28255722178376 L 102.28571428571 98.54801368061035 L 104.61038961039 91.73796369376481 L 106.93506493506 100.74480399894766 L 111.58441558442 102.06287818995 L 113.90909090909 106.0171007629571 L 116.23376623377 105.79742173112342 L 118.55844155844 111.5090765588003 L 120.88311688312 118.97816364114705 L 125.53246753247 127.32596685082876 L 127.85714285714 119.63720073664825 L 130.18181818182 110.85003946329917 L 132.50649350649 111.72875559063407 L 134.83116883117 112.38779268613527 L 139.48051948052 108.87292817679563 L 141.80519480519 104.03998947645354 L 144.12987012987 102.94159431728497 L 146.45454545455 95.47250723493815 L 148.77922077922 101.40384109444886 L 153.42857142857 101.62352012628256 L 155.75324675325 102.7219152854512 L 158.07792207792 99.86608787161276 L 160.4025974026 102.28255722178376 L 162.72727272727 103.16127334911866 L 167.37662337662 97.88897658510922 L 169.7012987013 102.94159431728497 L 172.02597402597 100.96448303078134 L 174.35064935065 89.10181531176005 L 176.67532467532 97.22993948960801 L 181.32467532468 107.11549592212575 L 183.64935064935 103.6006314127861 L 185.97402597403 94.1544330439358 L 188.2987012987 98.32833464877666 L 190.62337662338 102.28255722178376 L 195.27272727273 103.6006314127861 L 197.5974025974 112.38779268613527 L 199.92207792208 120.51591686398315 L 202.24675324675 122.49302815048671 L 204.57142857143 111.28939752696661 L 209.22077922078 114.5845830044725 L 211.54545454545 125.34885556432522 L 213.87012987013 125.56853459615891 L 216.19480519481 121.83399105498557 L 218.51948051948 118.75848460931337 L 223.16883116883 119.19784267298081 L 225.49350649351 111.06971849513286 L 227.81818181818 107.5548539857932 L 230.14285714286 111.5090765588003 L 232.46753246753 118.5388055774796 L 237.11688311688 116.56169429097605 L 239.44155844156 118.5388055774796 L 241.76623376623 127.10628781899501 L 244.09090909091 136.55248618784532 L 246.41558441558 136.55248618784532 L 251.06493506494 138.9689555380163 L 253.38961038961 135.45409102867666 L 255.71428571429 143.14285714285717 L 258.03896103896 141.82478295185481 L 260.36363636364 138.09023941068142 L 265.01298701299 137.65088134701398 L 267.33766233766 126.88660878716132 L 269.66233766234 123.81110234148912 L 271.98701298701 100.96448303078134 L 274.31168831169 87.34438305709025 L 278.96103896104 99.86608787161276 L 281.28571428571 97.88897658510922 L 283.61038961039 100.96448303078134 L 285.93506493506 93.93475401210212 L 288.25974025974 99.20705077611156 L 292.90909090909 100.5251249671139 L 295.23376623377 70.4290976058932 L 297.55844155844 76.36043146540386 L 299.88311688312 82.07208629308074 L 302.20779220779 73.0652459878979 L 306.85714285714 71.74717179689556 L 309.18181818182 82.29176532491451 L 311.50649350649 75.04235727440144 L 313.83116883117 75.04235727440144 L 316.15584415584 74.82267824256776 L 320.80519480519 70.6487766377269 L 323.12987012987 73.28492501973166 L 325.45454545455 67.353591160221 L 327.77922077922 69.770060510392 L 330.1038961039 58.786108918705594 L 334.75324675325 58.34675085503815 L 337.07792207792 50.21862667719019 L 339.4025974026 45.60536700868188 L 341.72727272727 48.021836358852966 L 344.05194805195 52.195737963693745 L 348.7012987013 48.46119442252041 L 351.02597402597 53.513812154696154 L 353.35064935065 49.99894764535651 L 355.67532467532 23.857142857142833 L 358 27.811365430149948" class="highcharts-graph" data-z-index="1" visibility="hidden"></path><path d="M 0 118.5388055774796 L 2.3246753246753 121.61431202315181 L 4.6493506493506 127.32596685082876 L 6.974025974026 131.939226519337 L 9.2987012987013 138.52959747434886 L 13.948051948052 138.09023941068142 L 16.272727272727 136.55248618784532 L 18.597402597403 129.522757169166 L 20.922077922078 134.35569586950808 L 23.246753246753 127.9850039463299 L 27.896103896104 122.05367008681925 L 30.220779220779 105.79742173112342 L 32.545454545455 110.6303604314654 L 34.87012987013 127.10628781899501 L 37.194805194805 125.12917653249147 L 41.844155844156 128.20468297816367 L 44.168831168831 118.31912654564593 L 46.493506493506 106.0171007629571 L 48.818181818182 103.6006314127861 L 51.142857142857 106.45645882662456 L 55.792207792208 111.94843462246774 L 58.116883116883 106.6761378584583 L 60.441558441558 88.66245724809261 L 62.766233766234 90.20021047092871 L 65.090909090909 89.98053143909495 L 69.74025974026 91.51828466193105 L 72.064935064935 90.41988950276247 L 74.38961038961 87.56406208892395 L 76.714285714286 88.44277821625892 L 79.038961038961 93.27571691660091 L 83.688311688312 90.85924756642991 L 86.012987012987 97.22993948960801 L 88.337662337662 102.28255722178376 L 90.662337662338 100.74480399894766 L 92.987012987013 99.20705077611156 L 97.636363636364 101.62352012628256 L 99.961038961039 102.28255722178376 L 102.28571428571 98.54801368061035 L 104.61038961039 91.73796369376481 L 106.93506493506 100.74480399894766 L 111.58441558442 102.06287818995 L 113.90909090909 106.0171007629571 L 116.23376623377 105.79742173112342 L 118.55844155844 111.5090765588003 L 120.88311688312 118.97816364114705 L 125.53246753247 127.32596685082876 L 127.85714285714 119.63720073664825 L 130.18181818182 110.85003946329917 L 132.50649350649 111.72875559063407 L 134.83116883117 112.38779268613527 L 139.48051948052 108.87292817679563 L 141.80519480519 104.03998947645354 L 144.12987012987 102.94159431728497 L 146.45454545455 95.47250723493815 L 148.77922077922 101.40384109444886 L 153.42857142857 101.62352012628256 L 155.75324675325 102.7219152854512 L 158.07792207792 99.86608787161276 L 160.4025974026 102.28255722178376 L 162.72727272727 103.16127334911866 L 167.37662337662 97.88897658510922 L 169.7012987013 102.94159431728497 L 172.02597402597 100.96448303078134 L 174.35064935065 89.10181531176005 L 176.67532467532 97.22993948960801 L 181.32467532468 107.11549592212575 L 183.64935064935 103.6006314127861 L 185.97402597403 94.1544330439358 L 188.2987012987 98.32833464877666 L 190.62337662338 102.28255722178376 L 195.27272727273 103.6006314127861 L 197.5974025974 112.38779268613527 L 199.92207792208 120.51591686398315 L 202.24675324675 122.49302815048671 L 204.57142857143 111.28939752696661 L 209.22077922078 114.5845830044725 L 211.54545454545 125.34885556432522 L 213.87012987013 125.56853459615891 L 216.19480519481 121.83399105498557 L 218.51948051948 118.75848460931337 L 223.16883116883 119.19784267298081 L 225.49350649351 111.06971849513286 L 227.81818181818 107.5548539857932 L 230.14285714286 111.5090765588003 L 232.46753246753 118.5388055774796 L 237.11688311688 116.56169429097605 L 239.44155844156 118.5388055774796 L 241.76623376623 127.10628781899501 L 244.09090909091 136.55248618784532 L 246.41558441558 136.55248618784532 L 251.06493506494 138.9689555380163 L 253.38961038961 135.45409102867666 L 255.71428571429 143.14285714285717 L 258.03896103896 141.82478295185481 L 260.36363636364 138.09023941068142 L 265.01298701299 137.65088134701398 L 267.33766233766 126.88660878716132 L 269.66233766234 123.81110234148912 L 271.98701298701 100.96448303078134 L 274.31168831169 87.34438305709025 L 278.96103896104 99.86608787161276 L 281.28571428571 97.88897658510922 L 283.61038961039 100.96448303078134 L 285.93506493506 93.93475401210212 L 288.25974025974 99.20705077611156 L 292.90909090909 100.5251249671139 L 295.23376623377 70.4290976058932 L 297.55844155844 76.36043146540386 L 299.88311688312 82.07208629308074 L 302.20779220779 73.0652459878979 L 306.85714285714 71.74717179689556 L 309.18181818182 82.29176532491451 L 311.50649350649 75.04235727440144 L 313.83116883117 75.04235727440144 L 316.15584415584 74.82267824256776 L 320.80519480519 70.6487766377269 L 323.12987012987 73.28492501973166 L 325.45454545455 67.353591160221 L 327.77922077922 69.770060510392 L 330.1038961039 58.786108918705594 L 334.75324675325 58.34675085503815 L 337.07792207792 50.21862667719019 L 339.4025974026 45.60536700868188 L 341.72727272727 48.021836358852966 L 344.05194805195 52.195737963693745 L 348.7012987013 48.46119442252041 L 351.02597402597 53.513812154696154 L 353.35064935065 49.99894764535651 L 355.67532467532 23.857142857142833 L 358 27.811365430149948" class="highcharts-graph highcharts-zone-graph-0 highcharts-negative" data-z-index="1" clip-path="url(#highcharts-goa3fqa-704)"></path><path d="M 0 118.5388055774796 L 2.3246753246753 121.61431202315181 L 4.6493506493506 127.32596685082876 L 6.974025974026 131.939226519337 L 9.2987012987013 138.52959747434886 L 13.948051948052 138.09023941068142 L 16.272727272727 136.55248618784532 L 18.597402597403 129.522757169166 L 20.922077922078 134.35569586950808 L 23.246753246753 127.9850039463299 L 27.896103896104 122.05367008681925 L 30.220779220779 105.79742173112342 L 32.545454545455 110.6303604314654 L 34.87012987013 127.10628781899501 L 37.194805194805 125.12917653249147 L 41.844155844156 128.20468297816367 L 44.168831168831 118.31912654564593 L 46.493506493506 106.0171007629571 L 48.818181818182 103.6006314127861 L 51.142857142857 106.45645882662456 L 55.792207792208 111.94843462246774 L 58.116883116883 106.6761378584583 L 60.441558441558 88.66245724809261 L 62.766233766234 90.20021047092871 L 65.090909090909 89.98053143909495 L 69.74025974026 91.51828466193105 L 72.064935064935 90.41988950276247 L 74.38961038961 87.56406208892395 L 76.714285714286 88.44277821625892 L 79.038961038961 93.27571691660091 L 83.688311688312 90.85924756642991 L 86.012987012987 97.22993948960801 L 88.337662337662 102.28255722178376 L 90.662337662338 100.74480399894766 L 92.987012987013 99.20705077611156 L 97.636363636364 101.62352012628256 L 99.961038961039 102.28255722178376 L 102.28571428571 98.54801368061035 L 104.61038961039 91.73796369376481 L 106.93506493506 100.74480399894766 L 111.58441558442 102.06287818995 L 113.90909090909 106.0171007629571 L 116.23376623377 105.79742173112342 L 118.55844155844 111.5090765588003 L 120.88311688312 118.97816364114705 L 125.53246753247 127.32596685082876 L 127.85714285714 119.63720073664825 L 130.18181818182 110.85003946329917 L 132.50649350649 111.72875559063407 L 134.83116883117 112.38779268613527 L 139.48051948052 108.87292817679563 L 141.80519480519 104.03998947645354 L 144.12987012987 102.94159431728497 L 146.45454545455 95.47250723493815 L 148.77922077922 101.40384109444886 L 153.42857142857 101.62352012628256 L 155.75324675325 102.7219152854512 L 158.07792207792 99.86608787161276 L 160.4025974026 102.28255722178376 L 162.72727272727 103.16127334911866 L 167.37662337662 97.88897658510922 L 169.7012987013 102.94159431728497 L 172.02597402597 100.96448303078134 L 174.35064935065 89.10181531176005 L 176.67532467532 97.22993948960801 L 181.32467532468 107.11549592212575 L 183.64935064935 103.6006314127861 L 185.97402597403 94.1544330439358 L 188.2987012987 98.32833464877666 L 190.62337662338 102.28255722178376 L 195.27272727273 103.6006314127861 L 197.5974025974 112.38779268613527 L 199.92207792208 120.51591686398315 L 202.24675324675 122.49302815048671 L 204.57142857143 111.28939752696661 L 209.22077922078 114.5845830044725 L 211.54545454545 125.34885556432522 L 213.87012987013 125.56853459615891 L 216.19480519481 121.83399105498557 L 218.51948051948 118.75848460931337 L 223.16883116883 119.19784267298081 L 225.49350649351 111.06971849513286 L 227.81818181818 107.5548539857932 L 230.14285714286 111.5090765588003 L 232.46753246753 118.5388055774796 L 237.11688311688 116.56169429097605 L 239.44155844156 118.5388055774796 L 241.76623376623 127.10628781899501 L 244.09090909091 136.55248618784532 L 246.41558441558 136.55248618784532 L 251.06493506494 138.9689555380163 L 253.38961038961 135.45409102867666 L 255.71428571429 143.14285714285717 L 258.03896103896 141.82478295185481 L 260.36363636364 138.09023941068142 L 265.01298701299 137.65088134701398 L 267.33766233766 126.88660878716132 L 269.66233766234 123.81110234148912 L 271.98701298701 100.96448303078134 L 274.31168831169 87.34438305709025 L 278.96103896104 99.86608787161276 L 281.28571428571 97.88897658510922 L 283.61038961039 100.96448303078134 L 285.93506493506 93.93475401210212 L 288.25974025974 99.20705077611156 L 292.90909090909 100.5251249671139 L 295.23376623377 70.4290976058932 L 297.55844155844 76.36043146540386 L 299.88311688312 82.07208629308074 L 302.20779220779 73.0652459878979 L 306.85714285714 71.74717179689556 L 309.18181818182 82.29176532491451 L 311.50649350649 75.04235727440144 L 313.83116883117 75.04235727440144 L 316.15584415584 74.82267824256776 L 320.80519480519 70.6487766377269 L 323.12987012987 73.28492501973166 L 325.45454545455 67.353591160221 L 327.77922077922 69.770060510392 L 330.1038961039 58.786108918705594 L 334.75324675325 58.34675085503815 L 337.07792207792 50.21862667719019 L 339.4025974026 45.60536700868188 L 341.72727272727 48.021836358852966 L 344.05194805195 52.195737963693745 L 348.7012987013 48.46119442252041 L 351.02597402597 53.513812154696154 L 353.35064935065 49.99894764535651 L 355.67532467532 23.857142857142833 L 358 27.811365430149948" class="highcharts-graph highcharts-zone-graph-1 " data-z-index="1" clip-path="url(#highcharts-goa3fqa-705)"></path><path d="M -10 118.5388055774796 L 0 118.5388055774796 L 2.3246753246753 121.61431202315181 L 4.6493506493506 127.32596685082876 L 6.974025974026 131.939226519337 L 9.2987012987013 138.52959747434886 L 13.948051948052 138.09023941068142 L 16.272727272727 136.55248618784532 L 18.597402597403 129.522757169166 L 20.922077922078 134.35569586950808 L 23.246753246753 127.9850039463299 L 27.896103896104 122.05367008681925 L 30.220779220779 105.79742173112342 L 32.545454545455 110.6303604314654 L 34.87012987013 127.10628781899501 L 37.194805194805 125.12917653249147 L 41.844155844156 128.20468297816367 L 44.168831168831 118.31912654564593 L 46.493506493506 106.0171007629571 L 48.818181818182 103.6006314127861 L 51.142857142857 106.45645882662456 L 55.792207792208 111.94843462246774 L 58.116883116883 106.6761378584583 L 60.441558441558 88.66245724809261 L 62.766233766234 90.20021047092871 L 65.090909090909 89.98053143909495 L 69.74025974026 91.51828466193105 L 72.064935064935 90.41988950276247 L 74.38961038961 87.56406208892395 L 76.714285714286 88.44277821625892 L 79.038961038961 93.27571691660091 L 83.688311688312 90.85924756642991 L 86.012987012987 97.22993948960801 L 88.337662337662 102.28255722178376 L 90.662337662338 100.74480399894766 L 92.987012987013 99.20705077611156 L 97.636363636364 101.62352012628256 L 99.961038961039 102.28255722178376 L 102.28571428571 98.54801368061035 L 104.61038961039 91.73796369376481 L 106.93506493506 100.74480399894766 L 111.58441558442 102.06287818995 L 113.90909090909 106.0171007629571 L 116.23376623377 105.79742173112342 L 118.55844155844 111.5090765588003 L 120.88311688312 118.97816364114705 L 125.53246753247 127.32596685082876 L 127.85714285714 119.63720073664825 L 130.18181818182 110.85003946329917 L 132.50649350649 111.72875559063407 L 134.83116883117 112.38779268613527 L 139.48051948052 108.87292817679563 L 141.80519480519 104.03998947645354 L 144.12987012987 102.94159431728497 L 146.45454545455 95.47250723493815 L 148.77922077922 101.40384109444886 L 153.42857142857 101.62352012628256 L 155.75324675325 102.7219152854512 L 158.07792207792 99.86608787161276 L 160.4025974026 102.28255722178376 L 162.72727272727 103.16127334911866 L 167.37662337662 97.88897658510922 L 169.7012987013 102.94159431728497 L 172.02597402597 100.96448303078134 L 174.35064935065 89.10181531176005 L 176.67532467532 97.22993948960801 L 181.32467532468 107.11549592212575 L 183.64935064935 103.6006314127861 L 185.97402597403 94.1544330439358 L 188.2987012987 98.32833464877666 L 190.62337662338 102.28255722178376 L 195.27272727273 103.6006314127861 L 197.5974025974 112.38779268613527 L 199.92207792208 120.51591686398315 L 202.24675324675 122.49302815048671 L 204.57142857143 111.28939752696661 L 209.22077922078 114.5845830044725 L 211.54545454545 125.34885556432522 L 213.87012987013 125.56853459615891 L 216.19480519481 121.83399105498557 L 218.51948051948 118.75848460931337 L 223.16883116883 119.19784267298081 L 225.49350649351 111.06971849513286 L 227.81818181818 107.5548539857932 L 230.14285714286 111.5090765588003 L 232.46753246753 118.5388055774796 L 237.11688311688 116.56169429097605 L 239.44155844156 118.5388055774796 L 241.76623376623 127.10628781899501 L 244.09090909091 136.55248618784532 L 246.41558441558 136.55248618784532 L 251.06493506494 138.9689555380163 L 253.38961038961 135.45409102867666 L 255.71428571429 143.14285714285717 L 258.03896103896 141.82478295185481 L 260.36363636364 138.09023941068142 L 265.01298701299 137.65088134701398 L 267.33766233766 126.88660878716132 L 269.66233766234 123.81110234148912 L 271.98701298701 100.96448303078134 L 274.31168831169 87.34438305709025 L 278.96103896104 99.86608787161276 L 281.28571428571 97.88897658510922 L 283.61038961039 100.96448303078134 L 285.93506493506 93.93475401210212 L 288.25974025974 99.20705077611156 L 292.90909090909 100.5251249671139 L 295.23376623377 70.4290976058932 L 297.55844155844 76.36043146540386 L 299.88311688312 82.07208629308074 L 302.20779220779 73.0652459878979 L 306.85714285714 71.74717179689556 L 309.18181818182 82.29176532491451 L 311.50649350649 75.04235727440144 L 313.83116883117 75.04235727440144 L 316.15584415584 74.82267824256776 L 320.80519480519 70.6487766377269 L 323.12987012987 73.28492501973166 L 325.45454545455 67.353591160221 L 327.77922077922 69.770060510392 L 330.1038961039 58.786108918705594 L 334.75324675325 58.34675085503815 L 337.07792207792 50.21862667719019 L 339.4025974026 45.60536700868188 L 341.72727272727 48.021836358852966 L 344.05194805195 52.195737963693745 L 348.7012987013 48.46119442252041 L 351.02597402597 53.513812154696154 L 353.35064935065 49.99894764535651 L 355.67532467532 23.857142857142833 L 358 27.811365430149948 L 368 27.811365430149948" visibility="visible" data-z-index="2" class="highcharts-tracker-line"></path></g><g data-z-index="0.1" class="highcharts-markers highcharts-series-0 highcharts-area-series highcharts-color-0 highcharts-tracker  highcharts-positive" transform="translate(1,5) scale(1 1)"><path visibility="hidden" d="M 158 99.86608787161276 A 0 0 0 1 1 158 99.86608787161276 Z" class="highcharts-halo highcharts-color-0" data-z-index="-1"></path><path d="M 164 99.86608787161276 A 6 6 0 1 1 163.99999700000026 99.86008787261277 Z" visibility="hidden"></path></g></g><text x="200" text-anchor="middle" class="highcharts-title" data-z-index="4" y="27"></text><text x="200" text-anchor="middle" class="highcharts-subtitle" data-z-index="4" y="26"></text><g class="highcharts-axis-labels highcharts-xaxis-labels highcharts-nogrid" data-z-index="7"><text x="26.571428571429" text-anchor="middle" transform="translate(0,0)" y="193" opacity="1"><tspan>Jul '23</tspan></text><text x="149.77922077922" text-anchor="middle" transform="translate(0,0)" y="193" opacity="1"><tspan>Sept '23</tspan></text><text x="270.66233766234" text-anchor="middle" transform="translate(0,0)" y="193" opacity="1"><tspan>Nov '23</tspan></text></g><g class="highcharts-axis-labels highcharts-yaxis-labels highcharts-nogrid" data-z-index="7"><text x="389.0469970703125" text-anchor="end" transform="translate(0,0)" y="153" opacity="1"><tspan>18</tspan></text><text x="389.0469970703125" text-anchor="end" transform="translate(0,0)" y="109" opacity="1"><tspan>20</tspan></text><text x="389.0469970703125" text-anchor="end" transform="translate(0,0)" y="65" opacity="1"><tspan>22</tspan></text><text x="389.0469970703125" text-anchor="end" transform="translate(0,0)" y="21" opacity="1"><tspan>24</tspan></text></g><g class="highcharts-label highcharts-tooltip highcharts-tooltip-5 highcharts-color-0" data-z-index="8" transform="translate(120,-9999)" opacity="0" visibility="visible"><path class="highcharts-label-box highcharts-tooltip-box" d="M 3.5 0.5 L 74.5 0.5 C 77.5 0.5 77.5 0.5 77.5 3.5 L 77.5 48.5 C 77.5 51.5 77.5 51.5 74.5 51.5 L 44.5 51.5 38.5 57.5 32.5 51.5 3.5 51.5 C 0.5 51.5 0.5 51.5 0.5 48.5 L 0.5 3.5 C 0.5 0.5 0.5 0.5 3.5 0.5"></path><text x="8" data-z-index="1" y="22"><tspan class="highcharts-header">06.09.2023</tspan><tspan class="highcharts-strong" x="8" dy="18">19,97</tspan></text></g></svg>