<svg version="1.1" class="highcharts-root" xmlns="http://www.w3.org/2000/svg" width="408" height="200" viewBox="0 0 408 200"><desc>Created with Highcharts 7.0.1</desc><defs><style>.highcharts-3d-top{filter: url(#highcharts-brighter)}
.highcharts-3d-side{filter: url(#highcharts-darker)}
</style><filter id="highcharts-darker"><feComponentTransfer><feFuncR type="linear" slope="0.6"></feFuncR><feFuncG type="linear" slope="0.6"></feFuncG><feFuncB type="linear" slope="0.6"></feFuncB></feComponentTransfer></filter><filter id="highcharts-brighter"><feComponentTransfer><feFuncR type="linear" slope="1.4"></feFuncR><feFuncG type="linear" slope="1.4"></feFuncG><feFuncB type="linear" slope="1.4"></feFuncB></feComponentTransfer></filter><clipPath id="highcharts-9bs6sle-40"><rect x="0" y="0" width="368" height="167"></rect></clipPath><clipPath id="highcharts-9bs6sle-215"><rect x="0" y="126" width="408" height="46"></rect></clipPath><clipPath id="highcharts-9bs6sle-216"><rect x="0" y="0" width="408" height="126"></rect></clipPath></defs><rect class="highcharts-background" x="0.5" y="0.5" width="406" height="198" rx="0" ry="0"></rect><rect class="highcharts-plot-background" x="1" y="5" width="368" height="167"></rect><g class="highcharts-pane-group" data-z-index="0"></g><g class="highcharts-plot-lines-0" data-z-index="0"><path class="highcharts-plot-line " d="M 1 131 L 369 131"></path></g><g class="highcharts-grid highcharts-xaxis-grid highcharts-nogrid" data-z-index="1"></g><g class="highcharts-grid highcharts-yaxis-grid highcharts-nogrid" data-z-index="1"><path data-z-index="1" class="highcharts-grid-line" d="M 1 139.5 L 369 139.5" opacity="1"></path><path data-z-index="1" class="highcharts-grid-line" d="M 1 97.5 L 369 97.5" opacity="1"></path><path data-z-index="1" class="highcharts-grid-line" d="M 1 55.5 L 369 55.5" opacity="1"></path><path data-z-index="1" class="highcharts-grid-line" d="M 1 13.5 L 369 13.5" opacity="1"></path></g><rect class="highcharts-plot-border" data-z-index="1" x="0.5" y="4.5" width="369" height="168"></rect><g class="highcharts-axis highcharts-xaxis highcharts-nogrid" data-z-index="2"><path class="highcharts-axis-line" d="M 1 172 L 369 172"></path></g><g class="highcharts-axis highcharts-yaxis highcharts-nogrid" data-z-index="2"><path class="highcharts-axis-line" d="M 369 5 L 369 172"></path></g><g class="highcharts-series-group" data-z-index="3"><g data-z-index="0.1" class="highcharts-series highcharts-series-0 highcharts-area-series highcharts-color-0 highcharts-positive" transform="translate(1,5) scale(1 1)" clip-path="url(#highcharts-9bs6sle-40)"><path d="M 0 130.1679197994988 L 1.8585858585859 127.65664160400999 L 3.7171717171717 124.30827067669176 L 5.5757575757576 125.14536340852132 L 7.4343434343434 127.65664160400999 L 9.2929292929293 125.98245614035088 L 11.151515151515 125.14536340852132 L 13.010101010101 124.72681704260648 L 14.868686868687 123.05263157894737 L 18.585858585859 123.4711779448622 L 20.444444444444 126.40100250626558 L 22.30303030303 128.9122807017544 L 24.161616161616 131.42355889724308 L 26.020202020202 134.3533834586466 L 27.878787878788 136.0275689223057 L 29.737373737374 139.37593984962407 L 31.59595959596 136.44611528822054 L 33.454545454545 143.14285714285714 L 37.171717171717 136.44611528822054 L 39.030303030303 132.26065162907264 L 40.888888888889 132.26065162907264 L 42.747474747475 127.65664160400999 L 44.606060606061 126.81954887218043 L 46.464646464646 128.49373433583955 L 50.181818181818 131.42355889724308 L 52.040404040404 129.3308270676691 L 55.757575757576 125.56390977443603 L 57.616161616162 129.3308270676691 L 59.474747474747 133.51629072681703 L 61.333333333333 133.93483709273187 L 63.191919191919 131.42355889724308 L 66.909090909091 130.58646616541353 L 68.767676767677 129.74937343358397 L 70.626262626263 129.3308270676691 L 74.343434343434 127.65664160400999 L 76.20202020202 128.49373433583955 L 79.919191919192 128.49373433583955 L 81.777777777778 132.26065162907264 L 83.636363636364 133.51629072681703 L 87.353535353535 131.00501253132836 L 89.212121212121 128.9122807017544 L 92.929292929293 128.07518796992485 L 94.787878787879 129.3308270676691 L 96.646464646465 128.9122807017544 L 100.36363636364 123.88972431077693 L 102.22222222222 123.4711779448622 L 104.08080808081 121.37844611528826 L 105.93939393939 122.21553884711781 L 107.79797979798 120.95989974937339 L 111.51515151515 120.95989974937339 L 113.37373737374 129.3308270676691 L 115.23232323232 133.93483709273187 L 117.09090909091 134.77192982456143 L 118.94949494949 136.44611528822054 L 122.66666666667 130.58646616541353 L 124.52525252525 127.65664160400999 L 126.38383838384 125.98245614035088 L 130.10101010101 112.17042606516284 L 131.9595959596 110.91478696741859 L 133.81818181818 114.2631578947368 L 137.53535353535 113.42606516290725 L 139.39393939394 118.03007518796989 L 141.25252525253 111.75187969924815 L 143.11111111111 113.8446115288221 L 144.9696969697 114.68170426065166 L 148.68686868687 111.33333333333329 L 150.54545454545 114.68170426065166 L 152.40404040404 113.8446115288221 L 154.26262626263 115.10025062656636 L 156.12121212121 114.68170426065166 L 157.9797979798 111.75187969924815 L 159.83838383838 118.03007518796989 L 161.69696969697 115.9373433583959 L 163.55555555556 119.28571428571429 L 167.27272727273 118.44862155388473 L 169.13131313131 120.12280701754383 L 170.9898989899 120.95989974937339 L 172.84848484848 119.70426065162914 L 174.70707070707 117.19298245614033 L 176.56565656566 113.8446115288221 L 178.42424242424 108.40350877192976 L 180.28282828283 103.38095238095244 L 182.14141414141 98.35839598997495 L 185.85858585859 90.82456140350881 L 187.71717171717 94.59147869674187 L 189.57575757576 93.33583959899747 L 191.43434343434 94.17293233082702 L 193.29292929293 94.59147869674187 L 195.15151515152 98.35839598997495 L 197.0101010101 95.01002506265658 L 198.86868686869 98.7769423558898 L 200.72727272727 97.5213032581454 L 204.44444444444 92.49874686716791 L 206.30303030303 81.19799498746869 L 208.16161616162 79.10526315789473 L 210.0202020202 81.19799498746869 L 211.87878787879 81.61654135338354 L 213.73737373737 82.8721804511278 L 215.59595959596 84.96491228070177 L 217.45454545455 84.96491228070177 L 219.31313131313 82.03508771929825 L 223.0303030303 79.10526315789473 L 224.88888888889 83.29072681704265 L 226.74747474747 81.61654135338354 L 228.60606060606 81.61654135338354 L 230.46464646465 82.8721804511278 L 232.32323232323 77.01253132832076 L 234.18181818182 75.33834586466165 L 236.0404040404 72.40852130325813 L 237.89898989899 73.24561403508768 L 241.61616161616 87.47619047619042 L 243.47474747475 81.19799498746869 L 245.33333333333 77.43107769423561 L 247.19191919192 81.61654135338354 L 249.05050505051 81.61654135338354 L 250.90909090909 79.52380952380958 L 252.76767676768 80.77944862155384 L 254.62626262626 76.59398496240605 L 256.48484848485 77.84962406015046 L 260.20202020202 78.68671679198002 L 262.06060606061 78.68671679198002 L 265.77777777778 81.19799498746869 L 267.63636363636 80.36090225563913 L 269.49494949495 89.56892230576439 L 271.35353535354 82.03508771929825 L 273.21212121212 84.12781954887221 L 275.07070707071 85.80200501253132 L 278.78787878788 87.47619047619042 L 280.64646464646 85.38345864661662 L 282.50505050505 87.47619047619042 L 284.36363636364 86.22055137844617 L 286.22222222222 87.05764411027573 L 288.08080808081 84.12781954887221 L 289.93939393939 79.52380952380958 L 291.79797979798 81.61654135338354 L 293.65656565657 78.68671679198002 L 297.37373737374 80.36090225563913 L 299.23232323232 81.61654135338354 L 301.09090909091 82.8721804511278 L 302.94949494949 82.03508771929825 L 304.80808080808 83.70927318295736 L 306.66666666667 84.12781954887221 L 308.52525252525 90.40601503759395 L 310.38383838384 90.82456140350881 L 312.24242424242 88.31328320802014 L 315.9595959596 84.12781954887221 L 317.81818181818 82.8721804511278 L 319.67676767677 85.80200501253132 L 321.53535353535 86.22055137844617 L 323.39393939394 84.12781954887221 L 325.25252525253 79.94235588972428 L 327.11111111111 84.54636591478692 L 328.9696969697 79.94235588972428 L 330.82828282828 81.61654135338354 L 334.54545454545 31.390977443609017 L 336.40404040404 28.879699248120346 L 338.26262626263 30.972431077694324 L 340.12121212121 33.065162907268274 L 341.9797979798 28.461152882205482 L 343.83838383838 29.716791979949903 L 345.69696969697 28.04260651629079 L 347.55555555556 33.48370927318297 L 349.41414141414 31.80952380952388 L 353.13131313131 23.85714285714286 L 354.9898989899 23.85714285714286 L 356.84848484848 24.275689223057725 L 358.70707070707 28.879699248120346 L 360.56565656566 29.29824561403521 L 362.42424242424 31.80952380952388 L 364.28282828283 39.34335839599002 L 366.14141414141 34.73934837092739 L 368 39.34335839599002 L 368 125.56390977443603 L 366.14141414141 125.56390977443603 L 364.28282828283 125.56390977443603 L 362.42424242424 125.56390977443603 L 360.56565656566 125.56390977443603 L 358.70707070707 125.56390977443603 L 356.84848484848 125.56390977443603 L 354.9898989899 125.56390977443603 L 353.13131313131 125.56390977443603 L 349.41414141414 125.56390977443603 L 347.55555555556 125.56390977443603 L 345.69696969697 125.56390977443603 L 343.83838383838 125.56390977443603 L 341.9797979798 125.56390977443603 L 340.12121212121 125.56390977443603 L 338.26262626263 125.56390977443603 L 336.40404040404 125.56390977443603 L 334.54545454545 125.56390977443603 L 330.82828282828 125.56390977443603 L 328.9696969697 125.56390977443603 L 327.11111111111 125.56390977443603 L 325.25252525253 125.56390977443603 L 323.39393939394 125.56390977443603 L 321.53535353535 125.56390977443603 L 319.67676767677 125.56390977443603 L 317.81818181818 125.56390977443603 L 315.9595959596 125.56390977443603 L 312.24242424242 125.56390977443603 L 310.38383838384 125.56390977443603 L 308.52525252525 125.56390977443603 L 306.66666666667 125.56390977443603 L 304.80808080808 125.56390977443603 L 302.94949494949 125.56390977443603 L 301.09090909091 125.56390977443603 L 299.23232323232 125.56390977443603 L 297.37373737374 125.56390977443603 L 293.65656565657 125.56390977443603 L 291.79797979798 125.56390977443603 L 289.93939393939 125.56390977443603 L 288.08080808081 125.56390977443603 L 286.22222222222 125.56390977443603 L 284.36363636364 125.56390977443603 L 282.50505050505 125.56390977443603 L 280.64646464646 125.56390977443603 L 278.78787878788 125.56390977443603 L 275.07070707071 125.56390977443603 L 273.21212121212 125.56390977443603 L 271.35353535354 125.56390977443603 L 269.49494949495 125.56390977443603 L 267.63636363636 125.56390977443603 L 265.77777777778 125.56390977443603 L 262.06060606061 125.56390977443603 L 260.20202020202 125.56390977443603 L 256.48484848485 125.56390977443603 L 254.62626262626 125.56390977443603 L 252.76767676768 125.56390977443603 L 250.90909090909 125.56390977443603 L 249.05050505051 125.56390977443603 L 247.19191919192 125.56390977443603 L 245.33333333333 125.56390977443603 L 243.47474747475 125.56390977443603 L 241.61616161616 125.56390977443603 L 237.89898989899 125.56390977443603 L 236.0404040404 125.56390977443603 L 234.18181818182 125.56390977443603 L 232.32323232323 125.56390977443603 L 230.46464646465 125.56390977443603 L 228.60606060606 125.56390977443603 L 226.74747474747 125.56390977443603 L 224.88888888889 125.56390977443603 L 223.0303030303 125.56390977443603 L 219.31313131313 125.56390977443603 L 217.45454545455 125.56390977443603 L 215.59595959596 125.56390977443603 L 213.73737373737 125.56390977443603 L 211.87878787879 125.56390977443603 L 210.0202020202 125.56390977443603 L 208.16161616162 125.56390977443603 L 206.30303030303 125.56390977443603 L 204.44444444444 125.56390977443603 L 200.72727272727 125.56390977443603 L 198.86868686869 125.56390977443603 L 197.0101010101 125.56390977443603 L 195.15151515152 125.56390977443603 L 193.29292929293 125.56390977443603 L 191.43434343434 125.56390977443603 L 189.57575757576 125.56390977443603 L 187.71717171717 125.56390977443603 L 185.85858585859 125.56390977443603 L 182.14141414141 125.56390977443603 L 180.28282828283 125.56390977443603 L 178.42424242424 125.56390977443603 L 176.56565656566 125.56390977443603 L 174.70707070707 125.56390977443603 L 172.84848484848 125.56390977443603 L 170.9898989899 125.56390977443603 L 169.13131313131 125.56390977443603 L 167.27272727273 125.56390977443603 L 163.55555555556 125.56390977443603 L 161.69696969697 125.56390977443603 L 159.83838383838 125.56390977443603 L 157.9797979798 125.56390977443603 L 156.12121212121 125.56390977443603 L 154.26262626263 125.56390977443603 L 152.40404040404 125.56390977443603 L 150.54545454545 125.56390977443603 L 148.68686868687 125.56390977443603 L 144.9696969697 125.56390977443603 L 143.11111111111 125.56390977443603 L 141.25252525253 125.56390977443603 L 139.39393939394 125.56390977443603 L 137.53535353535 125.56390977443603 L 133.81818181818 125.56390977443603 L 131.9595959596 125.56390977443603 L 130.10101010101 125.56390977443603 L 126.38383838384 125.56390977443603 L 124.52525252525 125.56390977443603 L 122.66666666667 125.56390977443603 L 118.94949494949 125.56390977443603 L 117.09090909091 125.56390977443603 L 115.23232323232 125.56390977443603 L 113.37373737374 125.56390977443603 L 111.51515151515 125.56390977443603 L 107.79797979798 125.56390977443603 L 105.93939393939 125.56390977443603 L 104.08080808081 125.56390977443603 L 102.22222222222 125.56390977443603 L 100.36363636364 125.56390977443603 L 96.646464646465 125.56390977443603 L 94.787878787879 125.56390977443603 L 92.929292929293 125.56390977443603 L 89.212121212121 125.56390977443603 L 87.353535353535 125.56390977443603 L 83.636363636364 125.56390977443603 L 81.777777777778 125.56390977443603 L 79.919191919192 125.56390977443603 L 76.20202020202 125.56390977443603 L 74.343434343434 125.56390977443603 L 70.626262626263 125.56390977443603 L 68.767676767677 125.56390977443603 L 66.909090909091 125.56390977443603 L 63.191919191919 125.56390977443603 L 61.333333333333 125.56390977443603 L 59.474747474747 125.56390977443603 L 57.616161616162 125.56390977443603 L 55.757575757576 125.56390977443603 L 52.040404040404 125.56390977443603 L 50.181818181818 125.56390977443603 L 46.464646464646 125.56390977443603 L 44.606060606061 125.56390977443603 L 42.747474747475 125.56390977443603 L 40.888888888889 125.56390977443603 L 39.030303030303 125.56390977443603 L 37.171717171717 125.56390977443603 L 33.454545454545 125.56390977443603 L 31.59595959596 125.56390977443603 L 29.737373737374 125.56390977443603 L 27.878787878788 125.56390977443603 L 26.020202020202 125.56390977443603 L 24.161616161616 125.56390977443603 L 22.30303030303 125.56390977443603 L 20.444444444444 125.56390977443603 L 18.585858585859 125.56390977443603 L 14.868686868687 125.56390977443603 L 13.010101010101 125.56390977443603 L 11.151515151515 125.56390977443603 L 9.2929292929293 125.56390977443603 L 7.4343434343434 125.56390977443603 L 5.5757575757576 125.56390977443603 L 3.7171717171717 125.56390977443603 L 1.8585858585859 125.56390977443603 L 0 125.56390977443603" class="highcharts-area" data-z-index="0" visibility="hidden"></path><path d="M 0 130.1679197994988 L 1.8585858585859 127.65664160400999 L 3.7171717171717 124.30827067669176 L 5.5757575757576 125.14536340852132 L 7.4343434343434 127.65664160400999 L 9.2929292929293 125.98245614035088 L 11.151515151515 125.14536340852132 L 13.010101010101 124.72681704260648 L 14.868686868687 123.05263157894737 L 18.585858585859 123.4711779448622 L 20.444444444444 126.40100250626558 L 22.30303030303 128.9122807017544 L 24.161616161616 131.42355889724308 L 26.020202020202 134.3533834586466 L 27.878787878788 136.0275689223057 L 29.737373737374 139.37593984962407 L 31.59595959596 136.44611528822054 L 33.454545454545 143.14285714285714 L 37.171717171717 136.44611528822054 L 39.030303030303 132.26065162907264 L 40.888888888889 132.26065162907264 L 42.747474747475 127.65664160400999 L 44.606060606061 126.81954887218043 L 46.464646464646 128.49373433583955 L 50.181818181818 131.42355889724308 L 52.040404040404 129.3308270676691 L 55.757575757576 125.56390977443603 L 57.616161616162 129.3308270676691 L 59.474747474747 133.51629072681703 L 61.333333333333 133.93483709273187 L 63.191919191919 131.42355889724308 L 66.909090909091 130.58646616541353 L 68.767676767677 129.74937343358397 L 70.626262626263 129.3308270676691 L 74.343434343434 127.65664160400999 L 76.20202020202 128.49373433583955 L 79.919191919192 128.49373433583955 L 81.777777777778 132.26065162907264 L 83.636363636364 133.51629072681703 L 87.353535353535 131.00501253132836 L 89.212121212121 128.9122807017544 L 92.929292929293 128.07518796992485 L 94.787878787879 129.3308270676691 L 96.646464646465 128.9122807017544 L 100.36363636364 123.88972431077693 L 102.22222222222 123.4711779448622 L 104.08080808081 121.37844611528826 L 105.93939393939 122.21553884711781 L 107.79797979798 120.95989974937339 L 111.51515151515 120.95989974937339 L 113.37373737374 129.3308270676691 L 115.23232323232 133.93483709273187 L 117.09090909091 134.77192982456143 L 118.94949494949 136.44611528822054 L 122.66666666667 130.58646616541353 L 124.52525252525 127.65664160400999 L 126.38383838384 125.98245614035088 L 130.10101010101 112.17042606516284 L 131.9595959596 110.91478696741859 L 133.81818181818 114.2631578947368 L 137.53535353535 113.42606516290725 L 139.39393939394 118.03007518796989 L 141.25252525253 111.75187969924815 L 143.11111111111 113.8446115288221 L 144.9696969697 114.68170426065166 L 148.68686868687 111.33333333333329 L 150.54545454545 114.68170426065166 L 152.40404040404 113.8446115288221 L 154.26262626263 115.10025062656636 L 156.12121212121 114.68170426065166 L 157.9797979798 111.75187969924815 L 159.83838383838 118.03007518796989 L 161.69696969697 115.9373433583959 L 163.55555555556 119.28571428571429 L 167.27272727273 118.44862155388473 L 169.13131313131 120.12280701754383 L 170.9898989899 120.95989974937339 L 172.84848484848 119.70426065162914 L 174.70707070707 117.19298245614033 L 176.56565656566 113.8446115288221 L 178.42424242424 108.40350877192976 L 180.28282828283 103.38095238095244 L 182.14141414141 98.35839598997495 L 185.85858585859 90.82456140350881 L 187.71717171717 94.59147869674187 L 189.57575757576 93.33583959899747 L 191.43434343434 94.17293233082702 L 193.29292929293 94.59147869674187 L 195.15151515152 98.35839598997495 L 197.0101010101 95.01002506265658 L 198.86868686869 98.7769423558898 L 200.72727272727 97.5213032581454 L 204.44444444444 92.49874686716791 L 206.30303030303 81.19799498746869 L 208.16161616162 79.10526315789473 L 210.0202020202 81.19799498746869 L 211.87878787879 81.61654135338354 L 213.73737373737 82.8721804511278 L 215.59595959596 84.96491228070177 L 217.45454545455 84.96491228070177 L 219.31313131313 82.03508771929825 L 223.0303030303 79.10526315789473 L 224.88888888889 83.29072681704265 L 226.74747474747 81.61654135338354 L 228.60606060606 81.61654135338354 L 230.46464646465 82.8721804511278 L 232.32323232323 77.01253132832076 L 234.18181818182 75.33834586466165 L 236.0404040404 72.40852130325813 L 237.89898989899 73.24561403508768 L 241.61616161616 87.47619047619042 L 243.47474747475 81.19799498746869 L 245.33333333333 77.43107769423561 L 247.19191919192 81.61654135338354 L 249.05050505051 81.61654135338354 L 250.90909090909 79.52380952380958 L 252.76767676768 80.77944862155384 L 254.62626262626 76.59398496240605 L 256.48484848485 77.84962406015046 L 260.20202020202 78.68671679198002 L 262.06060606061 78.68671679198002 L 265.77777777778 81.19799498746869 L 267.63636363636 80.36090225563913 L 269.49494949495 89.56892230576439 L 271.35353535354 82.03508771929825 L 273.21212121212 84.12781954887221 L 275.07070707071 85.80200501253132 L 278.78787878788 87.47619047619042 L 280.64646464646 85.38345864661662 L 282.50505050505 87.47619047619042 L 284.36363636364 86.22055137844617 L 286.22222222222 87.05764411027573 L 288.08080808081 84.12781954887221 L 289.93939393939 79.52380952380958 L 291.79797979798 81.61654135338354 L 293.65656565657 78.68671679198002 L 297.37373737374 80.36090225563913 L 299.23232323232 81.61654135338354 L 301.09090909091 82.8721804511278 L 302.94949494949 82.03508771929825 L 304.80808080808 83.70927318295736 L 306.66666666667 84.12781954887221 L 308.52525252525 90.40601503759395 L 310.38383838384 90.82456140350881 L 312.24242424242 88.31328320802014 L 315.9595959596 84.12781954887221 L 317.81818181818 82.8721804511278 L 319.67676767677 85.80200501253132 L 321.53535353535 86.22055137844617 L 323.39393939394 84.12781954887221 L 325.25252525253 79.94235588972428 L 327.11111111111 84.54636591478692 L 328.9696969697 79.94235588972428 L 330.82828282828 81.61654135338354 L 334.54545454545 31.390977443609017 L 336.40404040404 28.879699248120346 L 338.26262626263 30.972431077694324 L 340.12121212121 33.065162907268274 L 341.9797979798 28.461152882205482 L 343.83838383838 29.716791979949903 L 345.69696969697 28.04260651629079 L 347.55555555556 33.48370927318297 L 349.41414141414 31.80952380952388 L 353.13131313131 23.85714285714286 L 354.9898989899 23.85714285714286 L 356.84848484848 24.275689223057725 L 358.70707070707 28.879699248120346 L 360.56565656566 29.29824561403521 L 362.42424242424 31.80952380952388 L 364.28282828283 39.34335839599002 L 366.14141414141 34.73934837092739 L 368 39.34335839599002 L 368 125.56390977443603 L 366.14141414141 125.56390977443603 L 364.28282828283 125.56390977443603 L 362.42424242424 125.56390977443603 L 360.56565656566 125.56390977443603 L 358.70707070707 125.56390977443603 L 356.84848484848 125.56390977443603 L 354.9898989899 125.56390977443603 L 353.13131313131 125.56390977443603 L 349.41414141414 125.56390977443603 L 347.55555555556 125.56390977443603 L 345.69696969697 125.56390977443603 L 343.83838383838 125.56390977443603 L 341.9797979798 125.56390977443603 L 340.12121212121 125.56390977443603 L 338.26262626263 125.56390977443603 L 336.40404040404 125.56390977443603 L 334.54545454545 125.56390977443603 L 330.82828282828 125.56390977443603 L 328.9696969697 125.56390977443603 L 327.11111111111 125.56390977443603 L 325.25252525253 125.56390977443603 L 323.39393939394 125.56390977443603 L 321.53535353535 125.56390977443603 L 319.67676767677 125.56390977443603 L 317.81818181818 125.56390977443603 L 315.9595959596 125.56390977443603 L 312.24242424242 125.56390977443603 L 310.38383838384 125.56390977443603 L 308.52525252525 125.56390977443603 L 306.66666666667 125.56390977443603 L 304.80808080808 125.56390977443603 L 302.94949494949 125.56390977443603 L 301.09090909091 125.56390977443603 L 299.23232323232 125.56390977443603 L 297.37373737374 125.56390977443603 L 293.65656565657 125.56390977443603 L 291.79797979798 125.56390977443603 L 289.93939393939 125.56390977443603 L 288.08080808081 125.56390977443603 L 286.22222222222 125.56390977443603 L 284.36363636364 125.56390977443603 L 282.50505050505 125.56390977443603 L 280.64646464646 125.56390977443603 L 278.78787878788 125.56390977443603 L 275.07070707071 125.56390977443603 L 273.21212121212 125.56390977443603 L 271.35353535354 125.56390977443603 L 269.49494949495 125.56390977443603 L 267.63636363636 125.56390977443603 L 265.77777777778 125.56390977443603 L 262.06060606061 125.56390977443603 L 260.20202020202 125.56390977443603 L 256.48484848485 125.56390977443603 L 254.62626262626 125.56390977443603 L 252.76767676768 125.56390977443603 L 250.90909090909 125.56390977443603 L 249.05050505051 125.56390977443603 L 247.19191919192 125.56390977443603 L 245.33333333333 125.56390977443603 L 243.47474747475 125.56390977443603 L 241.61616161616 125.56390977443603 L 237.89898989899 125.56390977443603 L 236.0404040404 125.56390977443603 L 234.18181818182 125.56390977443603 L 232.32323232323 125.56390977443603 L 230.46464646465 125.56390977443603 L 228.60606060606 125.56390977443603 L 226.74747474747 125.56390977443603 L 224.88888888889 125.56390977443603 L 223.0303030303 125.56390977443603 L 219.31313131313 125.56390977443603 L 217.45454545455 125.56390977443603 L 215.59595959596 125.56390977443603 L 213.73737373737 125.56390977443603 L 211.87878787879 125.56390977443603 L 210.0202020202 125.56390977443603 L 208.16161616162 125.56390977443603 L 206.30303030303 125.56390977443603 L 204.44444444444 125.56390977443603 L 200.72727272727 125.56390977443603 L 198.86868686869 125.56390977443603 L 197.0101010101 125.56390977443603 L 195.15151515152 125.56390977443603 L 193.29292929293 125.56390977443603 L 191.43434343434 125.56390977443603 L 189.57575757576 125.56390977443603 L 187.71717171717 125.56390977443603 L 185.85858585859 125.56390977443603 L 182.14141414141 125.56390977443603 L 180.28282828283 125.56390977443603 L 178.42424242424 125.56390977443603 L 176.56565656566 125.56390977443603 L 174.70707070707 125.56390977443603 L 172.84848484848 125.56390977443603 L 170.9898989899 125.56390977443603 L 169.13131313131 125.56390977443603 L 167.27272727273 125.56390977443603 L 163.55555555556 125.56390977443603 L 161.69696969697 125.56390977443603 L 159.83838383838 125.56390977443603 L 157.9797979798 125.56390977443603 L 156.12121212121 125.56390977443603 L 154.26262626263 125.56390977443603 L 152.40404040404 125.56390977443603 L 150.54545454545 125.56390977443603 L 148.68686868687 125.56390977443603 L 144.9696969697 125.56390977443603 L 143.11111111111 125.56390977443603 L 141.25252525253 125.56390977443603 L 139.39393939394 125.56390977443603 L 137.53535353535 125.56390977443603 L 133.81818181818 125.56390977443603 L 131.9595959596 125.56390977443603 L 130.10101010101 125.56390977443603 L 126.38383838384 125.56390977443603 L 124.52525252525 125.56390977443603 L 122.66666666667 125.56390977443603 L 118.94949494949 125.56390977443603 L 117.09090909091 125.56390977443603 L 115.23232323232 125.56390977443603 L 113.37373737374 125.56390977443603 L 111.51515151515 125.56390977443603 L 107.79797979798 125.56390977443603 L 105.93939393939 125.56390977443603 L 104.08080808081 125.56390977443603 L 102.22222222222 125.56390977443603 L 100.36363636364 125.56390977443603 L 96.646464646465 125.56390977443603 L 94.787878787879 125.56390977443603 L 92.929292929293 125.56390977443603 L 89.212121212121 125.56390977443603 L 87.353535353535 125.56390977443603 L 83.636363636364 125.56390977443603 L 81.777777777778 125.56390977443603 L 79.919191919192 125.56390977443603 L 76.20202020202 125.56390977443603 L 74.343434343434 125.56390977443603 L 70.626262626263 125.56390977443603 L 68.767676767677 125.56390977443603 L 66.909090909091 125.56390977443603 L 63.191919191919 125.56390977443603 L 61.333333333333 125.56390977443603 L 59.474747474747 125.56390977443603 L 57.616161616162 125.56390977443603 L 55.757575757576 125.56390977443603 L 52.040404040404 125.56390977443603 L 50.181818181818 125.56390977443603 L 46.464646464646 125.56390977443603 L 44.606060606061 125.56390977443603 L 42.747474747475 125.56390977443603 L 40.888888888889 125.56390977443603 L 39.030303030303 125.56390977443603 L 37.171717171717 125.56390977443603 L 33.454545454545 125.56390977443603 L 31.59595959596 125.56390977443603 L 29.737373737374 125.56390977443603 L 27.878787878788 125.56390977443603 L 26.020202020202 125.56390977443603 L 24.161616161616 125.56390977443603 L 22.30303030303 125.56390977443603 L 20.444444444444 125.56390977443603 L 18.585858585859 125.56390977443603 L 14.868686868687 125.56390977443603 L 13.010101010101 125.56390977443603 L 11.151515151515 125.56390977443603 L 9.2929292929293 125.56390977443603 L 7.4343434343434 125.56390977443603 L 5.5757575757576 125.56390977443603 L 3.7171717171717 125.56390977443603 L 1.8585858585859 125.56390977443603 L 0 125.56390977443603" class="highcharts-area highcharts-zone-area-0 highcharts-negative" data-z-index="0" clip-path="url(#highcharts-9bs6sle-215)"></path><path d="M 0 130.1679197994988 L 1.8585858585859 127.65664160400999 L 3.7171717171717 124.30827067669176 L 5.5757575757576 125.14536340852132 L 7.4343434343434 127.65664160400999 L 9.2929292929293 125.98245614035088 L 11.151515151515 125.14536340852132 L 13.010101010101 124.72681704260648 L 14.868686868687 123.05263157894737 L 18.585858585859 123.4711779448622 L 20.444444444444 126.40100250626558 L 22.30303030303 128.9122807017544 L 24.161616161616 131.42355889724308 L 26.020202020202 134.3533834586466 L 27.878787878788 136.0275689223057 L 29.737373737374 139.37593984962407 L 31.59595959596 136.44611528822054 L 33.454545454545 143.14285714285714 L 37.171717171717 136.44611528822054 L 39.030303030303 132.26065162907264 L 40.888888888889 132.26065162907264 L 42.747474747475 127.65664160400999 L 44.606060606061 126.81954887218043 L 46.464646464646 128.49373433583955 L 50.181818181818 131.42355889724308 L 52.040404040404 129.3308270676691 L 55.757575757576 125.56390977443603 L 57.616161616162 129.3308270676691 L 59.474747474747 133.51629072681703 L 61.333333333333 133.93483709273187 L 63.191919191919 131.42355889724308 L 66.909090909091 130.58646616541353 L 68.767676767677 129.74937343358397 L 70.626262626263 129.3308270676691 L 74.343434343434 127.65664160400999 L 76.20202020202 128.49373433583955 L 79.919191919192 128.49373433583955 L 81.777777777778 132.26065162907264 L 83.636363636364 133.51629072681703 L 87.353535353535 131.00501253132836 L 89.212121212121 128.9122807017544 L 92.929292929293 128.07518796992485 L 94.787878787879 129.3308270676691 L 96.646464646465 128.9122807017544 L 100.36363636364 123.88972431077693 L 102.22222222222 123.4711779448622 L 104.08080808081 121.37844611528826 L 105.93939393939 122.21553884711781 L 107.79797979798 120.95989974937339 L 111.51515151515 120.95989974937339 L 113.37373737374 129.3308270676691 L 115.23232323232 133.93483709273187 L 117.09090909091 134.77192982456143 L 118.94949494949 136.44611528822054 L 122.66666666667 130.58646616541353 L 124.52525252525 127.65664160400999 L 126.38383838384 125.98245614035088 L 130.10101010101 112.17042606516284 L 131.9595959596 110.91478696741859 L 133.81818181818 114.2631578947368 L 137.53535353535 113.42606516290725 L 139.39393939394 118.03007518796989 L 141.25252525253 111.75187969924815 L 143.11111111111 113.8446115288221 L 144.9696969697 114.68170426065166 L 148.68686868687 111.33333333333329 L 150.54545454545 114.68170426065166 L 152.40404040404 113.8446115288221 L 154.26262626263 115.10025062656636 L 156.12121212121 114.68170426065166 L 157.9797979798 111.75187969924815 L 159.83838383838 118.03007518796989 L 161.69696969697 115.9373433583959 L 163.55555555556 119.28571428571429 L 167.27272727273 118.44862155388473 L 169.13131313131 120.12280701754383 L 170.9898989899 120.95989974937339 L 172.84848484848 119.70426065162914 L 174.70707070707 117.19298245614033 L 176.56565656566 113.8446115288221 L 178.42424242424 108.40350877192976 L 180.28282828283 103.38095238095244 L 182.14141414141 98.35839598997495 L 185.85858585859 90.82456140350881 L 187.71717171717 94.59147869674187 L 189.57575757576 93.33583959899747 L 191.43434343434 94.17293233082702 L 193.29292929293 94.59147869674187 L 195.15151515152 98.35839598997495 L 197.0101010101 95.01002506265658 L 198.86868686869 98.7769423558898 L 200.72727272727 97.5213032581454 L 204.44444444444 92.49874686716791 L 206.30303030303 81.19799498746869 L 208.16161616162 79.10526315789473 L 210.0202020202 81.19799498746869 L 211.87878787879 81.61654135338354 L 213.73737373737 82.8721804511278 L 215.59595959596 84.96491228070177 L 217.45454545455 84.96491228070177 L 219.31313131313 82.03508771929825 L 223.0303030303 79.10526315789473 L 224.88888888889 83.29072681704265 L 226.74747474747 81.61654135338354 L 228.60606060606 81.61654135338354 L 230.46464646465 82.8721804511278 L 232.32323232323 77.01253132832076 L 234.18181818182 75.33834586466165 L 236.0404040404 72.40852130325813 L 237.89898989899 73.24561403508768 L 241.61616161616 87.47619047619042 L 243.47474747475 81.19799498746869 L 245.33333333333 77.43107769423561 L 247.19191919192 81.61654135338354 L 249.05050505051 81.61654135338354 L 250.90909090909 79.52380952380958 L 252.76767676768 80.77944862155384 L 254.62626262626 76.59398496240605 L 256.48484848485 77.84962406015046 L 260.20202020202 78.68671679198002 L 262.06060606061 78.68671679198002 L 265.77777777778 81.19799498746869 L 267.63636363636 80.36090225563913 L 269.49494949495 89.56892230576439 L 271.35353535354 82.03508771929825 L 273.21212121212 84.12781954887221 L 275.07070707071 85.80200501253132 L 278.78787878788 87.47619047619042 L 280.64646464646 85.38345864661662 L 282.50505050505 87.47619047619042 L 284.36363636364 86.22055137844617 L 286.22222222222 87.05764411027573 L 288.08080808081 84.12781954887221 L 289.93939393939 79.52380952380958 L 291.79797979798 81.61654135338354 L 293.65656565657 78.68671679198002 L 297.37373737374 80.36090225563913 L 299.23232323232 81.61654135338354 L 301.09090909091 82.8721804511278 L 302.94949494949 82.03508771929825 L 304.80808080808 83.70927318295736 L 306.66666666667 84.12781954887221 L 308.52525252525 90.40601503759395 L 310.38383838384 90.82456140350881 L 312.24242424242 88.31328320802014 L 315.9595959596 84.12781954887221 L 317.81818181818 82.8721804511278 L 319.67676767677 85.80200501253132 L 321.53535353535 86.22055137844617 L 323.39393939394 84.12781954887221 L 325.25252525253 79.94235588972428 L 327.11111111111 84.54636591478692 L 328.9696969697 79.94235588972428 L 330.82828282828 81.61654135338354 L 334.54545454545 31.390977443609017 L 336.40404040404 28.879699248120346 L 338.26262626263 30.972431077694324 L 340.12121212121 33.065162907268274 L 341.9797979798 28.461152882205482 L 343.83838383838 29.716791979949903 L 345.69696969697 28.04260651629079 L 347.55555555556 33.48370927318297 L 349.41414141414 31.80952380952388 L 353.13131313131 23.85714285714286 L 354.9898989899 23.85714285714286 L 356.84848484848 24.275689223057725 L 358.70707070707 28.879699248120346 L 360.56565656566 29.29824561403521 L 362.42424242424 31.80952380952388 L 364.28282828283 39.34335839599002 L 366.14141414141 34.73934837092739 L 368 39.34335839599002 L 368 125.56390977443603 L 366.14141414141 125.56390977443603 L 364.28282828283 125.56390977443603 L 362.42424242424 125.56390977443603 L 360.56565656566 125.56390977443603 L 358.70707070707 125.56390977443603 L 356.84848484848 125.56390977443603 L 354.9898989899 125.56390977443603 L 353.13131313131 125.56390977443603 L 349.41414141414 125.56390977443603 L 347.55555555556 125.56390977443603 L 345.69696969697 125.56390977443603 L 343.83838383838 125.56390977443603 L 341.9797979798 125.56390977443603 L 340.12121212121 125.56390977443603 L 338.26262626263 125.56390977443603 L 336.40404040404 125.56390977443603 L 334.54545454545 125.56390977443603 L 330.82828282828 125.56390977443603 L 328.9696969697 125.56390977443603 L 327.11111111111 125.56390977443603 L 325.25252525253 125.56390977443603 L 323.39393939394 125.56390977443603 L 321.53535353535 125.56390977443603 L 319.67676767677 125.56390977443603 L 317.81818181818 125.56390977443603 L 315.9595959596 125.56390977443603 L 312.24242424242 125.56390977443603 L 310.38383838384 125.56390977443603 L 308.52525252525 125.56390977443603 L 306.66666666667 125.56390977443603 L 304.80808080808 125.56390977443603 L 302.94949494949 125.56390977443603 L 301.09090909091 125.56390977443603 L 299.23232323232 125.56390977443603 L 297.37373737374 125.56390977443603 L 293.65656565657 125.56390977443603 L 291.79797979798 125.56390977443603 L 289.93939393939 125.56390977443603 L 288.08080808081 125.56390977443603 L 286.22222222222 125.56390977443603 L 284.36363636364 125.56390977443603 L 282.50505050505 125.56390977443603 L 280.64646464646 125.56390977443603 L 278.78787878788 125.56390977443603 L 275.07070707071 125.56390977443603 L 273.21212121212 125.56390977443603 L 271.35353535354 125.56390977443603 L 269.49494949495 125.56390977443603 L 267.63636363636 125.56390977443603 L 265.77777777778 125.56390977443603 L 262.06060606061 125.56390977443603 L 260.20202020202 125.56390977443603 L 256.48484848485 125.56390977443603 L 254.62626262626 125.56390977443603 L 252.76767676768 125.56390977443603 L 250.90909090909 125.56390977443603 L 249.05050505051 125.56390977443603 L 247.19191919192 125.56390977443603 L 245.33333333333 125.56390977443603 L 243.47474747475 125.56390977443603 L 241.61616161616 125.56390977443603 L 237.89898989899 125.56390977443603 L 236.0404040404 125.56390977443603 L 234.18181818182 125.56390977443603 L 232.32323232323 125.56390977443603 L 230.46464646465 125.56390977443603 L 228.60606060606 125.56390977443603 L 226.74747474747 125.56390977443603 L 224.88888888889 125.56390977443603 L 223.0303030303 125.56390977443603 L 219.31313131313 125.56390977443603 L 217.45454545455 125.56390977443603 L 215.59595959596 125.56390977443603 L 213.73737373737 125.56390977443603 L 211.87878787879 125.56390977443603 L 210.0202020202 125.56390977443603 L 208.16161616162 125.56390977443603 L 206.30303030303 125.56390977443603 L 204.44444444444 125.56390977443603 L 200.72727272727 125.56390977443603 L 198.86868686869 125.56390977443603 L 197.0101010101 125.56390977443603 L 195.15151515152 125.56390977443603 L 193.29292929293 125.56390977443603 L 191.43434343434 125.56390977443603 L 189.57575757576 125.56390977443603 L 187.71717171717 125.56390977443603 L 185.85858585859 125.56390977443603 L 182.14141414141 125.56390977443603 L 180.28282828283 125.56390977443603 L 178.42424242424 125.56390977443603 L 176.56565656566 125.56390977443603 L 174.70707070707 125.56390977443603 L 172.84848484848 125.56390977443603 L 170.9898989899 125.56390977443603 L 169.13131313131 125.56390977443603 L 167.27272727273 125.56390977443603 L 163.55555555556 125.56390977443603 L 161.69696969697 125.56390977443603 L 159.83838383838 125.56390977443603 L 157.9797979798 125.56390977443603 L 156.12121212121 125.56390977443603 L 154.26262626263 125.56390977443603 L 152.40404040404 125.56390977443603 L 150.54545454545 125.56390977443603 L 148.68686868687 125.56390977443603 L 144.9696969697 125.56390977443603 L 143.11111111111 125.56390977443603 L 141.25252525253 125.56390977443603 L 139.39393939394 125.56390977443603 L 137.53535353535 125.56390977443603 L 133.81818181818 125.56390977443603 L 131.9595959596 125.56390977443603 L 130.10101010101 125.56390977443603 L 126.38383838384 125.56390977443603 L 124.52525252525 125.56390977443603 L 122.66666666667 125.56390977443603 L 118.94949494949 125.56390977443603 L 117.09090909091 125.56390977443603 L 115.23232323232 125.56390977443603 L 113.37373737374 125.56390977443603 L 111.51515151515 125.56390977443603 L 107.79797979798 125.56390977443603 L 105.93939393939 125.56390977443603 L 104.08080808081 125.56390977443603 L 102.22222222222 125.56390977443603 L 100.36363636364 125.56390977443603 L 96.646464646465 125.56390977443603 L 94.787878787879 125.56390977443603 L 92.929292929293 125.56390977443603 L 89.212121212121 125.56390977443603 L 87.353535353535 125.56390977443603 L 83.636363636364 125.56390977443603 L 81.777777777778 125.56390977443603 L 79.919191919192 125.56390977443603 L 76.20202020202 125.56390977443603 L 74.343434343434 125.56390977443603 L 70.626262626263 125.56390977443603 L 68.767676767677 125.56390977443603 L 66.909090909091 125.56390977443603 L 63.191919191919 125.56390977443603 L 61.333333333333 125.56390977443603 L 59.474747474747 125.56390977443603 L 57.616161616162 125.56390977443603 L 55.757575757576 125.56390977443603 L 52.040404040404 125.56390977443603 L 50.181818181818 125.56390977443603 L 46.464646464646 125.56390977443603 L 44.606060606061 125.56390977443603 L 42.747474747475 125.56390977443603 L 40.888888888889 125.56390977443603 L 39.030303030303 125.56390977443603 L 37.171717171717 125.56390977443603 L 33.454545454545 125.56390977443603 L 31.59595959596 125.56390977443603 L 29.737373737374 125.56390977443603 L 27.878787878788 125.56390977443603 L 26.020202020202 125.56390977443603 L 24.161616161616 125.56390977443603 L 22.30303030303 125.56390977443603 L 20.444444444444 125.56390977443603 L 18.585858585859 125.56390977443603 L 14.868686868687 125.56390977443603 L 13.010101010101 125.56390977443603 L 11.151515151515 125.56390977443603 L 9.2929292929293 125.56390977443603 L 7.4343434343434 125.56390977443603 L 5.5757575757576 125.56390977443603 L 3.7171717171717 125.56390977443603 L 1.8585858585859 125.56390977443603 L 0 125.56390977443603" class="highcharts-area highcharts-zone-area-1 undefined" data-z-index="0" clip-path="url(#highcharts-9bs6sle-216)"></path><path d="M 0 130.1679197994988 L 1.8585858585859 127.65664160400999 L 3.7171717171717 124.30827067669176 L 5.5757575757576 125.14536340852132 L 7.4343434343434 127.65664160400999 L 9.2929292929293 125.98245614035088 L 11.151515151515 125.14536340852132 L 13.010101010101 124.72681704260648 L 14.868686868687 123.05263157894737 L 18.585858585859 123.4711779448622 L 20.444444444444 126.40100250626558 L 22.30303030303 128.9122807017544 L 24.161616161616 131.42355889724308 L 26.020202020202 134.3533834586466 L 27.878787878788 136.0275689223057 L 29.737373737374 139.37593984962407 L 31.59595959596 136.44611528822054 L 33.454545454545 143.14285714285714 L 37.171717171717 136.44611528822054 L 39.030303030303 132.26065162907264 L 40.888888888889 132.26065162907264 L 42.747474747475 127.65664160400999 L 44.606060606061 126.81954887218043 L 46.464646464646 128.49373433583955 L 50.181818181818 131.42355889724308 L 52.040404040404 129.3308270676691 L 55.757575757576 125.56390977443603 L 57.616161616162 129.3308270676691 L 59.474747474747 133.51629072681703 L 61.333333333333 133.93483709273187 L 63.191919191919 131.42355889724308 L 66.909090909091 130.58646616541353 L 68.767676767677 129.74937343358397 L 70.626262626263 129.3308270676691 L 74.343434343434 127.65664160400999 L 76.20202020202 128.49373433583955 L 79.919191919192 128.49373433583955 L 81.777777777778 132.26065162907264 L 83.636363636364 133.51629072681703 L 87.353535353535 131.00501253132836 L 89.212121212121 128.9122807017544 L 92.929292929293 128.07518796992485 L 94.787878787879 129.3308270676691 L 96.646464646465 128.9122807017544 L 100.36363636364 123.88972431077693 L 102.22222222222 123.4711779448622 L 104.08080808081 121.37844611528826 L 105.93939393939 122.21553884711781 L 107.79797979798 120.95989974937339 L 111.51515151515 120.95989974937339 L 113.37373737374 129.3308270676691 L 115.23232323232 133.93483709273187 L 117.09090909091 134.77192982456143 L 118.94949494949 136.44611528822054 L 122.66666666667 130.58646616541353 L 124.52525252525 127.65664160400999 L 126.38383838384 125.98245614035088 L 130.10101010101 112.17042606516284 L 131.9595959596 110.91478696741859 L 133.81818181818 114.2631578947368 L 137.53535353535 113.42606516290725 L 139.39393939394 118.03007518796989 L 141.25252525253 111.75187969924815 L 143.11111111111 113.8446115288221 L 144.9696969697 114.68170426065166 L 148.68686868687 111.33333333333329 L 150.54545454545 114.68170426065166 L 152.40404040404 113.8446115288221 L 154.26262626263 115.10025062656636 L 156.12121212121 114.68170426065166 L 157.9797979798 111.75187969924815 L 159.83838383838 118.03007518796989 L 161.69696969697 115.9373433583959 L 163.55555555556 119.28571428571429 L 167.27272727273 118.44862155388473 L 169.13131313131 120.12280701754383 L 170.9898989899 120.95989974937339 L 172.84848484848 119.70426065162914 L 174.70707070707 117.19298245614033 L 176.56565656566 113.8446115288221 L 178.42424242424 108.40350877192976 L 180.28282828283 103.38095238095244 L 182.14141414141 98.35839598997495 L 185.85858585859 90.82456140350881 L 187.71717171717 94.59147869674187 L 189.57575757576 93.33583959899747 L 191.43434343434 94.17293233082702 L 193.29292929293 94.59147869674187 L 195.15151515152 98.35839598997495 L 197.0101010101 95.01002506265658 L 198.86868686869 98.7769423558898 L 200.72727272727 97.5213032581454 L 204.44444444444 92.49874686716791 L 206.30303030303 81.19799498746869 L 208.16161616162 79.10526315789473 L 210.0202020202 81.19799498746869 L 211.87878787879 81.61654135338354 L 213.73737373737 82.8721804511278 L 215.59595959596 84.96491228070177 L 217.45454545455 84.96491228070177 L 219.31313131313 82.03508771929825 L 223.0303030303 79.10526315789473 L 224.88888888889 83.29072681704265 L 226.74747474747 81.61654135338354 L 228.60606060606 81.61654135338354 L 230.46464646465 82.8721804511278 L 232.32323232323 77.01253132832076 L 234.18181818182 75.33834586466165 L 236.0404040404 72.40852130325813 L 237.89898989899 73.24561403508768 L 241.61616161616 87.47619047619042 L 243.47474747475 81.19799498746869 L 245.33333333333 77.43107769423561 L 247.19191919192 81.61654135338354 L 249.05050505051 81.61654135338354 L 250.90909090909 79.52380952380958 L 252.76767676768 80.77944862155384 L 254.62626262626 76.59398496240605 L 256.48484848485 77.84962406015046 L 260.20202020202 78.68671679198002 L 262.06060606061 78.68671679198002 L 265.77777777778 81.19799498746869 L 267.63636363636 80.36090225563913 L 269.49494949495 89.56892230576439 L 271.35353535354 82.03508771929825 L 273.21212121212 84.12781954887221 L 275.07070707071 85.80200501253132 L 278.78787878788 87.47619047619042 L 280.64646464646 85.38345864661662 L 282.50505050505 87.47619047619042 L 284.36363636364 86.22055137844617 L 286.22222222222 87.05764411027573 L 288.08080808081 84.12781954887221 L 289.93939393939 79.52380952380958 L 291.79797979798 81.61654135338354 L 293.65656565657 78.68671679198002 L 297.37373737374 80.36090225563913 L 299.23232323232 81.61654135338354 L 301.09090909091 82.8721804511278 L 302.94949494949 82.03508771929825 L 304.80808080808 83.70927318295736 L 306.66666666667 84.12781954887221 L 308.52525252525 90.40601503759395 L 310.38383838384 90.82456140350881 L 312.24242424242 88.31328320802014 L 315.9595959596 84.12781954887221 L 317.81818181818 82.8721804511278 L 319.67676767677 85.80200501253132 L 321.53535353535 86.22055137844617 L 323.39393939394 84.12781954887221 L 325.25252525253 79.94235588972428 L 327.11111111111 84.54636591478692 L 328.9696969697 79.94235588972428 L 330.82828282828 81.61654135338354 L 334.54545454545 31.390977443609017 L 336.40404040404 28.879699248120346 L 338.26262626263 30.972431077694324 L 340.12121212121 33.065162907268274 L 341.9797979798 28.461152882205482 L 343.83838383838 29.716791979949903 L 345.69696969697 28.04260651629079 L 347.55555555556 33.48370927318297 L 349.41414141414 31.80952380952388 L 353.13131313131 23.85714285714286 L 354.9898989899 23.85714285714286 L 356.84848484848 24.275689223057725 L 358.70707070707 28.879699248120346 L 360.56565656566 29.29824561403521 L 362.42424242424 31.80952380952388 L 364.28282828283 39.34335839599002 L 366.14141414141 34.73934837092739 L 368 39.34335839599002" class="highcharts-graph" data-z-index="1" visibility="hidden"></path><path d="M 0 130.1679197994988 L 1.8585858585859 127.65664160400999 L 3.7171717171717 124.30827067669176 L 5.5757575757576 125.14536340852132 L 7.4343434343434 127.65664160400999 L 9.2929292929293 125.98245614035088 L 11.151515151515 125.14536340852132 L 13.010101010101 124.72681704260648 L 14.868686868687 123.05263157894737 L 18.585858585859 123.4711779448622 L 20.444444444444 126.40100250626558 L 22.30303030303 128.9122807017544 L 24.161616161616 131.42355889724308 L 26.020202020202 134.3533834586466 L 27.878787878788 136.0275689223057 L 29.737373737374 139.37593984962407 L 31.59595959596 136.44611528822054 L 33.454545454545 143.14285714285714 L 37.171717171717 136.44611528822054 L 39.030303030303 132.26065162907264 L 40.888888888889 132.26065162907264 L 42.747474747475 127.65664160400999 L 44.606060606061 126.81954887218043 L 46.464646464646 128.49373433583955 L 50.181818181818 131.42355889724308 L 52.040404040404 129.3308270676691 L 55.757575757576 125.56390977443603 L 57.616161616162 129.3308270676691 L 59.474747474747 133.51629072681703 L 61.333333333333 133.93483709273187 L 63.191919191919 131.42355889724308 L 66.909090909091 130.58646616541353 L 68.767676767677 129.74937343358397 L 70.626262626263 129.3308270676691 L 74.343434343434 127.65664160400999 L 76.20202020202 128.49373433583955 L 79.919191919192 128.49373433583955 L 81.777777777778 132.26065162907264 L 83.636363636364 133.51629072681703 L 87.353535353535 131.00501253132836 L 89.212121212121 128.9122807017544 L 92.929292929293 128.07518796992485 L 94.787878787879 129.3308270676691 L 96.646464646465 128.9122807017544 L 100.36363636364 123.88972431077693 L 102.22222222222 123.4711779448622 L 104.08080808081 121.37844611528826 L 105.93939393939 122.21553884711781 L 107.79797979798 120.95989974937339 L 111.51515151515 120.95989974937339 L 113.37373737374 129.3308270676691 L 115.23232323232 133.93483709273187 L 117.09090909091 134.77192982456143 L 118.94949494949 136.44611528822054 L 122.66666666667 130.58646616541353 L 124.52525252525 127.65664160400999 L 126.38383838384 125.98245614035088 L 130.10101010101 112.17042606516284 L 131.9595959596 110.91478696741859 L 133.81818181818 114.2631578947368 L 137.53535353535 113.42606516290725 L 139.39393939394 118.03007518796989 L 141.25252525253 111.75187969924815 L 143.11111111111 113.8446115288221 L 144.9696969697 114.68170426065166 L 148.68686868687 111.33333333333329 L 150.54545454545 114.68170426065166 L 152.40404040404 113.8446115288221 L 154.26262626263 115.10025062656636 L 156.12121212121 114.68170426065166 L 157.9797979798 111.75187969924815 L 159.83838383838 118.03007518796989 L 161.69696969697 115.9373433583959 L 163.55555555556 119.28571428571429 L 167.27272727273 118.44862155388473 L 169.13131313131 120.12280701754383 L 170.9898989899 120.95989974937339 L 172.84848484848 119.70426065162914 L 174.70707070707 117.19298245614033 L 176.56565656566 113.8446115288221 L 178.42424242424 108.40350877192976 L 180.28282828283 103.38095238095244 L 182.14141414141 98.35839598997495 L 185.85858585859 90.82456140350881 L 187.71717171717 94.59147869674187 L 189.57575757576 93.33583959899747 L 191.43434343434 94.17293233082702 L 193.29292929293 94.59147869674187 L 195.15151515152 98.35839598997495 L 197.0101010101 95.01002506265658 L 198.86868686869 98.7769423558898 L 200.72727272727 97.5213032581454 L 204.44444444444 92.49874686716791 L 206.30303030303 81.19799498746869 L 208.16161616162 79.10526315789473 L 210.0202020202 81.19799498746869 L 211.87878787879 81.61654135338354 L 213.73737373737 82.8721804511278 L 215.59595959596 84.96491228070177 L 217.45454545455 84.96491228070177 L 219.31313131313 82.03508771929825 L 223.0303030303 79.10526315789473 L 224.88888888889 83.29072681704265 L 226.74747474747 81.61654135338354 L 228.60606060606 81.61654135338354 L 230.46464646465 82.8721804511278 L 232.32323232323 77.01253132832076 L 234.18181818182 75.33834586466165 L 236.0404040404 72.40852130325813 L 237.89898989899 73.24561403508768 L 241.61616161616 87.47619047619042 L 243.47474747475 81.19799498746869 L 245.33333333333 77.43107769423561 L 247.19191919192 81.61654135338354 L 249.05050505051 81.61654135338354 L 250.90909090909 79.52380952380958 L 252.76767676768 80.77944862155384 L 254.62626262626 76.59398496240605 L 256.48484848485 77.84962406015046 L 260.20202020202 78.68671679198002 L 262.06060606061 78.68671679198002 L 265.77777777778 81.19799498746869 L 267.63636363636 80.36090225563913 L 269.49494949495 89.56892230576439 L 271.35353535354 82.03508771929825 L 273.21212121212 84.12781954887221 L 275.07070707071 85.80200501253132 L 278.78787878788 87.47619047619042 L 280.64646464646 85.38345864661662 L 282.50505050505 87.47619047619042 L 284.36363636364 86.22055137844617 L 286.22222222222 87.05764411027573 L 288.08080808081 84.12781954887221 L 289.93939393939 79.52380952380958 L 291.79797979798 81.61654135338354 L 293.65656565657 78.68671679198002 L 297.37373737374 80.36090225563913 L 299.23232323232 81.61654135338354 L 301.09090909091 82.8721804511278 L 302.94949494949 82.03508771929825 L 304.80808080808 83.70927318295736 L 306.66666666667 84.12781954887221 L 308.52525252525 90.40601503759395 L 310.38383838384 90.82456140350881 L 312.24242424242 88.31328320802014 L 315.9595959596 84.12781954887221 L 317.81818181818 82.8721804511278 L 319.67676767677 85.80200501253132 L 321.53535353535 86.22055137844617 L 323.39393939394 84.12781954887221 L 325.25252525253 79.94235588972428 L 327.11111111111 84.54636591478692 L 328.9696969697 79.94235588972428 L 330.82828282828 81.61654135338354 L 334.54545454545 31.390977443609017 L 336.40404040404 28.879699248120346 L 338.26262626263 30.972431077694324 L 340.12121212121 33.065162907268274 L 341.9797979798 28.461152882205482 L 343.83838383838 29.716791979949903 L 345.69696969697 28.04260651629079 L 347.55555555556 33.48370927318297 L 349.41414141414 31.80952380952388 L 353.13131313131 23.85714285714286 L 354.9898989899 23.85714285714286 L 356.84848484848 24.275689223057725 L 358.70707070707 28.879699248120346 L 360.56565656566 29.29824561403521 L 362.42424242424 31.80952380952388 L 364.28282828283 39.34335839599002 L 366.14141414141 34.73934837092739 L 368 39.34335839599002" class="highcharts-graph highcharts-zone-graph-0 highcharts-negative" data-z-index="1" clip-path="url(#highcharts-9bs6sle-215)"></path><path d="M 0 130.1679197994988 L 1.8585858585859 127.65664160400999 L 3.7171717171717 124.30827067669176 L 5.5757575757576 125.14536340852132 L 7.4343434343434 127.65664160400999 L 9.2929292929293 125.98245614035088 L 11.151515151515 125.14536340852132 L 13.010101010101 124.72681704260648 L 14.868686868687 123.05263157894737 L 18.585858585859 123.4711779448622 L 20.444444444444 126.40100250626558 L 22.30303030303 128.9122807017544 L 24.161616161616 131.42355889724308 L 26.020202020202 134.3533834586466 L 27.878787878788 136.0275689223057 L 29.737373737374 139.37593984962407 L 31.59595959596 136.44611528822054 L 33.454545454545 143.14285714285714 L 37.171717171717 136.44611528822054 L 39.030303030303 132.26065162907264 L 40.888888888889 132.26065162907264 L 42.747474747475 127.65664160400999 L 44.606060606061 126.81954887218043 L 46.464646464646 128.49373433583955 L 50.181818181818 131.42355889724308 L 52.040404040404 129.3308270676691 L 55.757575757576 125.56390977443603 L 57.616161616162 129.3308270676691 L 59.474747474747 133.51629072681703 L 61.333333333333 133.93483709273187 L 63.191919191919 131.42355889724308 L 66.909090909091 130.58646616541353 L 68.767676767677 129.74937343358397 L 70.626262626263 129.3308270676691 L 74.343434343434 127.65664160400999 L 76.20202020202 128.49373433583955 L 79.919191919192 128.49373433583955 L 81.777777777778 132.26065162907264 L 83.636363636364 133.51629072681703 L 87.353535353535 131.00501253132836 L 89.212121212121 128.9122807017544 L 92.929292929293 128.07518796992485 L 94.787878787879 129.3308270676691 L 96.646464646465 128.9122807017544 L 100.36363636364 123.88972431077693 L 102.22222222222 123.4711779448622 L 104.08080808081 121.37844611528826 L 105.93939393939 122.21553884711781 L 107.79797979798 120.95989974937339 L 111.51515151515 120.95989974937339 L 113.37373737374 129.3308270676691 L 115.23232323232 133.93483709273187 L 117.09090909091 134.77192982456143 L 118.94949494949 136.44611528822054 L 122.66666666667 130.58646616541353 L 124.52525252525 127.65664160400999 L 126.38383838384 125.98245614035088 L 130.10101010101 112.17042606516284 L 131.9595959596 110.91478696741859 L 133.81818181818 114.2631578947368 L 137.53535353535 113.42606516290725 L 139.39393939394 118.03007518796989 L 141.25252525253 111.75187969924815 L 143.11111111111 113.8446115288221 L 144.9696969697 114.68170426065166 L 148.68686868687 111.33333333333329 L 150.54545454545 114.68170426065166 L 152.40404040404 113.8446115288221 L 154.26262626263 115.10025062656636 L 156.12121212121 114.68170426065166 L 157.9797979798 111.75187969924815 L 159.83838383838 118.03007518796989 L 161.69696969697 115.9373433583959 L 163.55555555556 119.28571428571429 L 167.27272727273 118.44862155388473 L 169.13131313131 120.12280701754383 L 170.9898989899 120.95989974937339 L 172.84848484848 119.70426065162914 L 174.70707070707 117.19298245614033 L 176.56565656566 113.8446115288221 L 178.42424242424 108.40350877192976 L 180.28282828283 103.38095238095244 L 182.14141414141 98.35839598997495 L 185.85858585859 90.82456140350881 L 187.71717171717 94.59147869674187 L 189.57575757576 93.33583959899747 L 191.43434343434 94.17293233082702 L 193.29292929293 94.59147869674187 L 195.15151515152 98.35839598997495 L 197.0101010101 95.01002506265658 L 198.86868686869 98.7769423558898 L 200.72727272727 97.5213032581454 L 204.44444444444 92.49874686716791 L 206.30303030303 81.19799498746869 L 208.16161616162 79.10526315789473 L 210.0202020202 81.19799498746869 L 211.87878787879 81.61654135338354 L 213.73737373737 82.8721804511278 L 215.59595959596 84.96491228070177 L 217.45454545455 84.96491228070177 L 219.31313131313 82.03508771929825 L 223.0303030303 79.10526315789473 L 224.88888888889 83.29072681704265 L 226.74747474747 81.61654135338354 L 228.60606060606 81.61654135338354 L 230.46464646465 82.8721804511278 L 232.32323232323 77.01253132832076 L 234.18181818182 75.33834586466165 L 236.0404040404 72.40852130325813 L 237.89898989899 73.24561403508768 L 241.61616161616 87.47619047619042 L 243.47474747475 81.19799498746869 L 245.33333333333 77.43107769423561 L 247.19191919192 81.61654135338354 L 249.05050505051 81.61654135338354 L 250.90909090909 79.52380952380958 L 252.76767676768 80.77944862155384 L 254.62626262626 76.59398496240605 L 256.48484848485 77.84962406015046 L 260.20202020202 78.68671679198002 L 262.06060606061 78.68671679198002 L 265.77777777778 81.19799498746869 L 267.63636363636 80.36090225563913 L 269.49494949495 89.56892230576439 L 271.35353535354 82.03508771929825 L 273.21212121212 84.12781954887221 L 275.07070707071 85.80200501253132 L 278.78787878788 87.47619047619042 L 280.64646464646 85.38345864661662 L 282.50505050505 87.47619047619042 L 284.36363636364 86.22055137844617 L 286.22222222222 87.05764411027573 L 288.08080808081 84.12781954887221 L 289.93939393939 79.52380952380958 L 291.79797979798 81.61654135338354 L 293.65656565657 78.68671679198002 L 297.37373737374 80.36090225563913 L 299.23232323232 81.61654135338354 L 301.09090909091 82.8721804511278 L 302.94949494949 82.03508771929825 L 304.80808080808 83.70927318295736 L 306.66666666667 84.12781954887221 L 308.52525252525 90.40601503759395 L 310.38383838384 90.82456140350881 L 312.24242424242 88.31328320802014 L 315.9595959596 84.12781954887221 L 317.81818181818 82.8721804511278 L 319.67676767677 85.80200501253132 L 321.53535353535 86.22055137844617 L 323.39393939394 84.12781954887221 L 325.25252525253 79.94235588972428 L 327.11111111111 84.54636591478692 L 328.9696969697 79.94235588972428 L 330.82828282828 81.61654135338354 L 334.54545454545 31.390977443609017 L 336.40404040404 28.879699248120346 L 338.26262626263 30.972431077694324 L 340.12121212121 33.065162907268274 L 341.9797979798 28.461152882205482 L 343.83838383838 29.716791979949903 L 345.69696969697 28.04260651629079 L 347.55555555556 33.48370927318297 L 349.41414141414 31.80952380952388 L 353.13131313131 23.85714285714286 L 354.9898989899 23.85714285714286 L 356.84848484848 24.275689223057725 L 358.70707070707 28.879699248120346 L 360.56565656566 29.29824561403521 L 362.42424242424 31.80952380952388 L 364.28282828283 39.34335839599002 L 366.14141414141 34.73934837092739 L 368 39.34335839599002" class="highcharts-graph highcharts-zone-graph-1 " data-z-index="1" clip-path="url(#highcharts-9bs6sle-216)"></path><path d="M -10 130.1679197994988 L 0 130.1679197994988 L 1.8585858585859 127.65664160400999 L 3.7171717171717 124.30827067669176 L 5.5757575757576 125.14536340852132 L 7.4343434343434 127.65664160400999 L 9.2929292929293 125.98245614035088 L 11.151515151515 125.14536340852132 L 13.010101010101 124.72681704260648 L 14.868686868687 123.05263157894737 L 18.585858585859 123.4711779448622 L 20.444444444444 126.40100250626558 L 22.30303030303 128.9122807017544 L 24.161616161616 131.42355889724308 L 26.020202020202 134.3533834586466 L 27.878787878788 136.0275689223057 L 29.737373737374 139.37593984962407 L 31.59595959596 136.44611528822054 L 33.454545454545 143.14285714285714 L 37.171717171717 136.44611528822054 L 39.030303030303 132.26065162907264 L 40.888888888889 132.26065162907264 L 42.747474747475 127.65664160400999 L 44.606060606061 126.81954887218043 L 46.464646464646 128.49373433583955 L 50.181818181818 131.42355889724308 L 52.040404040404 129.3308270676691 L 55.757575757576 125.56390977443603 L 57.616161616162 129.3308270676691 L 59.474747474747 133.51629072681703 L 61.333333333333 133.93483709273187 L 63.191919191919 131.42355889724308 L 66.909090909091 130.58646616541353 L 68.767676767677 129.74937343358397 L 70.626262626263 129.3308270676691 L 74.343434343434 127.65664160400999 L 76.20202020202 128.49373433583955 L 79.919191919192 128.49373433583955 L 81.777777777778 132.26065162907264 L 83.636363636364 133.51629072681703 L 87.353535353535 131.00501253132836 L 89.212121212121 128.9122807017544 L 92.929292929293 128.07518796992485 L 94.787878787879 129.3308270676691 L 96.646464646465 128.9122807017544 L 100.36363636364 123.88972431077693 L 102.22222222222 123.4711779448622 L 104.08080808081 121.37844611528826 L 105.93939393939 122.21553884711781 L 107.79797979798 120.95989974937339 L 111.51515151515 120.95989974937339 L 113.37373737374 129.3308270676691 L 115.23232323232 133.93483709273187 L 117.09090909091 134.77192982456143 L 118.94949494949 136.44611528822054 L 122.66666666667 130.58646616541353 L 124.52525252525 127.65664160400999 L 126.38383838384 125.98245614035088 L 130.10101010101 112.17042606516284 L 131.9595959596 110.91478696741859 L 133.81818181818 114.2631578947368 L 137.53535353535 113.42606516290725 L 139.39393939394 118.03007518796989 L 141.25252525253 111.75187969924815 L 143.11111111111 113.8446115288221 L 144.9696969697 114.68170426065166 L 148.68686868687 111.33333333333329 L 150.54545454545 114.68170426065166 L 152.40404040404 113.8446115288221 L 154.26262626263 115.10025062656636 L 156.12121212121 114.68170426065166 L 157.9797979798 111.75187969924815 L 159.83838383838 118.03007518796989 L 161.69696969697 115.9373433583959 L 163.55555555556 119.28571428571429 L 167.27272727273 118.44862155388473 L 169.13131313131 120.12280701754383 L 170.9898989899 120.95989974937339 L 172.84848484848 119.70426065162914 L 174.70707070707 117.19298245614033 L 176.56565656566 113.8446115288221 L 178.42424242424 108.40350877192976 L 180.28282828283 103.38095238095244 L 182.14141414141 98.35839598997495 L 185.85858585859 90.82456140350881 L 187.71717171717 94.59147869674187 L 189.57575757576 93.33583959899747 L 191.43434343434 94.17293233082702 L 193.29292929293 94.59147869674187 L 195.15151515152 98.35839598997495 L 197.0101010101 95.01002506265658 L 198.86868686869 98.7769423558898 L 200.72727272727 97.5213032581454 L 204.44444444444 92.49874686716791 L 206.30303030303 81.19799498746869 L 208.16161616162 79.10526315789473 L 210.0202020202 81.19799498746869 L 211.87878787879 81.61654135338354 L 213.73737373737 82.8721804511278 L 215.59595959596 84.96491228070177 L 217.45454545455 84.96491228070177 L 219.31313131313 82.03508771929825 L 223.0303030303 79.10526315789473 L 224.88888888889 83.29072681704265 L 226.74747474747 81.61654135338354 L 228.60606060606 81.61654135338354 L 230.46464646465 82.8721804511278 L 232.32323232323 77.01253132832076 L 234.18181818182 75.33834586466165 L 236.0404040404 72.40852130325813 L 237.89898989899 73.24561403508768 L 241.61616161616 87.47619047619042 L 243.47474747475 81.19799498746869 L 245.33333333333 77.43107769423561 L 247.19191919192 81.61654135338354 L 249.05050505051 81.61654135338354 L 250.90909090909 79.52380952380958 L 252.76767676768 80.77944862155384 L 254.62626262626 76.59398496240605 L 256.48484848485 77.84962406015046 L 260.20202020202 78.68671679198002 L 262.06060606061 78.68671679198002 L 265.77777777778 81.19799498746869 L 267.63636363636 80.36090225563913 L 269.49494949495 89.56892230576439 L 271.35353535354 82.03508771929825 L 273.21212121212 84.12781954887221 L 275.07070707071 85.80200501253132 L 278.78787878788 87.47619047619042 L 280.64646464646 85.38345864661662 L 282.50505050505 87.47619047619042 L 284.36363636364 86.22055137844617 L 286.22222222222 87.05764411027573 L 288.08080808081 84.12781954887221 L 289.93939393939 79.52380952380958 L 291.79797979798 81.61654135338354 L 293.65656565657 78.68671679198002 L 297.37373737374 80.36090225563913 L 299.23232323232 81.61654135338354 L 301.09090909091 82.8721804511278 L 302.94949494949 82.03508771929825 L 304.80808080808 83.70927318295736 L 306.66666666667 84.12781954887221 L 308.52525252525 90.40601503759395 L 310.38383838384 90.82456140350881 L 312.24242424242 88.31328320802014 L 315.9595959596 84.12781954887221 L 317.81818181818 82.8721804511278 L 319.67676767677 85.80200501253132 L 321.53535353535 86.22055137844617 L 323.39393939394 84.12781954887221 L 325.25252525253 79.94235588972428 L 327.11111111111 84.54636591478692 L 328.9696969697 79.94235588972428 L 330.82828282828 81.61654135338354 L 334.54545454545 31.390977443609017 L 336.40404040404 28.879699248120346 L 338.26262626263 30.972431077694324 L 340.12121212121 33.065162907268274 L 341.9797979798 28.461152882205482 L 343.83838383838 29.716791979949903 L 345.69696969697 28.04260651629079 L 347.55555555556 33.48370927318297 L 349.41414141414 31.80952380952388 L 353.13131313131 23.85714285714286 L 354.9898989899 23.85714285714286 L 356.84848484848 24.275689223057725 L 358.70707070707 28.879699248120346 L 360.56565656566 29.29824561403521 L 362.42424242424 31.80952380952388 L 364.28282828283 39.34335839599002 L 366.14141414141 34.73934837092739 L 368 39.34335839599002 L 378 39.34335839599002" visibility="visible" data-z-index="2" class="highcharts-tracker-line"></path></g><g data-z-index="0.1" class="highcharts-markers highcharts-series-0 highcharts-area-series highcharts-color-0 highcharts-positive highcharts-tracker" transform="translate(1,5) scale(1 1)"></g></g><text x="204" text-anchor="middle" class="highcharts-title" data-z-index="4" y="27"></text><text x="204" text-anchor="middle" class="highcharts-subtitle" data-z-index="4" y="26"></text><g class="highcharts-axis-labels highcharts-xaxis-labels highcharts-nogrid" data-z-index="7"></g><g class="highcharts-axis-labels highcharts-yaxis-labels highcharts-nogrid" data-z-index="7"><text x="398.109375" text-anchor="end" transform="translate(0,0)" y="143" opacity="1"><tspan>21</tspan></text><text x="398.109375" text-anchor="end" transform="translate(0,0)" y="101" opacity="1"><tspan>22</tspan></text><text x="398.109375" text-anchor="end" transform="translate(0,0)" y="59" opacity="1"><tspan>23</tspan></text><text x="398.109375" text-anchor="end" transform="translate(0,0)" y="17" opacity="1"><tspan>24</tspan></text></g></svg>