<svg version="1.1" class="highcharts-root" xmlns="http://www.w3.org/2000/svg" width="408" height="200" viewBox="0 0 408 200"><desc>Created with Highcharts 7.0.1</desc><defs><style>.highcharts-3d-top{filter: url(#highcharts-brighter)}
.highcharts-3d-side{filter: url(#highcharts-darker)}
</style><filter id="highcharts-darker"><feComponentTransfer><feFuncR type="linear" slope="0.6"></feFuncR><feFuncG type="linear" slope="0.6"></feFuncG><feFuncB type="linear" slope="0.6"></feFuncB></feComponentTransfer></filter><filter id="highcharts-brighter"><feComponentTransfer><feFuncR type="linear" slope="1.4"></feFuncR><feFuncG type="linear" slope="1.4"></feFuncG><feFuncB type="linear" slope="1.4"></feFuncB></feComponentTransfer></filter><clipPath id="highcharts-ao037jz-23"><rect x="0" y="0" width="356" height="167"></rect></clipPath><clipPath id="highcharts-ao037jz-158"><rect x="0" y="38" width="408" height="134"></rect></clipPath><clipPath id="highcharts-ao037jz-159"><rect x="0" y="0" width="408" height="38"></rect></clipPath></defs><rect class="highcharts-background" x="0.5" y="0.5" width="406" height="198" rx="0" ry="0"></rect><rect class="highcharts-plot-background" x="1" y="5" width="356" height="167"></rect><g class="highcharts-pane-group" data-z-index="0"></g><g class="highcharts-plot-lines-0" data-z-index="0"><path class="highcharts-plot-line " d="M 1 43 L 357 43"></path></g><g class="highcharts-grid highcharts-xaxis-grid highcharts-nogrid" data-z-index="1"><path data-z-index="1" class="highcharts-grid-line" d="M 25.5 5 L 25.5 172" opacity="1"></path><path data-z-index="1" class="highcharts-grid-line" d="M 145.5 5 L 145.5 172" opacity="1"></path><path data-z-index="1" class="highcharts-grid-line" d="M 263.5 5 L 263.5 172" opacity="1"></path></g><g class="highcharts-grid highcharts-yaxis-grid highcharts-nogrid" data-z-index="1"><path data-z-index="1" class="highcharts-grid-line" d="M 1 158.5 L 357 158.5" opacity="1"></path><path data-z-index="1" class="highcharts-grid-line" d="M 1 130.5 L 357 130.5" opacity="1"></path><path data-z-index="1" class="highcharts-grid-line" d="M 1 102.5 L 357 102.5" opacity="1"></path><path data-z-index="1" class="highcharts-grid-line" d="M 1 74.5 L 357 74.5" opacity="1"></path><path data-z-index="1" class="highcharts-grid-line" d="M 1 46.5 L 357 46.5" opacity="1"></path><path data-z-index="1" class="highcharts-grid-line" d="M 1 18.5 L 357 18.5" opacity="1"></path></g><rect class="highcharts-plot-border" data-z-index="1" x="0.5" y="4.5" width="357" height="168"></rect><g class="highcharts-axis highcharts-xaxis highcharts-nogrid" data-z-index="2"><path class="highcharts-axis-line" d="M 1 172 L 357 172"></path><path class="highcharts-tick" d="M 26 172 L 26 182" opacity="1"></path><path class="highcharts-tick" d="M 146 172 L 146 182" opacity="1"></path><path class="highcharts-tick" d="M 264 172 L 264 182" opacity="1"></path></g><g class="highcharts-axis highcharts-yaxis highcharts-nogrid" data-z-index="2"><path class="highcharts-axis-line" d="M 357 5 L 357 172"></path></g><g class="highcharts-series-group" data-z-index="3"><g data-z-index="0.1" class="highcharts-series highcharts-series-0 highcharts-area-series highcharts-color-0 highcharts-positive" transform="translate(1,5) scale(1 1)" clip-path="url(#highcharts-ao037jz-23)"><path d="M 0 37.870972073039724 L 2.2675159235669 38.99207841031145 L 4.5350318471338 46.72771213748652 L 6.8025477707006 51.100026852846426 L 9.0700636942675 51.7726906552094 L 13.605095541401 48.96992481203009 L 15.872611464968 47.400375939849596 L 18.140127388535 39.55263157894731 L 20.407643312102 37.870972073039724 L 22.675159235669 28.565789473684163 L 27.210191082803 24.866138560687432 L 29.477707006369 23.857142857142833 L 31.745222929936 27.668904403866776 L 34.012738853503 48.40937164339422 L 36.28025477707 48.29726100966701 L 40.815286624204 44.373388829215855 L 43.082802547771 37.75886143931251 L 45.350318471338 27.668904403866776 L 47.617834394904 25.875134264231946 L 49.885350318471 34.17132116004291 L 54.420382165605 57.26611170784102 L 56.687898089172 58.8356605800215 L 58.955414012739 56.36922663802362 L 61.222929936306 52.44535445757248 L 63.490445859873 48.521482277121336 L 68.025477707006 46.951933404940846 L 70.292993630573 42.80383995703538 L 72.56050955414 45.606605800214794 L 74.828025477707 41.12218045112779 L 77.095541401274 39.10418904403866 L 81.630573248408 43.028061224489804 L 83.898089171975 52.55746509129969 L 86.165605095541 64.1048603651987 L 88.433121019108 65.33807733619764 L 90.700636942675 59.95676691729322 L 95.235668789809 55.47234156820622 L 97.503184713376 59.50832438238447 L 99.770700636943 54.911788399570355 L 102.03821656051 53.34223952738988 L 104.30573248408 57.37822234156813 L 108.84076433121 55.02389903329747 L 111.10828025478 64.32908163265303 L 113.37579617834 65.22596670247043 L 115.64331210191 71.95260472610099 L 117.91082802548 77.44602577873252 L 122.44585987261 74.19481740064444 L 124.71337579618 70.38305585392051 L 126.98089171975 72.17682599355531 L 129.24840764331 72.51315789473685 L 131.51592356688 66.12285177228783 L 136.05095541401 63.2079752953813 L 138.31847133758 49.64258861439306 L 140.58598726115 52.333243823845265 L 142.85350318471 52.44535445757248 L 145.12101910828 58.723549946294284 L 149.65605095541 63.2079752953813 L 151.92356687898 66.57129430719658 L 154.19108280255 64.66541353383457 L 156.45859872611 65.8986305048335 L 158.72611464968 64.44119226638024 L 163.26114649682 55.13600966702468 L 165.52866242038 54.79967776584314 L 167.79617834395 58.49932867883996 L 170.06369426752 43.36439312567124 L 172.33121019108 41.90695488721798 L 176.86624203822 49.53047798066595 L 179.13375796178 43.14017185821692 L 181.40127388535 34.39554242749733 L 183.66878980892 46.503490870032195 L 185.93630573248 48.857814178302874 L 190.47133757962 57.490332975295345 L 192.73885350318 61.41420515574649 L 195.00636942675 81.7062298603652 L 197.27388535032 76.21280880773358 L 199.54140127389 75.31592373791617 L 204.07643312102 85.96643394199788 L 206.34394904459 91.90829752953816 L 208.61146496815 91.01141245972076 L 210.87898089172 89.7781954887218 L 213.14649681529 78.90346401718578 L 217.68152866242 81.48200859291087 L 219.94904458599 77.2218045112782 L 222.21656050955 71.72838345864656 L 224.48407643312 78.67924274973146 L 226.75159235669 84.62110633727173 L 231.28662420382 94.37473147153594 L 233.55414012739 97.51382921589689 L 235.82165605096 107.04323308270676 L 238.08917197452 117.02107948442531 L 240.35668789809 125.20515574650913 L 244.89171974522 129.57747046186893 L 247.15923566879 130.1380236305048 L 249.42675159236 135.85566595059075 L 251.69426751592 133.8376745435016 L 253.96178343949 143.14285714285717 L 258.49681528662 134.6224489795918 L 260.76433121019 131.14701933404942 L 263.03184713376 121.95394736842107 L 265.29936305732 109.28544575725023 L 267.56687898089 105.92212674543504 L 272.10191082803 111.97610096670243 L 274.36942675159 114.21831364124598 L 276.63694267516 110.7428839957036 L 278.90445859873 109.9581095596133 L 281.17197452229 106.81901181525245 L 285.70700636943 107.82800751879697 L 287.97452229299 95.15950590762623 L 290.24203821656 93.47784640171854 L 292.50955414013 97.96227175080554 L 294.77707006369 87.984425349087 L 299.31210191083 90.11452738990336 L 301.57961783439 93.70206766917296 L 303.84713375796 95.72005907626209 L 306.11464968153 91.79618689581095 L 308.3821656051 86.75120837808807 L 312.91719745223 91.23563372717508 L 315.1847133758 91.68407626208374 L 317.45222929936 87.87231471535979 L 319.71974522293 76.54914070891512 L 321.9872611465 69.14983888292157 L 326.52229299363 65.56229860365197 L 328.7898089172 61.07787325456495 L 331.05732484076 53.566460794844204 L 333.32484076433 50.09103114930181 L 335.5923566879 46.27926960257787 L 340.12738853503 46.16715896885066 L 342.3949044586 48.40937164339422 L 344.66242038217 45.38238453276047 L 346.92993630573 44.821831364124606 L 349.1974522293 44.93394199785172 L 353.73248407643 47.17615467239527 L 356 49.306256713211624 L 356 37.870972073039724 L 353.73248407643 37.870972073039724 L 349.1974522293 37.870972073039724 L 346.92993630573 37.870972073039724 L 344.66242038217 37.870972073039724 L 342.3949044586 37.870972073039724 L 340.12738853503 37.870972073039724 L 335.5923566879 37.870972073039724 L 333.32484076433 37.870972073039724 L 331.05732484076 37.870972073039724 L 328.7898089172 37.870972073039724 L 326.52229299363 37.870972073039724 L 321.9872611465 37.870972073039724 L 319.71974522293 37.870972073039724 L 317.45222929936 37.870972073039724 L 315.1847133758 37.870972073039724 L 312.91719745223 37.870972073039724 L 308.3821656051 37.870972073039724 L 306.11464968153 37.870972073039724 L 303.84713375796 37.870972073039724 L 301.57961783439 37.870972073039724 L 299.31210191083 37.870972073039724 L 294.77707006369 37.870972073039724 L 292.50955414013 37.870972073039724 L 290.24203821656 37.870972073039724 L 287.97452229299 37.870972073039724 L 285.70700636943 37.870972073039724 L 281.17197452229 37.870972073039724 L 278.90445859873 37.870972073039724 L 276.63694267516 37.870972073039724 L 274.36942675159 37.870972073039724 L 272.10191082803 37.870972073039724 L 267.56687898089 37.870972073039724 L 265.29936305732 37.870972073039724 L 263.03184713376 37.870972073039724 L 260.76433121019 37.870972073039724 L 258.49681528662 37.870972073039724 L 253.96178343949 37.870972073039724 L 251.69426751592 37.870972073039724 L 249.42675159236 37.870972073039724 L 247.15923566879 37.870972073039724 L 244.89171974522 37.870972073039724 L 240.35668789809 37.870972073039724 L 238.08917197452 37.870972073039724 L 235.82165605096 37.870972073039724 L 233.55414012739 37.870972073039724 L 231.28662420382 37.870972073039724 L 226.75159235669 37.870972073039724 L 224.48407643312 37.870972073039724 L 222.21656050955 37.870972073039724 L 219.94904458599 37.870972073039724 L 217.68152866242 37.870972073039724 L 213.14649681529 37.870972073039724 L 210.87898089172 37.870972073039724 L 208.61146496815 37.870972073039724 L 206.34394904459 37.870972073039724 L 204.07643312102 37.870972073039724 L 199.54140127389 37.870972073039724 L 197.27388535032 37.870972073039724 L 195.00636942675 37.870972073039724 L 192.73885350318 37.870972073039724 L 190.47133757962 37.870972073039724 L 185.93630573248 37.870972073039724 L 183.66878980892 37.870972073039724 L 181.40127388535 37.870972073039724 L 179.13375796178 37.870972073039724 L 176.86624203822 37.870972073039724 L 172.33121019108 37.870972073039724 L 170.06369426752 37.870972073039724 L 167.79617834395 37.870972073039724 L 165.52866242038 37.870972073039724 L 163.26114649682 37.870972073039724 L 158.72611464968 37.870972073039724 L 156.45859872611 37.870972073039724 L 154.19108280255 37.870972073039724 L 151.92356687898 37.870972073039724 L 149.65605095541 37.870972073039724 L 145.12101910828 37.870972073039724 L 142.85350318471 37.870972073039724 L 140.58598726115 37.870972073039724 L 138.31847133758 37.870972073039724 L 136.05095541401 37.870972073039724 L 131.51592356688 37.870972073039724 L 129.24840764331 37.870972073039724 L 126.98089171975 37.870972073039724 L 124.71337579618 37.870972073039724 L 122.44585987261 37.870972073039724 L 117.91082802548 37.870972073039724 L 115.64331210191 37.870972073039724 L 113.37579617834 37.870972073039724 L 111.10828025478 37.870972073039724 L 108.84076433121 37.870972073039724 L 104.30573248408 37.870972073039724 L 102.03821656051 37.870972073039724 L 99.770700636943 37.870972073039724 L 97.503184713376 37.870972073039724 L 95.235668789809 37.870972073039724 L 90.700636942675 37.870972073039724 L 88.433121019108 37.870972073039724 L 86.165605095541 37.870972073039724 L 83.898089171975 37.870972073039724 L 81.630573248408 37.870972073039724 L 77.095541401274 37.870972073039724 L 74.828025477707 37.870972073039724 L 72.56050955414 37.870972073039724 L 70.292993630573 37.870972073039724 L 68.025477707006 37.870972073039724 L 63.490445859873 37.870972073039724 L 61.222929936306 37.870972073039724 L 58.955414012739 37.870972073039724 L 56.687898089172 37.870972073039724 L 54.420382165605 37.870972073039724 L 49.885350318471 37.870972073039724 L 47.617834394904 37.870972073039724 L 45.350318471338 37.870972073039724 L 43.082802547771 37.870972073039724 L 40.815286624204 37.870972073039724 L 36.28025477707 37.870972073039724 L 34.012738853503 37.870972073039724 L 31.745222929936 37.870972073039724 L 29.477707006369 37.870972073039724 L 27.210191082803 37.870972073039724 L 22.675159235669 37.870972073039724 L 20.407643312102 37.870972073039724 L 18.140127388535 37.870972073039724 L 15.872611464968 37.870972073039724 L 13.605095541401 37.870972073039724 L 9.0700636942675 37.870972073039724 L 6.8025477707006 37.870972073039724 L 4.5350318471338 37.870972073039724 L 2.2675159235669 37.870972073039724 L 0 37.870972073039724" class="highcharts-area" data-z-index="0" visibility="hidden"></path><path d="M 0 37.870972073039724 L 2.2675159235669 38.99207841031145 L 4.5350318471338 46.72771213748652 L 6.8025477707006 51.100026852846426 L 9.0700636942675 51.7726906552094 L 13.605095541401 48.96992481203009 L 15.872611464968 47.400375939849596 L 18.140127388535 39.55263157894731 L 20.407643312102 37.870972073039724 L 22.675159235669 28.565789473684163 L 27.210191082803 24.866138560687432 L 29.477707006369 23.857142857142833 L 31.745222929936 27.668904403866776 L 34.012738853503 48.40937164339422 L 36.28025477707 48.29726100966701 L 40.815286624204 44.373388829215855 L 43.082802547771 37.75886143931251 L 45.350318471338 27.668904403866776 L 47.617834394904 25.875134264231946 L 49.885350318471 34.17132116004291 L 54.420382165605 57.26611170784102 L 56.687898089172 58.8356605800215 L 58.955414012739 56.36922663802362 L 61.222929936306 52.44535445757248 L 63.490445859873 48.521482277121336 L 68.025477707006 46.951933404940846 L 70.292993630573 42.80383995703538 L 72.56050955414 45.606605800214794 L 74.828025477707 41.12218045112779 L 77.095541401274 39.10418904403866 L 81.630573248408 43.028061224489804 L 83.898089171975 52.55746509129969 L 86.165605095541 64.1048603651987 L 88.433121019108 65.33807733619764 L 90.700636942675 59.95676691729322 L 95.235668789809 55.47234156820622 L 97.503184713376 59.50832438238447 L 99.770700636943 54.911788399570355 L 102.03821656051 53.34223952738988 L 104.30573248408 57.37822234156813 L 108.84076433121 55.02389903329747 L 111.10828025478 64.32908163265303 L 113.37579617834 65.22596670247043 L 115.64331210191 71.95260472610099 L 117.91082802548 77.44602577873252 L 122.44585987261 74.19481740064444 L 124.71337579618 70.38305585392051 L 126.98089171975 72.17682599355531 L 129.24840764331 72.51315789473685 L 131.51592356688 66.12285177228783 L 136.05095541401 63.2079752953813 L 138.31847133758 49.64258861439306 L 140.58598726115 52.333243823845265 L 142.85350318471 52.44535445757248 L 145.12101910828 58.723549946294284 L 149.65605095541 63.2079752953813 L 151.92356687898 66.57129430719658 L 154.19108280255 64.66541353383457 L 156.45859872611 65.8986305048335 L 158.72611464968 64.44119226638024 L 163.26114649682 55.13600966702468 L 165.52866242038 54.79967776584314 L 167.79617834395 58.49932867883996 L 170.06369426752 43.36439312567124 L 172.33121019108 41.90695488721798 L 176.86624203822 49.53047798066595 L 179.13375796178 43.14017185821692 L 181.40127388535 34.39554242749733 L 183.66878980892 46.503490870032195 L 185.93630573248 48.857814178302874 L 190.47133757962 57.490332975295345 L 192.73885350318 61.41420515574649 L 195.00636942675 81.7062298603652 L 197.27388535032 76.21280880773358 L 199.54140127389 75.31592373791617 L 204.07643312102 85.96643394199788 L 206.34394904459 91.90829752953816 L 208.61146496815 91.01141245972076 L 210.87898089172 89.7781954887218 L 213.14649681529 78.90346401718578 L 217.68152866242 81.48200859291087 L 219.94904458599 77.2218045112782 L 222.21656050955 71.72838345864656 L 224.48407643312 78.67924274973146 L 226.75159235669 84.62110633727173 L 231.28662420382 94.37473147153594 L 233.55414012739 97.51382921589689 L 235.82165605096 107.04323308270676 L 238.08917197452 117.02107948442531 L 240.35668789809 125.20515574650913 L 244.89171974522 129.57747046186893 L 247.15923566879 130.1380236305048 L 249.42675159236 135.85566595059075 L 251.69426751592 133.8376745435016 L 253.96178343949 143.14285714285717 L 258.49681528662 134.6224489795918 L 260.76433121019 131.14701933404942 L 263.03184713376 121.95394736842107 L 265.29936305732 109.28544575725023 L 267.56687898089 105.92212674543504 L 272.10191082803 111.97610096670243 L 274.36942675159 114.21831364124598 L 276.63694267516 110.7428839957036 L 278.90445859873 109.9581095596133 L 281.17197452229 106.81901181525245 L 285.70700636943 107.82800751879697 L 287.97452229299 95.15950590762623 L 290.24203821656 93.47784640171854 L 292.50955414013 97.96227175080554 L 294.77707006369 87.984425349087 L 299.31210191083 90.11452738990336 L 301.57961783439 93.70206766917296 L 303.84713375796 95.72005907626209 L 306.11464968153 91.79618689581095 L 308.3821656051 86.75120837808807 L 312.91719745223 91.23563372717508 L 315.1847133758 91.68407626208374 L 317.45222929936 87.87231471535979 L 319.71974522293 76.54914070891512 L 321.9872611465 69.14983888292157 L 326.52229299363 65.56229860365197 L 328.7898089172 61.07787325456495 L 331.05732484076 53.566460794844204 L 333.32484076433 50.09103114930181 L 335.5923566879 46.27926960257787 L 340.12738853503 46.16715896885066 L 342.3949044586 48.40937164339422 L 344.66242038217 45.38238453276047 L 346.92993630573 44.821831364124606 L 349.1974522293 44.93394199785172 L 353.73248407643 47.17615467239527 L 356 49.306256713211624 L 356 37.870972073039724 L 353.73248407643 37.870972073039724 L 349.1974522293 37.870972073039724 L 346.92993630573 37.870972073039724 L 344.66242038217 37.870972073039724 L 342.3949044586 37.870972073039724 L 340.12738853503 37.870972073039724 L 335.5923566879 37.870972073039724 L 333.32484076433 37.870972073039724 L 331.05732484076 37.870972073039724 L 328.7898089172 37.870972073039724 L 326.52229299363 37.870972073039724 L 321.9872611465 37.870972073039724 L 319.71974522293 37.870972073039724 L 317.45222929936 37.870972073039724 L 315.1847133758 37.870972073039724 L 312.91719745223 37.870972073039724 L 308.3821656051 37.870972073039724 L 306.11464968153 37.870972073039724 L 303.84713375796 37.870972073039724 L 301.57961783439 37.870972073039724 L 299.31210191083 37.870972073039724 L 294.77707006369 37.870972073039724 L 292.50955414013 37.870972073039724 L 290.24203821656 37.870972073039724 L 287.97452229299 37.870972073039724 L 285.70700636943 37.870972073039724 L 281.17197452229 37.870972073039724 L 278.90445859873 37.870972073039724 L 276.63694267516 37.870972073039724 L 274.36942675159 37.870972073039724 L 272.10191082803 37.870972073039724 L 267.56687898089 37.870972073039724 L 265.29936305732 37.870972073039724 L 263.03184713376 37.870972073039724 L 260.76433121019 37.870972073039724 L 258.49681528662 37.870972073039724 L 253.96178343949 37.870972073039724 L 251.69426751592 37.870972073039724 L 249.42675159236 37.870972073039724 L 247.15923566879 37.870972073039724 L 244.89171974522 37.870972073039724 L 240.35668789809 37.870972073039724 L 238.08917197452 37.870972073039724 L 235.82165605096 37.870972073039724 L 233.55414012739 37.870972073039724 L 231.28662420382 37.870972073039724 L 226.75159235669 37.870972073039724 L 224.48407643312 37.870972073039724 L 222.21656050955 37.870972073039724 L 219.94904458599 37.870972073039724 L 217.68152866242 37.870972073039724 L 213.14649681529 37.870972073039724 L 210.87898089172 37.870972073039724 L 208.61146496815 37.870972073039724 L 206.34394904459 37.870972073039724 L 204.07643312102 37.870972073039724 L 199.54140127389 37.870972073039724 L 197.27388535032 37.870972073039724 L 195.00636942675 37.870972073039724 L 192.73885350318 37.870972073039724 L 190.47133757962 37.870972073039724 L 185.93630573248 37.870972073039724 L 183.66878980892 37.870972073039724 L 181.40127388535 37.870972073039724 L 179.13375796178 37.870972073039724 L 176.86624203822 37.870972073039724 L 172.33121019108 37.870972073039724 L 170.06369426752 37.870972073039724 L 167.79617834395 37.870972073039724 L 165.52866242038 37.870972073039724 L 163.26114649682 37.870972073039724 L 158.72611464968 37.870972073039724 L 156.45859872611 37.870972073039724 L 154.19108280255 37.870972073039724 L 151.92356687898 37.870972073039724 L 149.65605095541 37.870972073039724 L 145.12101910828 37.870972073039724 L 142.85350318471 37.870972073039724 L 140.58598726115 37.870972073039724 L 138.31847133758 37.870972073039724 L 136.05095541401 37.870972073039724 L 131.51592356688 37.870972073039724 L 129.24840764331 37.870972073039724 L 126.98089171975 37.870972073039724 L 124.71337579618 37.870972073039724 L 122.44585987261 37.870972073039724 L 117.91082802548 37.870972073039724 L 115.64331210191 37.870972073039724 L 113.37579617834 37.870972073039724 L 111.10828025478 37.870972073039724 L 108.84076433121 37.870972073039724 L 104.30573248408 37.870972073039724 L 102.03821656051 37.870972073039724 L 99.770700636943 37.870972073039724 L 97.503184713376 37.870972073039724 L 95.235668789809 37.870972073039724 L 90.700636942675 37.870972073039724 L 88.433121019108 37.870972073039724 L 86.165605095541 37.870972073039724 L 83.898089171975 37.870972073039724 L 81.630573248408 37.870972073039724 L 77.095541401274 37.870972073039724 L 74.828025477707 37.870972073039724 L 72.56050955414 37.870972073039724 L 70.292993630573 37.870972073039724 L 68.025477707006 37.870972073039724 L 63.490445859873 37.870972073039724 L 61.222929936306 37.870972073039724 L 58.955414012739 37.870972073039724 L 56.687898089172 37.870972073039724 L 54.420382165605 37.870972073039724 L 49.885350318471 37.870972073039724 L 47.617834394904 37.870972073039724 L 45.350318471338 37.870972073039724 L 43.082802547771 37.870972073039724 L 40.815286624204 37.870972073039724 L 36.28025477707 37.870972073039724 L 34.012738853503 37.870972073039724 L 31.745222929936 37.870972073039724 L 29.477707006369 37.870972073039724 L 27.210191082803 37.870972073039724 L 22.675159235669 37.870972073039724 L 20.407643312102 37.870972073039724 L 18.140127388535 37.870972073039724 L 15.872611464968 37.870972073039724 L 13.605095541401 37.870972073039724 L 9.0700636942675 37.870972073039724 L 6.8025477707006 37.870972073039724 L 4.5350318471338 37.870972073039724 L 2.2675159235669 37.870972073039724 L 0 37.870972073039724" class="highcharts-area highcharts-zone-area-0 highcharts-negative" data-z-index="0" clip-path="url(#highcharts-ao037jz-158)"></path><path d="M 0 37.870972073039724 L 2.2675159235669 38.99207841031145 L 4.5350318471338 46.72771213748652 L 6.8025477707006 51.100026852846426 L 9.0700636942675 51.7726906552094 L 13.605095541401 48.96992481203009 L 15.872611464968 47.400375939849596 L 18.140127388535 39.55263157894731 L 20.407643312102 37.870972073039724 L 22.675159235669 28.565789473684163 L 27.210191082803 24.866138560687432 L 29.477707006369 23.857142857142833 L 31.745222929936 27.668904403866776 L 34.012738853503 48.40937164339422 L 36.28025477707 48.29726100966701 L 40.815286624204 44.373388829215855 L 43.082802547771 37.75886143931251 L 45.350318471338 27.668904403866776 L 47.617834394904 25.875134264231946 L 49.885350318471 34.17132116004291 L 54.420382165605 57.26611170784102 L 56.687898089172 58.8356605800215 L 58.955414012739 56.36922663802362 L 61.222929936306 52.44535445757248 L 63.490445859873 48.521482277121336 L 68.025477707006 46.951933404940846 L 70.292993630573 42.80383995703538 L 72.56050955414 45.606605800214794 L 74.828025477707 41.12218045112779 L 77.095541401274 39.10418904403866 L 81.630573248408 43.028061224489804 L 83.898089171975 52.55746509129969 L 86.165605095541 64.1048603651987 L 88.433121019108 65.33807733619764 L 90.700636942675 59.95676691729322 L 95.235668789809 55.47234156820622 L 97.503184713376 59.50832438238447 L 99.770700636943 54.911788399570355 L 102.03821656051 53.34223952738988 L 104.30573248408 57.37822234156813 L 108.84076433121 55.02389903329747 L 111.10828025478 64.32908163265303 L 113.37579617834 65.22596670247043 L 115.64331210191 71.95260472610099 L 117.91082802548 77.44602577873252 L 122.44585987261 74.19481740064444 L 124.71337579618 70.38305585392051 L 126.98089171975 72.17682599355531 L 129.24840764331 72.51315789473685 L 131.51592356688 66.12285177228783 L 136.05095541401 63.2079752953813 L 138.31847133758 49.64258861439306 L 140.58598726115 52.333243823845265 L 142.85350318471 52.44535445757248 L 145.12101910828 58.723549946294284 L 149.65605095541 63.2079752953813 L 151.92356687898 66.57129430719658 L 154.19108280255 64.66541353383457 L 156.45859872611 65.8986305048335 L 158.72611464968 64.44119226638024 L 163.26114649682 55.13600966702468 L 165.52866242038 54.79967776584314 L 167.79617834395 58.49932867883996 L 170.06369426752 43.36439312567124 L 172.33121019108 41.90695488721798 L 176.86624203822 49.53047798066595 L 179.13375796178 43.14017185821692 L 181.40127388535 34.39554242749733 L 183.66878980892 46.503490870032195 L 185.93630573248 48.857814178302874 L 190.47133757962 57.490332975295345 L 192.73885350318 61.41420515574649 L 195.00636942675 81.7062298603652 L 197.27388535032 76.21280880773358 L 199.54140127389 75.31592373791617 L 204.07643312102 85.96643394199788 L 206.34394904459 91.90829752953816 L 208.61146496815 91.01141245972076 L 210.87898089172 89.7781954887218 L 213.14649681529 78.90346401718578 L 217.68152866242 81.48200859291087 L 219.94904458599 77.2218045112782 L 222.21656050955 71.72838345864656 L 224.48407643312 78.67924274973146 L 226.75159235669 84.62110633727173 L 231.28662420382 94.37473147153594 L 233.55414012739 97.51382921589689 L 235.82165605096 107.04323308270676 L 238.08917197452 117.02107948442531 L 240.35668789809 125.20515574650913 L 244.89171974522 129.57747046186893 L 247.15923566879 130.1380236305048 L 249.42675159236 135.85566595059075 L 251.69426751592 133.8376745435016 L 253.96178343949 143.14285714285717 L 258.49681528662 134.6224489795918 L 260.76433121019 131.14701933404942 L 263.03184713376 121.95394736842107 L 265.29936305732 109.28544575725023 L 267.56687898089 105.92212674543504 L 272.10191082803 111.97610096670243 L 274.36942675159 114.21831364124598 L 276.63694267516 110.7428839957036 L 278.90445859873 109.9581095596133 L 281.17197452229 106.81901181525245 L 285.70700636943 107.82800751879697 L 287.97452229299 95.15950590762623 L 290.24203821656 93.47784640171854 L 292.50955414013 97.96227175080554 L 294.77707006369 87.984425349087 L 299.31210191083 90.11452738990336 L 301.57961783439 93.70206766917296 L 303.84713375796 95.72005907626209 L 306.11464968153 91.79618689581095 L 308.3821656051 86.75120837808807 L 312.91719745223 91.23563372717508 L 315.1847133758 91.68407626208374 L 317.45222929936 87.87231471535979 L 319.71974522293 76.54914070891512 L 321.9872611465 69.14983888292157 L 326.52229299363 65.56229860365197 L 328.7898089172 61.07787325456495 L 331.05732484076 53.566460794844204 L 333.32484076433 50.09103114930181 L 335.5923566879 46.27926960257787 L 340.12738853503 46.16715896885066 L 342.3949044586 48.40937164339422 L 344.66242038217 45.38238453276047 L 346.92993630573 44.821831364124606 L 349.1974522293 44.93394199785172 L 353.73248407643 47.17615467239527 L 356 49.306256713211624 L 356 37.870972073039724 L 353.73248407643 37.870972073039724 L 349.1974522293 37.870972073039724 L 346.92993630573 37.870972073039724 L 344.66242038217 37.870972073039724 L 342.3949044586 37.870972073039724 L 340.12738853503 37.870972073039724 L 335.5923566879 37.870972073039724 L 333.32484076433 37.870972073039724 L 331.05732484076 37.870972073039724 L 328.7898089172 37.870972073039724 L 326.52229299363 37.870972073039724 L 321.9872611465 37.870972073039724 L 319.71974522293 37.870972073039724 L 317.45222929936 37.870972073039724 L 315.1847133758 37.870972073039724 L 312.91719745223 37.870972073039724 L 308.3821656051 37.870972073039724 L 306.11464968153 37.870972073039724 L 303.84713375796 37.870972073039724 L 301.57961783439 37.870972073039724 L 299.31210191083 37.870972073039724 L 294.77707006369 37.870972073039724 L 292.50955414013 37.870972073039724 L 290.24203821656 37.870972073039724 L 287.97452229299 37.870972073039724 L 285.70700636943 37.870972073039724 L 281.17197452229 37.870972073039724 L 278.90445859873 37.870972073039724 L 276.63694267516 37.870972073039724 L 274.36942675159 37.870972073039724 L 272.10191082803 37.870972073039724 L 267.56687898089 37.870972073039724 L 265.29936305732 37.870972073039724 L 263.03184713376 37.870972073039724 L 260.76433121019 37.870972073039724 L 258.49681528662 37.870972073039724 L 253.96178343949 37.870972073039724 L 251.69426751592 37.870972073039724 L 249.42675159236 37.870972073039724 L 247.15923566879 37.870972073039724 L 244.89171974522 37.870972073039724 L 240.35668789809 37.870972073039724 L 238.08917197452 37.870972073039724 L 235.82165605096 37.870972073039724 L 233.55414012739 37.870972073039724 L 231.28662420382 37.870972073039724 L 226.75159235669 37.870972073039724 L 224.48407643312 37.870972073039724 L 222.21656050955 37.870972073039724 L 219.94904458599 37.870972073039724 L 217.68152866242 37.870972073039724 L 213.14649681529 37.870972073039724 L 210.87898089172 37.870972073039724 L 208.61146496815 37.870972073039724 L 206.34394904459 37.870972073039724 L 204.07643312102 37.870972073039724 L 199.54140127389 37.870972073039724 L 197.27388535032 37.870972073039724 L 195.00636942675 37.870972073039724 L 192.73885350318 37.870972073039724 L 190.47133757962 37.870972073039724 L 185.93630573248 37.870972073039724 L 183.66878980892 37.870972073039724 L 181.40127388535 37.870972073039724 L 179.13375796178 37.870972073039724 L 176.86624203822 37.870972073039724 L 172.33121019108 37.870972073039724 L 170.06369426752 37.870972073039724 L 167.79617834395 37.870972073039724 L 165.52866242038 37.870972073039724 L 163.26114649682 37.870972073039724 L 158.72611464968 37.870972073039724 L 156.45859872611 37.870972073039724 L 154.19108280255 37.870972073039724 L 151.92356687898 37.870972073039724 L 149.65605095541 37.870972073039724 L 145.12101910828 37.870972073039724 L 142.85350318471 37.870972073039724 L 140.58598726115 37.870972073039724 L 138.31847133758 37.870972073039724 L 136.05095541401 37.870972073039724 L 131.51592356688 37.870972073039724 L 129.24840764331 37.870972073039724 L 126.98089171975 37.870972073039724 L 124.71337579618 37.870972073039724 L 122.44585987261 37.870972073039724 L 117.91082802548 37.870972073039724 L 115.64331210191 37.870972073039724 L 113.37579617834 37.870972073039724 L 111.10828025478 37.870972073039724 L 108.84076433121 37.870972073039724 L 104.30573248408 37.870972073039724 L 102.03821656051 37.870972073039724 L 99.770700636943 37.870972073039724 L 97.503184713376 37.870972073039724 L 95.235668789809 37.870972073039724 L 90.700636942675 37.870972073039724 L 88.433121019108 37.870972073039724 L 86.165605095541 37.870972073039724 L 83.898089171975 37.870972073039724 L 81.630573248408 37.870972073039724 L 77.095541401274 37.870972073039724 L 74.828025477707 37.870972073039724 L 72.56050955414 37.870972073039724 L 70.292993630573 37.870972073039724 L 68.025477707006 37.870972073039724 L 63.490445859873 37.870972073039724 L 61.222929936306 37.870972073039724 L 58.955414012739 37.870972073039724 L 56.687898089172 37.870972073039724 L 54.420382165605 37.870972073039724 L 49.885350318471 37.870972073039724 L 47.617834394904 37.870972073039724 L 45.350318471338 37.870972073039724 L 43.082802547771 37.870972073039724 L 40.815286624204 37.870972073039724 L 36.28025477707 37.870972073039724 L 34.012738853503 37.870972073039724 L 31.745222929936 37.870972073039724 L 29.477707006369 37.870972073039724 L 27.210191082803 37.870972073039724 L 22.675159235669 37.870972073039724 L 20.407643312102 37.870972073039724 L 18.140127388535 37.870972073039724 L 15.872611464968 37.870972073039724 L 13.605095541401 37.870972073039724 L 9.0700636942675 37.870972073039724 L 6.8025477707006 37.870972073039724 L 4.5350318471338 37.870972073039724 L 2.2675159235669 37.870972073039724 L 0 37.870972073039724" class="highcharts-area highcharts-zone-area-1 undefined" data-z-index="0" clip-path="url(#highcharts-ao037jz-159)"></path><path d="M 0 37.870972073039724 L 2.2675159235669 38.99207841031145 L 4.5350318471338 46.72771213748652 L 6.8025477707006 51.100026852846426 L 9.0700636942675 51.7726906552094 L 13.605095541401 48.96992481203009 L 15.872611464968 47.400375939849596 L 18.140127388535 39.55263157894731 L 20.407643312102 37.870972073039724 L 22.675159235669 28.565789473684163 L 27.210191082803 24.866138560687432 L 29.477707006369 23.857142857142833 L 31.745222929936 27.668904403866776 L 34.012738853503 48.40937164339422 L 36.28025477707 48.29726100966701 L 40.815286624204 44.373388829215855 L 43.082802547771 37.75886143931251 L 45.350318471338 27.668904403866776 L 47.617834394904 25.875134264231946 L 49.885350318471 34.17132116004291 L 54.420382165605 57.26611170784102 L 56.687898089172 58.8356605800215 L 58.955414012739 56.36922663802362 L 61.222929936306 52.44535445757248 L 63.490445859873 48.521482277121336 L 68.025477707006 46.951933404940846 L 70.292993630573 42.80383995703538 L 72.56050955414 45.606605800214794 L 74.828025477707 41.12218045112779 L 77.095541401274 39.10418904403866 L 81.630573248408 43.028061224489804 L 83.898089171975 52.55746509129969 L 86.165605095541 64.1048603651987 L 88.433121019108 65.33807733619764 L 90.700636942675 59.95676691729322 L 95.235668789809 55.47234156820622 L 97.503184713376 59.50832438238447 L 99.770700636943 54.911788399570355 L 102.03821656051 53.34223952738988 L 104.30573248408 57.37822234156813 L 108.84076433121 55.02389903329747 L 111.10828025478 64.32908163265303 L 113.37579617834 65.22596670247043 L 115.64331210191 71.95260472610099 L 117.91082802548 77.44602577873252 L 122.44585987261 74.19481740064444 L 124.71337579618 70.38305585392051 L 126.98089171975 72.17682599355531 L 129.24840764331 72.51315789473685 L 131.51592356688 66.12285177228783 L 136.05095541401 63.2079752953813 L 138.31847133758 49.64258861439306 L 140.58598726115 52.333243823845265 L 142.85350318471 52.44535445757248 L 145.12101910828 58.723549946294284 L 149.65605095541 63.2079752953813 L 151.92356687898 66.57129430719658 L 154.19108280255 64.66541353383457 L 156.45859872611 65.8986305048335 L 158.72611464968 64.44119226638024 L 163.26114649682 55.13600966702468 L 165.52866242038 54.79967776584314 L 167.79617834395 58.49932867883996 L 170.06369426752 43.36439312567124 L 172.33121019108 41.90695488721798 L 176.86624203822 49.53047798066595 L 179.13375796178 43.14017185821692 L 181.40127388535 34.39554242749733 L 183.66878980892 46.503490870032195 L 185.93630573248 48.857814178302874 L 190.47133757962 57.490332975295345 L 192.73885350318 61.41420515574649 L 195.00636942675 81.7062298603652 L 197.27388535032 76.21280880773358 L 199.54140127389 75.31592373791617 L 204.07643312102 85.96643394199788 L 206.34394904459 91.90829752953816 L 208.61146496815 91.01141245972076 L 210.87898089172 89.7781954887218 L 213.14649681529 78.90346401718578 L 217.68152866242 81.48200859291087 L 219.94904458599 77.2218045112782 L 222.21656050955 71.72838345864656 L 224.48407643312 78.67924274973146 L 226.75159235669 84.62110633727173 L 231.28662420382 94.37473147153594 L 233.55414012739 97.51382921589689 L 235.82165605096 107.04323308270676 L 238.08917197452 117.02107948442531 L 240.35668789809 125.20515574650913 L 244.89171974522 129.57747046186893 L 247.15923566879 130.1380236305048 L 249.42675159236 135.85566595059075 L 251.69426751592 133.8376745435016 L 253.96178343949 143.14285714285717 L 258.49681528662 134.6224489795918 L 260.76433121019 131.14701933404942 L 263.03184713376 121.95394736842107 L 265.29936305732 109.28544575725023 L 267.56687898089 105.92212674543504 L 272.10191082803 111.97610096670243 L 274.36942675159 114.21831364124598 L 276.63694267516 110.7428839957036 L 278.90445859873 109.9581095596133 L 281.17197452229 106.81901181525245 L 285.70700636943 107.82800751879697 L 287.97452229299 95.15950590762623 L 290.24203821656 93.47784640171854 L 292.50955414013 97.96227175080554 L 294.77707006369 87.984425349087 L 299.31210191083 90.11452738990336 L 301.57961783439 93.70206766917296 L 303.84713375796 95.72005907626209 L 306.11464968153 91.79618689581095 L 308.3821656051 86.75120837808807 L 312.91719745223 91.23563372717508 L 315.1847133758 91.68407626208374 L 317.45222929936 87.87231471535979 L 319.71974522293 76.54914070891512 L 321.9872611465 69.14983888292157 L 326.52229299363 65.56229860365197 L 328.7898089172 61.07787325456495 L 331.05732484076 53.566460794844204 L 333.32484076433 50.09103114930181 L 335.5923566879 46.27926960257787 L 340.12738853503 46.16715896885066 L 342.3949044586 48.40937164339422 L 344.66242038217 45.38238453276047 L 346.92993630573 44.821831364124606 L 349.1974522293 44.93394199785172 L 353.73248407643 47.17615467239527 L 356 49.306256713211624" class="highcharts-graph" data-z-index="1" visibility="hidden"></path><path d="M 0 37.870972073039724 L 2.2675159235669 38.99207841031145 L 4.5350318471338 46.72771213748652 L 6.8025477707006 51.100026852846426 L 9.0700636942675 51.7726906552094 L 13.605095541401 48.96992481203009 L 15.872611464968 47.400375939849596 L 18.140127388535 39.55263157894731 L 20.407643312102 37.870972073039724 L 22.675159235669 28.565789473684163 L 27.210191082803 24.866138560687432 L 29.477707006369 23.857142857142833 L 31.745222929936 27.668904403866776 L 34.012738853503 48.40937164339422 L 36.28025477707 48.29726100966701 L 40.815286624204 44.373388829215855 L 43.082802547771 37.75886143931251 L 45.350318471338 27.668904403866776 L 47.617834394904 25.875134264231946 L 49.885350318471 34.17132116004291 L 54.420382165605 57.26611170784102 L 56.687898089172 58.8356605800215 L 58.955414012739 56.36922663802362 L 61.222929936306 52.44535445757248 L 63.490445859873 48.521482277121336 L 68.025477707006 46.951933404940846 L 70.292993630573 42.80383995703538 L 72.56050955414 45.606605800214794 L 74.828025477707 41.12218045112779 L 77.095541401274 39.10418904403866 L 81.630573248408 43.028061224489804 L 83.898089171975 52.55746509129969 L 86.165605095541 64.1048603651987 L 88.433121019108 65.33807733619764 L 90.700636942675 59.95676691729322 L 95.235668789809 55.47234156820622 L 97.503184713376 59.50832438238447 L 99.770700636943 54.911788399570355 L 102.03821656051 53.34223952738988 L 104.30573248408 57.37822234156813 L 108.84076433121 55.02389903329747 L 111.10828025478 64.32908163265303 L 113.37579617834 65.22596670247043 L 115.64331210191 71.95260472610099 L 117.91082802548 77.44602577873252 L 122.44585987261 74.19481740064444 L 124.71337579618 70.38305585392051 L 126.98089171975 72.17682599355531 L 129.24840764331 72.51315789473685 L 131.51592356688 66.12285177228783 L 136.05095541401 63.2079752953813 L 138.31847133758 49.64258861439306 L 140.58598726115 52.333243823845265 L 142.85350318471 52.44535445757248 L 145.12101910828 58.723549946294284 L 149.65605095541 63.2079752953813 L 151.92356687898 66.57129430719658 L 154.19108280255 64.66541353383457 L 156.45859872611 65.8986305048335 L 158.72611464968 64.44119226638024 L 163.26114649682 55.13600966702468 L 165.52866242038 54.79967776584314 L 167.79617834395 58.49932867883996 L 170.06369426752 43.36439312567124 L 172.33121019108 41.90695488721798 L 176.86624203822 49.53047798066595 L 179.13375796178 43.14017185821692 L 181.40127388535 34.39554242749733 L 183.66878980892 46.503490870032195 L 185.93630573248 48.857814178302874 L 190.47133757962 57.490332975295345 L 192.73885350318 61.41420515574649 L 195.00636942675 81.7062298603652 L 197.27388535032 76.21280880773358 L 199.54140127389 75.31592373791617 L 204.07643312102 85.96643394199788 L 206.34394904459 91.90829752953816 L 208.61146496815 91.01141245972076 L 210.87898089172 89.7781954887218 L 213.14649681529 78.90346401718578 L 217.68152866242 81.48200859291087 L 219.94904458599 77.2218045112782 L 222.21656050955 71.72838345864656 L 224.48407643312 78.67924274973146 L 226.75159235669 84.62110633727173 L 231.28662420382 94.37473147153594 L 233.55414012739 97.51382921589689 L 235.82165605096 107.04323308270676 L 238.08917197452 117.02107948442531 L 240.35668789809 125.20515574650913 L 244.89171974522 129.57747046186893 L 247.15923566879 130.1380236305048 L 249.42675159236 135.85566595059075 L 251.69426751592 133.8376745435016 L 253.96178343949 143.14285714285717 L 258.49681528662 134.6224489795918 L 260.76433121019 131.14701933404942 L 263.03184713376 121.95394736842107 L 265.29936305732 109.28544575725023 L 267.56687898089 105.92212674543504 L 272.10191082803 111.97610096670243 L 274.36942675159 114.21831364124598 L 276.63694267516 110.7428839957036 L 278.90445859873 109.9581095596133 L 281.17197452229 106.81901181525245 L 285.70700636943 107.82800751879697 L 287.97452229299 95.15950590762623 L 290.24203821656 93.47784640171854 L 292.50955414013 97.96227175080554 L 294.77707006369 87.984425349087 L 299.31210191083 90.11452738990336 L 301.57961783439 93.70206766917296 L 303.84713375796 95.72005907626209 L 306.11464968153 91.79618689581095 L 308.3821656051 86.75120837808807 L 312.91719745223 91.23563372717508 L 315.1847133758 91.68407626208374 L 317.45222929936 87.87231471535979 L 319.71974522293 76.54914070891512 L 321.9872611465 69.14983888292157 L 326.52229299363 65.56229860365197 L 328.7898089172 61.07787325456495 L 331.05732484076 53.566460794844204 L 333.32484076433 50.09103114930181 L 335.5923566879 46.27926960257787 L 340.12738853503 46.16715896885066 L 342.3949044586 48.40937164339422 L 344.66242038217 45.38238453276047 L 346.92993630573 44.821831364124606 L 349.1974522293 44.93394199785172 L 353.73248407643 47.17615467239527 L 356 49.306256713211624" class="highcharts-graph highcharts-zone-graph-0 highcharts-negative" data-z-index="1" clip-path="url(#highcharts-ao037jz-158)"></path><path d="M 0 37.870972073039724 L 2.2675159235669 38.99207841031145 L 4.5350318471338 46.72771213748652 L 6.8025477707006 51.100026852846426 L 9.0700636942675 51.7726906552094 L 13.605095541401 48.96992481203009 L 15.872611464968 47.400375939849596 L 18.140127388535 39.55263157894731 L 20.407643312102 37.870972073039724 L 22.675159235669 28.565789473684163 L 27.210191082803 24.866138560687432 L 29.477707006369 23.857142857142833 L 31.745222929936 27.668904403866776 L 34.012738853503 48.40937164339422 L 36.28025477707 48.29726100966701 L 40.815286624204 44.373388829215855 L 43.082802547771 37.75886143931251 L 45.350318471338 27.668904403866776 L 47.617834394904 25.875134264231946 L 49.885350318471 34.17132116004291 L 54.420382165605 57.26611170784102 L 56.687898089172 58.8356605800215 L 58.955414012739 56.36922663802362 L 61.222929936306 52.44535445757248 L 63.490445859873 48.521482277121336 L 68.025477707006 46.951933404940846 L 70.292993630573 42.80383995703538 L 72.56050955414 45.606605800214794 L 74.828025477707 41.12218045112779 L 77.095541401274 39.10418904403866 L 81.630573248408 43.028061224489804 L 83.898089171975 52.55746509129969 L 86.165605095541 64.1048603651987 L 88.433121019108 65.33807733619764 L 90.700636942675 59.95676691729322 L 95.235668789809 55.47234156820622 L 97.503184713376 59.50832438238447 L 99.770700636943 54.911788399570355 L 102.03821656051 53.34223952738988 L 104.30573248408 57.37822234156813 L 108.84076433121 55.02389903329747 L 111.10828025478 64.32908163265303 L 113.37579617834 65.22596670247043 L 115.64331210191 71.95260472610099 L 117.91082802548 77.44602577873252 L 122.44585987261 74.19481740064444 L 124.71337579618 70.38305585392051 L 126.98089171975 72.17682599355531 L 129.24840764331 72.51315789473685 L 131.51592356688 66.12285177228783 L 136.05095541401 63.2079752953813 L 138.31847133758 49.64258861439306 L 140.58598726115 52.333243823845265 L 142.85350318471 52.44535445757248 L 145.12101910828 58.723549946294284 L 149.65605095541 63.2079752953813 L 151.92356687898 66.57129430719658 L 154.19108280255 64.66541353383457 L 156.45859872611 65.8986305048335 L 158.72611464968 64.44119226638024 L 163.26114649682 55.13600966702468 L 165.52866242038 54.79967776584314 L 167.79617834395 58.49932867883996 L 170.06369426752 43.36439312567124 L 172.33121019108 41.90695488721798 L 176.86624203822 49.53047798066595 L 179.13375796178 43.14017185821692 L 181.40127388535 34.39554242749733 L 183.66878980892 46.503490870032195 L 185.93630573248 48.857814178302874 L 190.47133757962 57.490332975295345 L 192.73885350318 61.41420515574649 L 195.00636942675 81.7062298603652 L 197.27388535032 76.21280880773358 L 199.54140127389 75.31592373791617 L 204.07643312102 85.96643394199788 L 206.34394904459 91.90829752953816 L 208.61146496815 91.01141245972076 L 210.87898089172 89.7781954887218 L 213.14649681529 78.90346401718578 L 217.68152866242 81.48200859291087 L 219.94904458599 77.2218045112782 L 222.21656050955 71.72838345864656 L 224.48407643312 78.67924274973146 L 226.75159235669 84.62110633727173 L 231.28662420382 94.37473147153594 L 233.55414012739 97.51382921589689 L 235.82165605096 107.04323308270676 L 238.08917197452 117.02107948442531 L 240.35668789809 125.20515574650913 L 244.89171974522 129.57747046186893 L 247.15923566879 130.1380236305048 L 249.42675159236 135.85566595059075 L 251.69426751592 133.8376745435016 L 253.96178343949 143.14285714285717 L 258.49681528662 134.6224489795918 L 260.76433121019 131.14701933404942 L 263.03184713376 121.95394736842107 L 265.29936305732 109.28544575725023 L 267.56687898089 105.92212674543504 L 272.10191082803 111.97610096670243 L 274.36942675159 114.21831364124598 L 276.63694267516 110.7428839957036 L 278.90445859873 109.9581095596133 L 281.17197452229 106.81901181525245 L 285.70700636943 107.82800751879697 L 287.97452229299 95.15950590762623 L 290.24203821656 93.47784640171854 L 292.50955414013 97.96227175080554 L 294.77707006369 87.984425349087 L 299.31210191083 90.11452738990336 L 301.57961783439 93.70206766917296 L 303.84713375796 95.72005907626209 L 306.11464968153 91.79618689581095 L 308.3821656051 86.75120837808807 L 312.91719745223 91.23563372717508 L 315.1847133758 91.68407626208374 L 317.45222929936 87.87231471535979 L 319.71974522293 76.54914070891512 L 321.9872611465 69.14983888292157 L 326.52229299363 65.56229860365197 L 328.7898089172 61.07787325456495 L 331.05732484076 53.566460794844204 L 333.32484076433 50.09103114930181 L 335.5923566879 46.27926960257787 L 340.12738853503 46.16715896885066 L 342.3949044586 48.40937164339422 L 344.66242038217 45.38238453276047 L 346.92993630573 44.821831364124606 L 349.1974522293 44.93394199785172 L 353.73248407643 47.17615467239527 L 356 49.306256713211624" class="highcharts-graph highcharts-zone-graph-1 " data-z-index="1" clip-path="url(#highcharts-ao037jz-159)"></path><path d="M -10 37.870972073039724 L 0 37.870972073039724 L 2.2675159235669 38.99207841031145 L 4.5350318471338 46.72771213748652 L 6.8025477707006 51.100026852846426 L 9.0700636942675 51.7726906552094 L 13.605095541401 48.96992481203009 L 15.872611464968 47.400375939849596 L 18.140127388535 39.55263157894731 L 20.407643312102 37.870972073039724 L 22.675159235669 28.565789473684163 L 27.210191082803 24.866138560687432 L 29.477707006369 23.857142857142833 L 31.745222929936 27.668904403866776 L 34.012738853503 48.40937164339422 L 36.28025477707 48.29726100966701 L 40.815286624204 44.373388829215855 L 43.082802547771 37.75886143931251 L 45.350318471338 27.668904403866776 L 47.617834394904 25.875134264231946 L 49.885350318471 34.17132116004291 L 54.420382165605 57.26611170784102 L 56.687898089172 58.8356605800215 L 58.955414012739 56.36922663802362 L 61.222929936306 52.44535445757248 L 63.490445859873 48.521482277121336 L 68.025477707006 46.951933404940846 L 70.292993630573 42.80383995703538 L 72.56050955414 45.606605800214794 L 74.828025477707 41.12218045112779 L 77.095541401274 39.10418904403866 L 81.630573248408 43.028061224489804 L 83.898089171975 52.55746509129969 L 86.165605095541 64.1048603651987 L 88.433121019108 65.33807733619764 L 90.700636942675 59.95676691729322 L 95.235668789809 55.47234156820622 L 97.503184713376 59.50832438238447 L 99.770700636943 54.911788399570355 L 102.03821656051 53.34223952738988 L 104.30573248408 57.37822234156813 L 108.84076433121 55.02389903329747 L 111.10828025478 64.32908163265303 L 113.37579617834 65.22596670247043 L 115.64331210191 71.95260472610099 L 117.91082802548 77.44602577873252 L 122.44585987261 74.19481740064444 L 124.71337579618 70.38305585392051 L 126.98089171975 72.17682599355531 L 129.24840764331 72.51315789473685 L 131.51592356688 66.12285177228783 L 136.05095541401 63.2079752953813 L 138.31847133758 49.64258861439306 L 140.58598726115 52.333243823845265 L 142.85350318471 52.44535445757248 L 145.12101910828 58.723549946294284 L 149.65605095541 63.2079752953813 L 151.92356687898 66.57129430719658 L 154.19108280255 64.66541353383457 L 156.45859872611 65.8986305048335 L 158.72611464968 64.44119226638024 L 163.26114649682 55.13600966702468 L 165.52866242038 54.79967776584314 L 167.79617834395 58.49932867883996 L 170.06369426752 43.36439312567124 L 172.33121019108 41.90695488721798 L 176.86624203822 49.53047798066595 L 179.13375796178 43.14017185821692 L 181.40127388535 34.39554242749733 L 183.66878980892 46.503490870032195 L 185.93630573248 48.857814178302874 L 190.47133757962 57.490332975295345 L 192.73885350318 61.41420515574649 L 195.00636942675 81.7062298603652 L 197.27388535032 76.21280880773358 L 199.54140127389 75.31592373791617 L 204.07643312102 85.96643394199788 L 206.34394904459 91.90829752953816 L 208.61146496815 91.01141245972076 L 210.87898089172 89.7781954887218 L 213.14649681529 78.90346401718578 L 217.68152866242 81.48200859291087 L 219.94904458599 77.2218045112782 L 222.21656050955 71.72838345864656 L 224.48407643312 78.67924274973146 L 226.75159235669 84.62110633727173 L 231.28662420382 94.37473147153594 L 233.55414012739 97.51382921589689 L 235.82165605096 107.04323308270676 L 238.08917197452 117.02107948442531 L 240.35668789809 125.20515574650913 L 244.89171974522 129.57747046186893 L 247.15923566879 130.1380236305048 L 249.42675159236 135.85566595059075 L 251.69426751592 133.8376745435016 L 253.96178343949 143.14285714285717 L 258.49681528662 134.6224489795918 L 260.76433121019 131.14701933404942 L 263.03184713376 121.95394736842107 L 265.29936305732 109.28544575725023 L 267.56687898089 105.92212674543504 L 272.10191082803 111.97610096670243 L 274.36942675159 114.21831364124598 L 276.63694267516 110.7428839957036 L 278.90445859873 109.9581095596133 L 281.17197452229 106.81901181525245 L 285.70700636943 107.82800751879697 L 287.97452229299 95.15950590762623 L 290.24203821656 93.47784640171854 L 292.50955414013 97.96227175080554 L 294.77707006369 87.984425349087 L 299.31210191083 90.11452738990336 L 301.57961783439 93.70206766917296 L 303.84713375796 95.72005907626209 L 306.11464968153 91.79618689581095 L 308.3821656051 86.75120837808807 L 312.91719745223 91.23563372717508 L 315.1847133758 91.68407626208374 L 317.45222929936 87.87231471535979 L 319.71974522293 76.54914070891512 L 321.9872611465 69.14983888292157 L 326.52229299363 65.56229860365197 L 328.7898089172 61.07787325456495 L 331.05732484076 53.566460794844204 L 333.32484076433 50.09103114930181 L 335.5923566879 46.27926960257787 L 340.12738853503 46.16715896885066 L 342.3949044586 48.40937164339422 L 344.66242038217 45.38238453276047 L 346.92993630573 44.821831364124606 L 349.1974522293 44.93394199785172 L 353.73248407643 47.17615467239527 L 356 49.306256713211624 L 366 49.306256713211624" visibility="visible" data-z-index="2" class="highcharts-tracker-line"></path></g><g data-z-index="0.1" class="highcharts-markers highcharts-series-0 highcharts-area-series highcharts-color-0 highcharts-positive highcharts-tracker" transform="translate(1,5) scale(1 1)"></g></g><text x="204" text-anchor="middle" class="highcharts-title" data-z-index="4" y="27"></text><text x="204" text-anchor="middle" class="highcharts-subtitle" data-z-index="4" y="26"></text><g class="highcharts-axis-labels highcharts-xaxis-labels highcharts-nogrid" data-z-index="7"><text x="25.942675159236" text-anchor="middle" transform="translate(0,0)" y="193" opacity="1"><tspan>Jul '23</tspan></text><text x="146.12101910828" text-anchor="middle" transform="translate(0,0)" y="193" opacity="1"><tspan>Sept '23</tspan></text><text x="264.03184713376" text-anchor="middle" transform="translate(0,0)" y="193" opacity="1"><tspan>Nov '23</tspan></text></g><g class="highcharts-axis-labels highcharts-yaxis-labels highcharts-nogrid" data-z-index="7"><text x="397.6579895019531" text-anchor="end" transform="translate(0,0)" y="163" opacity="1"><tspan>13,5</tspan></text><text x="397.6579895019531" text-anchor="end" transform="translate(0,0)" y="135" opacity="1"><tspan>14,0</tspan></text><text x="397.6579895019531" text-anchor="end" transform="translate(0,0)" y="107" opacity="1"><tspan>14,5</tspan></text><text x="397.6579895019531" text-anchor="end" transform="translate(0,0)" y="79" opacity="1"><tspan>15,0</tspan></text><text x="397.6579895019531" text-anchor="end" transform="translate(0,0)" y="51" opacity="1"><tspan>15,5</tspan></text><text x="397.6579895019531" text-anchor="end" transform="translate(0,0)" y="23" opacity="1"><tspan>16,0</tspan></text></g></svg>