<svg version="1.1" class="highcharts-root" xmlns="http://www.w3.org/2000/svg" width="408" height="200" viewBox="0 0 408 200"><desc>Created with Highcharts 7.0.1</desc><defs><style>.highcharts-3d-top{filter: url(#highcharts-brighter)}
.highcharts-3d-side{filter: url(#highcharts-darker)}
</style><filter id="highcharts-darker"><feComponentTransfer><feFuncR type="linear" slope="0.6"></feFuncR><feFuncG type="linear" slope="0.6"></feFuncG><feFuncB type="linear" slope="0.6"></feFuncB></feComponentTransfer></filter><filter id="highcharts-brighter"><feComponentTransfer><feFuncR type="linear" slope="1.4"></feFuncR><feFuncG type="linear" slope="1.4"></feFuncG><feFuncB type="linear" slope="1.4"></feFuncB></feComponentTransfer></filter><clipPath id="highcharts-pcl5je0-43"><rect x="0" y="0" width="367" height="167"></rect></clipPath><clipPath id="highcharts-pcl5je0-177"><rect x="0" y="109" width="408" height="63"></rect></clipPath><clipPath id="highcharts-pcl5je0-178"><rect x="0" y="0" width="408" height="109"></rect></clipPath></defs><rect class="highcharts-background" x="0.5" y="0.5" width="406" height="198" rx="0" ry="0"></rect><rect class="highcharts-plot-background" x="1" y="5" width="367" height="167"></rect><g class="highcharts-pane-group" data-z-index="0"></g><g class="highcharts-plot-lines-0" data-z-index="0"><path class="highcharts-plot-line " d="M 1 114 L 368 114"></path></g><g class="highcharts-grid highcharts-xaxis-grid highcharts-nogrid" data-z-index="1"><path data-z-index="1" class="highcharts-grid-line" d="M 26.5 5 L 26.5 172" opacity="1"></path><path data-z-index="1" class="highcharts-grid-line" d="M 151.5 5 L 151.5 172" opacity="1"></path><path data-z-index="1" class="highcharts-grid-line" d="M 273.5 5 L 273.5 172" opacity="1"></path></g><g class="highcharts-grid highcharts-yaxis-grid highcharts-nogrid" data-z-index="1"><path data-z-index="1" class="highcharts-grid-line" d="M 1 148.5 L 368 148.5" opacity="1"></path><path data-z-index="1" class="highcharts-grid-line" d="M 1 104.5 L 368 104.5" opacity="1"></path><path data-z-index="1" class="highcharts-grid-line" d="M 1 60.5 L 368 60.5" opacity="1"></path><path data-z-index="1" class="highcharts-grid-line" d="M 1 16.5 L 368 16.5" opacity="1"></path></g><rect class="highcharts-plot-border" data-z-index="1" x="0.5" y="4.5" width="368" height="168"></rect><g class="highcharts-axis highcharts-xaxis highcharts-nogrid" data-z-index="2"><path class="highcharts-axis-line" d="M 1 172 L 368 172"></path><path class="highcharts-tick" d="M 27 172 L 27 182" opacity="1"></path><path class="highcharts-tick" d="M 152 172 L 152 182" opacity="1"></path><path class="highcharts-tick" d="M 274 172 L 274 182" opacity="1"></path></g><g class="highcharts-axis highcharts-yaxis highcharts-nogrid" data-z-index="2"><path class="highcharts-axis-line" d="M 368 5 L 368 172"></path></g><g class="highcharts-series-group" data-z-index="3"><g data-z-index="0.1" class="highcharts-series highcharts-series-0 highcharts-area-series highcharts-color-0 highcharts-positive" transform="translate(1,5) scale(1 1)" clip-path="url(#highcharts-pcl5je0-43)"><path d="M 0 118.5388055774796 L 2.3525641025641 121.61431202315181 L 4.7051282051282 127.32596685082876 L 7.0576923076923 131.939226519337 L 9.4102564102564 138.52959747434886 L 14.115384615385 138.09023941068142 L 16.467948717949 136.55248618784532 L 18.820512820513 129.522757169166 L 21.173076923077 134.35569586950808 L 23.525641025641 127.9850039463299 L 28.230769230769 122.05367008681925 L 30.583333333333 105.79742173112342 L 32.935897435897 110.6303604314654 L 35.288461538462 127.10628781899501 L 37.641025641026 125.12917653249147 L 42.346153846154 128.20468297816367 L 44.698717948718 118.31912654564593 L 47.051282051282 106.0171007629571 L 49.403846153846 103.6006314127861 L 51.75641025641 106.45645882662456 L 56.461538461538 111.94843462246774 L 58.814102564103 106.6761378584583 L 61.166666666667 88.66245724809261 L 63.519230769231 90.20021047092871 L 65.871794871795 89.98053143909495 L 70.576923076923 91.51828466193105 L 72.929487179487 90.41988950276247 L 75.282051282051 87.56406208892395 L 77.634615384615 88.44277821625892 L 79.987179487179 93.27571691660091 L 84.692307692308 90.85924756642991 L 87.044871794872 97.22993948960801 L 89.397435897436 102.28255722178376 L 91.75 100.74480399894766 L 94.102564102564 99.20705077611156 L 98.807692307692 101.62352012628256 L 101.16025641026 102.28255722178376 L 103.51282051282 98.54801368061035 L 105.86538461538 91.73796369376481 L 108.21794871795 100.74480399894766 L 112.92307692308 102.06287818995 L 115.27564102564 106.0171007629571 L 117.62820512821 105.79742173112342 L 119.98076923077 111.5090765588003 L 122.33333333333 118.97816364114705 L 127.03846153846 127.32596685082876 L 129.39102564103 119.63720073664825 L 131.74358974359 110.85003946329917 L 134.09615384615 111.72875559063407 L 136.44871794872 112.38779268613527 L 141.15384615385 108.87292817679563 L 143.50641025641 104.03998947645354 L 145.85897435897 102.94159431728497 L 148.21153846154 95.47250723493815 L 150.5641025641 101.40384109444886 L 155.26923076923 101.62352012628256 L 157.62179487179 102.7219152854512 L 159.97435897436 99.86608787161276 L 162.32692307692 102.28255722178376 L 164.67948717949 103.16127334911866 L 169.38461538462 97.88897658510922 L 171.73717948718 102.94159431728497 L 174.08974358974 100.96448303078134 L 176.44230769231 89.10181531176005 L 178.79487179487 97.22993948960801 L 183.5 107.11549592212575 L 185.85256410256 103.6006314127861 L 188.20512820513 94.1544330439358 L 190.55769230769 98.32833464877666 L 192.91025641026 102.28255722178376 L 197.61538461538 103.6006314127861 L 199.96794871795 112.38779268613527 L 202.32051282051 120.51591686398315 L 204.67307692308 122.49302815048671 L 207.02564102564 111.28939752696661 L 211.73076923077 114.5845830044725 L 214.08333333333 125.34885556432522 L 216.4358974359 125.56853459615891 L 218.78846153846 121.83399105498557 L 221.14102564103 118.75848460931337 L 225.84615384615 119.19784267298081 L 228.19871794872 111.06971849513286 L 230.55128205128 107.5548539857932 L 232.90384615385 111.5090765588003 L 235.25641025641 118.5388055774796 L 239.96153846154 116.56169429097605 L 242.3141025641 118.5388055774796 L 244.66666666667 127.10628781899501 L 247.01923076923 136.55248618784532 L 249.37179487179 136.55248618784532 L 254.07692307692 138.9689555380163 L 256.42948717949 135.45409102867666 L 258.78205128205 143.14285714285717 L 261.13461538462 141.82478295185481 L 263.48717948718 138.09023941068142 L 268.19230769231 137.65088134701398 L 270.54487179487 126.88660878716132 L 272.89743589744 123.81110234148912 L 275.25 100.96448303078134 L 277.60256410256 87.34438305709025 L 282.30769230769 99.86608787161276 L 284.66025641026 97.88897658510922 L 287.01282051282 100.96448303078134 L 289.36538461538 93.93475401210212 L 291.71794871795 99.20705077611156 L 296.42307692308 100.5251249671139 L 298.77564102564 70.4290976058932 L 301.12820512821 76.36043146540386 L 303.48076923077 82.07208629308074 L 305.83333333333 73.0652459878979 L 310.53846153846 71.74717179689556 L 312.89102564103 82.29176532491451 L 315.24358974359 75.04235727440144 L 317.59615384615 75.04235727440144 L 319.94871794872 74.82267824256776 L 324.65384615385 70.6487766377269 L 327.00641025641 73.28492501973166 L 329.35897435897 67.353591160221 L 331.71153846154 69.770060510392 L 334.0641025641 58.786108918705594 L 338.76923076923 58.34675085503815 L 341.12179487179 50.21862667719019 L 343.47435897436 45.60536700868188 L 345.82692307692 48.021836358852966 L 348.17948717949 52.195737963693745 L 352.88461538462 48.46119442252041 L 355.23717948718 53.513812154696154 L 357.58974358974 49.99894764535651 L 359.94230769231 23.857142857142833 L 362.29487179487 27.811365430149948 L 367 28.69008155748483 L 367 109.31228624046307 L 362.29487179487 109.31228624046307 L 359.94230769231 109.31228624046307 L 357.58974358974 109.31228624046307 L 355.23717948718 109.31228624046307 L 352.88461538462 109.31228624046307 L 348.17948717949 109.31228624046307 L 345.82692307692 109.31228624046307 L 343.47435897436 109.31228624046307 L 341.12179487179 109.31228624046307 L 338.76923076923 109.31228624046307 L 334.0641025641 109.31228624046307 L 331.71153846154 109.31228624046307 L 329.35897435897 109.31228624046307 L 327.00641025641 109.31228624046307 L 324.65384615385 109.31228624046307 L 319.94871794872 109.31228624046307 L 317.59615384615 109.31228624046307 L 315.24358974359 109.31228624046307 L 312.89102564103 109.31228624046307 L 310.53846153846 109.31228624046307 L 305.83333333333 109.31228624046307 L 303.48076923077 109.31228624046307 L 301.12820512821 109.31228624046307 L 298.77564102564 109.31228624046307 L 296.42307692308 109.31228624046307 L 291.71794871795 109.31228624046307 L 289.36538461538 109.31228624046307 L 287.01282051282 109.31228624046307 L 284.66025641026 109.31228624046307 L 282.30769230769 109.31228624046307 L 277.60256410256 109.31228624046307 L 275.25 109.31228624046307 L 272.89743589744 109.31228624046307 L 270.54487179487 109.31228624046307 L 268.19230769231 109.31228624046307 L 263.48717948718 109.31228624046307 L 261.13461538462 109.31228624046307 L 258.78205128205 109.31228624046307 L 256.42948717949 109.31228624046307 L 254.07692307692 109.31228624046307 L 249.37179487179 109.31228624046307 L 247.01923076923 109.31228624046307 L 244.66666666667 109.31228624046307 L 242.3141025641 109.31228624046307 L 239.96153846154 109.31228624046307 L 235.25641025641 109.31228624046307 L 232.90384615385 109.31228624046307 L 230.55128205128 109.31228624046307 L 228.19871794872 109.31228624046307 L 225.84615384615 109.31228624046307 L 221.14102564103 109.31228624046307 L 218.78846153846 109.31228624046307 L 216.4358974359 109.31228624046307 L 214.08333333333 109.31228624046307 L 211.73076923077 109.31228624046307 L 207.02564102564 109.31228624046307 L 204.67307692308 109.31228624046307 L 202.32051282051 109.31228624046307 L 199.96794871795 109.31228624046307 L 197.61538461538 109.31228624046307 L 192.91025641026 109.31228624046307 L 190.55769230769 109.31228624046307 L 188.20512820513 109.31228624046307 L 185.85256410256 109.31228624046307 L 183.5 109.31228624046307 L 178.79487179487 109.31228624046307 L 176.44230769231 109.31228624046307 L 174.08974358974 109.31228624046307 L 171.73717948718 109.31228624046307 L 169.38461538462 109.31228624046307 L 164.67948717949 109.31228624046307 L 162.32692307692 109.31228624046307 L 159.97435897436 109.31228624046307 L 157.62179487179 109.31228624046307 L 155.26923076923 109.31228624046307 L 150.5641025641 109.31228624046307 L 148.21153846154 109.31228624046307 L 145.85897435897 109.31228624046307 L 143.50641025641 109.31228624046307 L 141.15384615385 109.31228624046307 L 136.44871794872 109.31228624046307 L 134.09615384615 109.31228624046307 L 131.74358974359 109.31228624046307 L 129.39102564103 109.31228624046307 L 127.03846153846 109.31228624046307 L 122.33333333333 109.31228624046307 L 119.98076923077 109.31228624046307 L 117.62820512821 109.31228624046307 L 115.27564102564 109.31228624046307 L 112.92307692308 109.31228624046307 L 108.21794871795 109.31228624046307 L 105.86538461538 109.31228624046307 L 103.51282051282 109.31228624046307 L 101.16025641026 109.31228624046307 L 98.807692307692 109.31228624046307 L 94.102564102564 109.31228624046307 L 91.75 109.31228624046307 L 89.397435897436 109.31228624046307 L 87.044871794872 109.31228624046307 L 84.692307692308 109.31228624046307 L 79.987179487179 109.31228624046307 L 77.634615384615 109.31228624046307 L 75.282051282051 109.31228624046307 L 72.929487179487 109.31228624046307 L 70.576923076923 109.31228624046307 L 65.871794871795 109.31228624046307 L 63.519230769231 109.31228624046307 L 61.166666666667 109.31228624046307 L 58.814102564103 109.31228624046307 L 56.461538461538 109.31228624046307 L 51.75641025641 109.31228624046307 L 49.403846153846 109.31228624046307 L 47.051282051282 109.31228624046307 L 44.698717948718 109.31228624046307 L 42.346153846154 109.31228624046307 L 37.641025641026 109.31228624046307 L 35.288461538462 109.31228624046307 L 32.935897435897 109.31228624046307 L 30.583333333333 109.31228624046307 L 28.230769230769 109.31228624046307 L 23.525641025641 109.31228624046307 L 21.173076923077 109.31228624046307 L 18.820512820513 109.31228624046307 L 16.467948717949 109.31228624046307 L 14.115384615385 109.31228624046307 L 9.4102564102564 109.31228624046307 L 7.0576923076923 109.31228624046307 L 4.7051282051282 109.31228624046307 L 2.3525641025641 109.31228624046307 L 0 109.31228624046307" class="highcharts-area" data-z-index="0" visibility="hidden"></path><path d="M 0 118.5388055774796 L 2.3525641025641 121.61431202315181 L 4.7051282051282 127.32596685082876 L 7.0576923076923 131.939226519337 L 9.4102564102564 138.52959747434886 L 14.115384615385 138.09023941068142 L 16.467948717949 136.55248618784532 L 18.820512820513 129.522757169166 L 21.173076923077 134.35569586950808 L 23.525641025641 127.9850039463299 L 28.230769230769 122.05367008681925 L 30.583333333333 105.79742173112342 L 32.935897435897 110.6303604314654 L 35.288461538462 127.10628781899501 L 37.641025641026 125.12917653249147 L 42.346153846154 128.20468297816367 L 44.698717948718 118.31912654564593 L 47.051282051282 106.0171007629571 L 49.403846153846 103.6006314127861 L 51.75641025641 106.45645882662456 L 56.461538461538 111.94843462246774 L 58.814102564103 106.6761378584583 L 61.166666666667 88.66245724809261 L 63.519230769231 90.20021047092871 L 65.871794871795 89.98053143909495 L 70.576923076923 91.51828466193105 L 72.929487179487 90.41988950276247 L 75.282051282051 87.56406208892395 L 77.634615384615 88.44277821625892 L 79.987179487179 93.27571691660091 L 84.692307692308 90.85924756642991 L 87.044871794872 97.22993948960801 L 89.397435897436 102.28255722178376 L 91.75 100.74480399894766 L 94.102564102564 99.20705077611156 L 98.807692307692 101.62352012628256 L 101.16025641026 102.28255722178376 L 103.51282051282 98.54801368061035 L 105.86538461538 91.73796369376481 L 108.21794871795 100.74480399894766 L 112.92307692308 102.06287818995 L 115.27564102564 106.0171007629571 L 117.62820512821 105.79742173112342 L 119.98076923077 111.5090765588003 L 122.33333333333 118.97816364114705 L 127.03846153846 127.32596685082876 L 129.39102564103 119.63720073664825 L 131.74358974359 110.85003946329917 L 134.09615384615 111.72875559063407 L 136.44871794872 112.38779268613527 L 141.15384615385 108.87292817679563 L 143.50641025641 104.03998947645354 L 145.85897435897 102.94159431728497 L 148.21153846154 95.47250723493815 L 150.5641025641 101.40384109444886 L 155.26923076923 101.62352012628256 L 157.62179487179 102.7219152854512 L 159.97435897436 99.86608787161276 L 162.32692307692 102.28255722178376 L 164.67948717949 103.16127334911866 L 169.38461538462 97.88897658510922 L 171.73717948718 102.94159431728497 L 174.08974358974 100.96448303078134 L 176.44230769231 89.10181531176005 L 178.79487179487 97.22993948960801 L 183.5 107.11549592212575 L 185.85256410256 103.6006314127861 L 188.20512820513 94.1544330439358 L 190.55769230769 98.32833464877666 L 192.91025641026 102.28255722178376 L 197.61538461538 103.6006314127861 L 199.96794871795 112.38779268613527 L 202.32051282051 120.51591686398315 L 204.67307692308 122.49302815048671 L 207.02564102564 111.28939752696661 L 211.73076923077 114.5845830044725 L 214.08333333333 125.34885556432522 L 216.4358974359 125.56853459615891 L 218.78846153846 121.83399105498557 L 221.14102564103 118.75848460931337 L 225.84615384615 119.19784267298081 L 228.19871794872 111.06971849513286 L 230.55128205128 107.5548539857932 L 232.90384615385 111.5090765588003 L 235.25641025641 118.5388055774796 L 239.96153846154 116.56169429097605 L 242.3141025641 118.5388055774796 L 244.66666666667 127.10628781899501 L 247.01923076923 136.55248618784532 L 249.37179487179 136.55248618784532 L 254.07692307692 138.9689555380163 L 256.42948717949 135.45409102867666 L 258.78205128205 143.14285714285717 L 261.13461538462 141.82478295185481 L 263.48717948718 138.09023941068142 L 268.19230769231 137.65088134701398 L 270.54487179487 126.88660878716132 L 272.89743589744 123.81110234148912 L 275.25 100.96448303078134 L 277.60256410256 87.34438305709025 L 282.30769230769 99.86608787161276 L 284.66025641026 97.88897658510922 L 287.01282051282 100.96448303078134 L 289.36538461538 93.93475401210212 L 291.71794871795 99.20705077611156 L 296.42307692308 100.5251249671139 L 298.77564102564 70.4290976058932 L 301.12820512821 76.36043146540386 L 303.48076923077 82.07208629308074 L 305.83333333333 73.0652459878979 L 310.53846153846 71.74717179689556 L 312.89102564103 82.29176532491451 L 315.24358974359 75.04235727440144 L 317.59615384615 75.04235727440144 L 319.94871794872 74.82267824256776 L 324.65384615385 70.6487766377269 L 327.00641025641 73.28492501973166 L 329.35897435897 67.353591160221 L 331.71153846154 69.770060510392 L 334.0641025641 58.786108918705594 L 338.76923076923 58.34675085503815 L 341.12179487179 50.21862667719019 L 343.47435897436 45.60536700868188 L 345.82692307692 48.021836358852966 L 348.17948717949 52.195737963693745 L 352.88461538462 48.46119442252041 L 355.23717948718 53.513812154696154 L 357.58974358974 49.99894764535651 L 359.94230769231 23.857142857142833 L 362.29487179487 27.811365430149948 L 367 28.69008155748483 L 367 109.31228624046307 L 362.29487179487 109.31228624046307 L 359.94230769231 109.31228624046307 L 357.58974358974 109.31228624046307 L 355.23717948718 109.31228624046307 L 352.88461538462 109.31228624046307 L 348.17948717949 109.31228624046307 L 345.82692307692 109.31228624046307 L 343.47435897436 109.31228624046307 L 341.12179487179 109.31228624046307 L 338.76923076923 109.31228624046307 L 334.0641025641 109.31228624046307 L 331.71153846154 109.31228624046307 L 329.35897435897 109.31228624046307 L 327.00641025641 109.31228624046307 L 324.65384615385 109.31228624046307 L 319.94871794872 109.31228624046307 L 317.59615384615 109.31228624046307 L 315.24358974359 109.31228624046307 L 312.89102564103 109.31228624046307 L 310.53846153846 109.31228624046307 L 305.83333333333 109.31228624046307 L 303.48076923077 109.31228624046307 L 301.12820512821 109.31228624046307 L 298.77564102564 109.31228624046307 L 296.42307692308 109.31228624046307 L 291.71794871795 109.31228624046307 L 289.36538461538 109.31228624046307 L 287.01282051282 109.31228624046307 L 284.66025641026 109.31228624046307 L 282.30769230769 109.31228624046307 L 277.60256410256 109.31228624046307 L 275.25 109.31228624046307 L 272.89743589744 109.31228624046307 L 270.54487179487 109.31228624046307 L 268.19230769231 109.31228624046307 L 263.48717948718 109.31228624046307 L 261.13461538462 109.31228624046307 L 258.78205128205 109.31228624046307 L 256.42948717949 109.31228624046307 L 254.07692307692 109.31228624046307 L 249.37179487179 109.31228624046307 L 247.01923076923 109.31228624046307 L 244.66666666667 109.31228624046307 L 242.3141025641 109.31228624046307 L 239.96153846154 109.31228624046307 L 235.25641025641 109.31228624046307 L 232.90384615385 109.31228624046307 L 230.55128205128 109.31228624046307 L 228.19871794872 109.31228624046307 L 225.84615384615 109.31228624046307 L 221.14102564103 109.31228624046307 L 218.78846153846 109.31228624046307 L 216.4358974359 109.31228624046307 L 214.08333333333 109.31228624046307 L 211.73076923077 109.31228624046307 L 207.02564102564 109.31228624046307 L 204.67307692308 109.31228624046307 L 202.32051282051 109.31228624046307 L 199.96794871795 109.31228624046307 L 197.61538461538 109.31228624046307 L 192.91025641026 109.31228624046307 L 190.55769230769 109.31228624046307 L 188.20512820513 109.31228624046307 L 185.85256410256 109.31228624046307 L 183.5 109.31228624046307 L 178.79487179487 109.31228624046307 L 176.44230769231 109.31228624046307 L 174.08974358974 109.31228624046307 L 171.73717948718 109.31228624046307 L 169.38461538462 109.31228624046307 L 164.67948717949 109.31228624046307 L 162.32692307692 109.31228624046307 L 159.97435897436 109.31228624046307 L 157.62179487179 109.31228624046307 L 155.26923076923 109.31228624046307 L 150.5641025641 109.31228624046307 L 148.21153846154 109.31228624046307 L 145.85897435897 109.31228624046307 L 143.50641025641 109.31228624046307 L 141.15384615385 109.31228624046307 L 136.44871794872 109.31228624046307 L 134.09615384615 109.31228624046307 L 131.74358974359 109.31228624046307 L 129.39102564103 109.31228624046307 L 127.03846153846 109.31228624046307 L 122.33333333333 109.31228624046307 L 119.98076923077 109.31228624046307 L 117.62820512821 109.31228624046307 L 115.27564102564 109.31228624046307 L 112.92307692308 109.31228624046307 L 108.21794871795 109.31228624046307 L 105.86538461538 109.31228624046307 L 103.51282051282 109.31228624046307 L 101.16025641026 109.31228624046307 L 98.807692307692 109.31228624046307 L 94.102564102564 109.31228624046307 L 91.75 109.31228624046307 L 89.397435897436 109.31228624046307 L 87.044871794872 109.31228624046307 L 84.692307692308 109.31228624046307 L 79.987179487179 109.31228624046307 L 77.634615384615 109.31228624046307 L 75.282051282051 109.31228624046307 L 72.929487179487 109.31228624046307 L 70.576923076923 109.31228624046307 L 65.871794871795 109.31228624046307 L 63.519230769231 109.31228624046307 L 61.166666666667 109.31228624046307 L 58.814102564103 109.31228624046307 L 56.461538461538 109.31228624046307 L 51.75641025641 109.31228624046307 L 49.403846153846 109.31228624046307 L 47.051282051282 109.31228624046307 L 44.698717948718 109.31228624046307 L 42.346153846154 109.31228624046307 L 37.641025641026 109.31228624046307 L 35.288461538462 109.31228624046307 L 32.935897435897 109.31228624046307 L 30.583333333333 109.31228624046307 L 28.230769230769 109.31228624046307 L 23.525641025641 109.31228624046307 L 21.173076923077 109.31228624046307 L 18.820512820513 109.31228624046307 L 16.467948717949 109.31228624046307 L 14.115384615385 109.31228624046307 L 9.4102564102564 109.31228624046307 L 7.0576923076923 109.31228624046307 L 4.7051282051282 109.31228624046307 L 2.3525641025641 109.31228624046307 L 0 109.31228624046307" class="highcharts-area highcharts-zone-area-0 highcharts-negative" data-z-index="0" clip-path="url(#highcharts-pcl5je0-177)"></path><path d="M 0 118.5388055774796 L 2.3525641025641 121.61431202315181 L 4.7051282051282 127.32596685082876 L 7.0576923076923 131.939226519337 L 9.4102564102564 138.52959747434886 L 14.115384615385 138.09023941068142 L 16.467948717949 136.55248618784532 L 18.820512820513 129.522757169166 L 21.173076923077 134.35569586950808 L 23.525641025641 127.9850039463299 L 28.230769230769 122.05367008681925 L 30.583333333333 105.79742173112342 L 32.935897435897 110.6303604314654 L 35.288461538462 127.10628781899501 L 37.641025641026 125.12917653249147 L 42.346153846154 128.20468297816367 L 44.698717948718 118.31912654564593 L 47.051282051282 106.0171007629571 L 49.403846153846 103.6006314127861 L 51.75641025641 106.45645882662456 L 56.461538461538 111.94843462246774 L 58.814102564103 106.6761378584583 L 61.166666666667 88.66245724809261 L 63.519230769231 90.20021047092871 L 65.871794871795 89.98053143909495 L 70.576923076923 91.51828466193105 L 72.929487179487 90.41988950276247 L 75.282051282051 87.56406208892395 L 77.634615384615 88.44277821625892 L 79.987179487179 93.27571691660091 L 84.692307692308 90.85924756642991 L 87.044871794872 97.22993948960801 L 89.397435897436 102.28255722178376 L 91.75 100.74480399894766 L 94.102564102564 99.20705077611156 L 98.807692307692 101.62352012628256 L 101.16025641026 102.28255722178376 L 103.51282051282 98.54801368061035 L 105.86538461538 91.73796369376481 L 108.21794871795 100.74480399894766 L 112.92307692308 102.06287818995 L 115.27564102564 106.0171007629571 L 117.62820512821 105.79742173112342 L 119.98076923077 111.5090765588003 L 122.33333333333 118.97816364114705 L 127.03846153846 127.32596685082876 L 129.39102564103 119.63720073664825 L 131.74358974359 110.85003946329917 L 134.09615384615 111.72875559063407 L 136.44871794872 112.38779268613527 L 141.15384615385 108.87292817679563 L 143.50641025641 104.03998947645354 L 145.85897435897 102.94159431728497 L 148.21153846154 95.47250723493815 L 150.5641025641 101.40384109444886 L 155.26923076923 101.62352012628256 L 157.62179487179 102.7219152854512 L 159.97435897436 99.86608787161276 L 162.32692307692 102.28255722178376 L 164.67948717949 103.16127334911866 L 169.38461538462 97.88897658510922 L 171.73717948718 102.94159431728497 L 174.08974358974 100.96448303078134 L 176.44230769231 89.10181531176005 L 178.79487179487 97.22993948960801 L 183.5 107.11549592212575 L 185.85256410256 103.6006314127861 L 188.20512820513 94.1544330439358 L 190.55769230769 98.32833464877666 L 192.91025641026 102.28255722178376 L 197.61538461538 103.6006314127861 L 199.96794871795 112.38779268613527 L 202.32051282051 120.51591686398315 L 204.67307692308 122.49302815048671 L 207.02564102564 111.28939752696661 L 211.73076923077 114.5845830044725 L 214.08333333333 125.34885556432522 L 216.4358974359 125.56853459615891 L 218.78846153846 121.83399105498557 L 221.14102564103 118.75848460931337 L 225.84615384615 119.19784267298081 L 228.19871794872 111.06971849513286 L 230.55128205128 107.5548539857932 L 232.90384615385 111.5090765588003 L 235.25641025641 118.5388055774796 L 239.96153846154 116.56169429097605 L 242.3141025641 118.5388055774796 L 244.66666666667 127.10628781899501 L 247.01923076923 136.55248618784532 L 249.37179487179 136.55248618784532 L 254.07692307692 138.9689555380163 L 256.42948717949 135.45409102867666 L 258.78205128205 143.14285714285717 L 261.13461538462 141.82478295185481 L 263.48717948718 138.09023941068142 L 268.19230769231 137.65088134701398 L 270.54487179487 126.88660878716132 L 272.89743589744 123.81110234148912 L 275.25 100.96448303078134 L 277.60256410256 87.34438305709025 L 282.30769230769 99.86608787161276 L 284.66025641026 97.88897658510922 L 287.01282051282 100.96448303078134 L 289.36538461538 93.93475401210212 L 291.71794871795 99.20705077611156 L 296.42307692308 100.5251249671139 L 298.77564102564 70.4290976058932 L 301.12820512821 76.36043146540386 L 303.48076923077 82.07208629308074 L 305.83333333333 73.0652459878979 L 310.53846153846 71.74717179689556 L 312.89102564103 82.29176532491451 L 315.24358974359 75.04235727440144 L 317.59615384615 75.04235727440144 L 319.94871794872 74.82267824256776 L 324.65384615385 70.6487766377269 L 327.00641025641 73.28492501973166 L 329.35897435897 67.353591160221 L 331.71153846154 69.770060510392 L 334.0641025641 58.786108918705594 L 338.76923076923 58.34675085503815 L 341.12179487179 50.21862667719019 L 343.47435897436 45.60536700868188 L 345.82692307692 48.021836358852966 L 348.17948717949 52.195737963693745 L 352.88461538462 48.46119442252041 L 355.23717948718 53.513812154696154 L 357.58974358974 49.99894764535651 L 359.94230769231 23.857142857142833 L 362.29487179487 27.811365430149948 L 367 28.69008155748483 L 367 109.31228624046307 L 362.29487179487 109.31228624046307 L 359.94230769231 109.31228624046307 L 357.58974358974 109.31228624046307 L 355.23717948718 109.31228624046307 L 352.88461538462 109.31228624046307 L 348.17948717949 109.31228624046307 L 345.82692307692 109.31228624046307 L 343.47435897436 109.31228624046307 L 341.12179487179 109.31228624046307 L 338.76923076923 109.31228624046307 L 334.0641025641 109.31228624046307 L 331.71153846154 109.31228624046307 L 329.35897435897 109.31228624046307 L 327.00641025641 109.31228624046307 L 324.65384615385 109.31228624046307 L 319.94871794872 109.31228624046307 L 317.59615384615 109.31228624046307 L 315.24358974359 109.31228624046307 L 312.89102564103 109.31228624046307 L 310.53846153846 109.31228624046307 L 305.83333333333 109.31228624046307 L 303.48076923077 109.31228624046307 L 301.12820512821 109.31228624046307 L 298.77564102564 109.31228624046307 L 296.42307692308 109.31228624046307 L 291.71794871795 109.31228624046307 L 289.36538461538 109.31228624046307 L 287.01282051282 109.31228624046307 L 284.66025641026 109.31228624046307 L 282.30769230769 109.31228624046307 L 277.60256410256 109.31228624046307 L 275.25 109.31228624046307 L 272.89743589744 109.31228624046307 L 270.54487179487 109.31228624046307 L 268.19230769231 109.31228624046307 L 263.48717948718 109.31228624046307 L 261.13461538462 109.31228624046307 L 258.78205128205 109.31228624046307 L 256.42948717949 109.31228624046307 L 254.07692307692 109.31228624046307 L 249.37179487179 109.31228624046307 L 247.01923076923 109.31228624046307 L 244.66666666667 109.31228624046307 L 242.3141025641 109.31228624046307 L 239.96153846154 109.31228624046307 L 235.25641025641 109.31228624046307 L 232.90384615385 109.31228624046307 L 230.55128205128 109.31228624046307 L 228.19871794872 109.31228624046307 L 225.84615384615 109.31228624046307 L 221.14102564103 109.31228624046307 L 218.78846153846 109.31228624046307 L 216.4358974359 109.31228624046307 L 214.08333333333 109.31228624046307 L 211.73076923077 109.31228624046307 L 207.02564102564 109.31228624046307 L 204.67307692308 109.31228624046307 L 202.32051282051 109.31228624046307 L 199.96794871795 109.31228624046307 L 197.61538461538 109.31228624046307 L 192.91025641026 109.31228624046307 L 190.55769230769 109.31228624046307 L 188.20512820513 109.31228624046307 L 185.85256410256 109.31228624046307 L 183.5 109.31228624046307 L 178.79487179487 109.31228624046307 L 176.44230769231 109.31228624046307 L 174.08974358974 109.31228624046307 L 171.73717948718 109.31228624046307 L 169.38461538462 109.31228624046307 L 164.67948717949 109.31228624046307 L 162.32692307692 109.31228624046307 L 159.97435897436 109.31228624046307 L 157.62179487179 109.31228624046307 L 155.26923076923 109.31228624046307 L 150.5641025641 109.31228624046307 L 148.21153846154 109.31228624046307 L 145.85897435897 109.31228624046307 L 143.50641025641 109.31228624046307 L 141.15384615385 109.31228624046307 L 136.44871794872 109.31228624046307 L 134.09615384615 109.31228624046307 L 131.74358974359 109.31228624046307 L 129.39102564103 109.31228624046307 L 127.03846153846 109.31228624046307 L 122.33333333333 109.31228624046307 L 119.98076923077 109.31228624046307 L 117.62820512821 109.31228624046307 L 115.27564102564 109.31228624046307 L 112.92307692308 109.31228624046307 L 108.21794871795 109.31228624046307 L 105.86538461538 109.31228624046307 L 103.51282051282 109.31228624046307 L 101.16025641026 109.31228624046307 L 98.807692307692 109.31228624046307 L 94.102564102564 109.31228624046307 L 91.75 109.31228624046307 L 89.397435897436 109.31228624046307 L 87.044871794872 109.31228624046307 L 84.692307692308 109.31228624046307 L 79.987179487179 109.31228624046307 L 77.634615384615 109.31228624046307 L 75.282051282051 109.31228624046307 L 72.929487179487 109.31228624046307 L 70.576923076923 109.31228624046307 L 65.871794871795 109.31228624046307 L 63.519230769231 109.31228624046307 L 61.166666666667 109.31228624046307 L 58.814102564103 109.31228624046307 L 56.461538461538 109.31228624046307 L 51.75641025641 109.31228624046307 L 49.403846153846 109.31228624046307 L 47.051282051282 109.31228624046307 L 44.698717948718 109.31228624046307 L 42.346153846154 109.31228624046307 L 37.641025641026 109.31228624046307 L 35.288461538462 109.31228624046307 L 32.935897435897 109.31228624046307 L 30.583333333333 109.31228624046307 L 28.230769230769 109.31228624046307 L 23.525641025641 109.31228624046307 L 21.173076923077 109.31228624046307 L 18.820512820513 109.31228624046307 L 16.467948717949 109.31228624046307 L 14.115384615385 109.31228624046307 L 9.4102564102564 109.31228624046307 L 7.0576923076923 109.31228624046307 L 4.7051282051282 109.31228624046307 L 2.3525641025641 109.31228624046307 L 0 109.31228624046307" class="highcharts-area highcharts-zone-area-1 undefined" data-z-index="0" clip-path="url(#highcharts-pcl5je0-178)"></path><path d="M 0 118.5388055774796 L 2.3525641025641 121.61431202315181 L 4.7051282051282 127.32596685082876 L 7.0576923076923 131.939226519337 L 9.4102564102564 138.52959747434886 L 14.115384615385 138.09023941068142 L 16.467948717949 136.55248618784532 L 18.820512820513 129.522757169166 L 21.173076923077 134.35569586950808 L 23.525641025641 127.9850039463299 L 28.230769230769 122.05367008681925 L 30.583333333333 105.79742173112342 L 32.935897435897 110.6303604314654 L 35.288461538462 127.10628781899501 L 37.641025641026 125.12917653249147 L 42.346153846154 128.20468297816367 L 44.698717948718 118.31912654564593 L 47.051282051282 106.0171007629571 L 49.403846153846 103.6006314127861 L 51.75641025641 106.45645882662456 L 56.461538461538 111.94843462246774 L 58.814102564103 106.6761378584583 L 61.166666666667 88.66245724809261 L 63.519230769231 90.20021047092871 L 65.871794871795 89.98053143909495 L 70.576923076923 91.51828466193105 L 72.929487179487 90.41988950276247 L 75.282051282051 87.56406208892395 L 77.634615384615 88.44277821625892 L 79.987179487179 93.27571691660091 L 84.692307692308 90.85924756642991 L 87.044871794872 97.22993948960801 L 89.397435897436 102.28255722178376 L 91.75 100.74480399894766 L 94.102564102564 99.20705077611156 L 98.807692307692 101.62352012628256 L 101.16025641026 102.28255722178376 L 103.51282051282 98.54801368061035 L 105.86538461538 91.73796369376481 L 108.21794871795 100.74480399894766 L 112.92307692308 102.06287818995 L 115.27564102564 106.0171007629571 L 117.62820512821 105.79742173112342 L 119.98076923077 111.5090765588003 L 122.33333333333 118.97816364114705 L 127.03846153846 127.32596685082876 L 129.39102564103 119.63720073664825 L 131.74358974359 110.85003946329917 L 134.09615384615 111.72875559063407 L 136.44871794872 112.38779268613527 L 141.15384615385 108.87292817679563 L 143.50641025641 104.03998947645354 L 145.85897435897 102.94159431728497 L 148.21153846154 95.47250723493815 L 150.5641025641 101.40384109444886 L 155.26923076923 101.62352012628256 L 157.62179487179 102.7219152854512 L 159.97435897436 99.86608787161276 L 162.32692307692 102.28255722178376 L 164.67948717949 103.16127334911866 L 169.38461538462 97.88897658510922 L 171.73717948718 102.94159431728497 L 174.08974358974 100.96448303078134 L 176.44230769231 89.10181531176005 L 178.79487179487 97.22993948960801 L 183.5 107.11549592212575 L 185.85256410256 103.6006314127861 L 188.20512820513 94.1544330439358 L 190.55769230769 98.32833464877666 L 192.91025641026 102.28255722178376 L 197.61538461538 103.6006314127861 L 199.96794871795 112.38779268613527 L 202.32051282051 120.51591686398315 L 204.67307692308 122.49302815048671 L 207.02564102564 111.28939752696661 L 211.73076923077 114.5845830044725 L 214.08333333333 125.34885556432522 L 216.4358974359 125.56853459615891 L 218.78846153846 121.83399105498557 L 221.14102564103 118.75848460931337 L 225.84615384615 119.19784267298081 L 228.19871794872 111.06971849513286 L 230.55128205128 107.5548539857932 L 232.90384615385 111.5090765588003 L 235.25641025641 118.5388055774796 L 239.96153846154 116.56169429097605 L 242.3141025641 118.5388055774796 L 244.66666666667 127.10628781899501 L 247.01923076923 136.55248618784532 L 249.37179487179 136.55248618784532 L 254.07692307692 138.9689555380163 L 256.42948717949 135.45409102867666 L 258.78205128205 143.14285714285717 L 261.13461538462 141.82478295185481 L 263.48717948718 138.09023941068142 L 268.19230769231 137.65088134701398 L 270.54487179487 126.88660878716132 L 272.89743589744 123.81110234148912 L 275.25 100.96448303078134 L 277.60256410256 87.34438305709025 L 282.30769230769 99.86608787161276 L 284.66025641026 97.88897658510922 L 287.01282051282 100.96448303078134 L 289.36538461538 93.93475401210212 L 291.71794871795 99.20705077611156 L 296.42307692308 100.5251249671139 L 298.77564102564 70.4290976058932 L 301.12820512821 76.36043146540386 L 303.48076923077 82.07208629308074 L 305.83333333333 73.0652459878979 L 310.53846153846 71.74717179689556 L 312.89102564103 82.29176532491451 L 315.24358974359 75.04235727440144 L 317.59615384615 75.04235727440144 L 319.94871794872 74.82267824256776 L 324.65384615385 70.6487766377269 L 327.00641025641 73.28492501973166 L 329.35897435897 67.353591160221 L 331.71153846154 69.770060510392 L 334.0641025641 58.786108918705594 L 338.76923076923 58.34675085503815 L 341.12179487179 50.21862667719019 L 343.47435897436 45.60536700868188 L 345.82692307692 48.021836358852966 L 348.17948717949 52.195737963693745 L 352.88461538462 48.46119442252041 L 355.23717948718 53.513812154696154 L 357.58974358974 49.99894764535651 L 359.94230769231 23.857142857142833 L 362.29487179487 27.811365430149948 L 367 28.69008155748483" class="highcharts-graph" data-z-index="1" visibility="hidden"></path><path d="M 0 118.5388055774796 L 2.3525641025641 121.61431202315181 L 4.7051282051282 127.32596685082876 L 7.0576923076923 131.939226519337 L 9.4102564102564 138.52959747434886 L 14.115384615385 138.09023941068142 L 16.467948717949 136.55248618784532 L 18.820512820513 129.522757169166 L 21.173076923077 134.35569586950808 L 23.525641025641 127.9850039463299 L 28.230769230769 122.05367008681925 L 30.583333333333 105.79742173112342 L 32.935897435897 110.6303604314654 L 35.288461538462 127.10628781899501 L 37.641025641026 125.12917653249147 L 42.346153846154 128.20468297816367 L 44.698717948718 118.31912654564593 L 47.051282051282 106.0171007629571 L 49.403846153846 103.6006314127861 L 51.75641025641 106.45645882662456 L 56.461538461538 111.94843462246774 L 58.814102564103 106.6761378584583 L 61.166666666667 88.66245724809261 L 63.519230769231 90.20021047092871 L 65.871794871795 89.98053143909495 L 70.576923076923 91.51828466193105 L 72.929487179487 90.41988950276247 L 75.282051282051 87.56406208892395 L 77.634615384615 88.44277821625892 L 79.987179487179 93.27571691660091 L 84.692307692308 90.85924756642991 L 87.044871794872 97.22993948960801 L 89.397435897436 102.28255722178376 L 91.75 100.74480399894766 L 94.102564102564 99.20705077611156 L 98.807692307692 101.62352012628256 L 101.16025641026 102.28255722178376 L 103.51282051282 98.54801368061035 L 105.86538461538 91.73796369376481 L 108.21794871795 100.74480399894766 L 112.92307692308 102.06287818995 L 115.27564102564 106.0171007629571 L 117.62820512821 105.79742173112342 L 119.98076923077 111.5090765588003 L 122.33333333333 118.97816364114705 L 127.03846153846 127.32596685082876 L 129.39102564103 119.63720073664825 L 131.74358974359 110.85003946329917 L 134.09615384615 111.72875559063407 L 136.44871794872 112.38779268613527 L 141.15384615385 108.87292817679563 L 143.50641025641 104.03998947645354 L 145.85897435897 102.94159431728497 L 148.21153846154 95.47250723493815 L 150.5641025641 101.40384109444886 L 155.26923076923 101.62352012628256 L 157.62179487179 102.7219152854512 L 159.97435897436 99.86608787161276 L 162.32692307692 102.28255722178376 L 164.67948717949 103.16127334911866 L 169.38461538462 97.88897658510922 L 171.73717948718 102.94159431728497 L 174.08974358974 100.96448303078134 L 176.44230769231 89.10181531176005 L 178.79487179487 97.22993948960801 L 183.5 107.11549592212575 L 185.85256410256 103.6006314127861 L 188.20512820513 94.1544330439358 L 190.55769230769 98.32833464877666 L 192.91025641026 102.28255722178376 L 197.61538461538 103.6006314127861 L 199.96794871795 112.38779268613527 L 202.32051282051 120.51591686398315 L 204.67307692308 122.49302815048671 L 207.02564102564 111.28939752696661 L 211.73076923077 114.5845830044725 L 214.08333333333 125.34885556432522 L 216.4358974359 125.56853459615891 L 218.78846153846 121.83399105498557 L 221.14102564103 118.75848460931337 L 225.84615384615 119.19784267298081 L 228.19871794872 111.06971849513286 L 230.55128205128 107.5548539857932 L 232.90384615385 111.5090765588003 L 235.25641025641 118.5388055774796 L 239.96153846154 116.56169429097605 L 242.3141025641 118.5388055774796 L 244.66666666667 127.10628781899501 L 247.01923076923 136.55248618784532 L 249.37179487179 136.55248618784532 L 254.07692307692 138.9689555380163 L 256.42948717949 135.45409102867666 L 258.78205128205 143.14285714285717 L 261.13461538462 141.82478295185481 L 263.48717948718 138.09023941068142 L 268.19230769231 137.65088134701398 L 270.54487179487 126.88660878716132 L 272.89743589744 123.81110234148912 L 275.25 100.96448303078134 L 277.60256410256 87.34438305709025 L 282.30769230769 99.86608787161276 L 284.66025641026 97.88897658510922 L 287.01282051282 100.96448303078134 L 289.36538461538 93.93475401210212 L 291.71794871795 99.20705077611156 L 296.42307692308 100.5251249671139 L 298.77564102564 70.4290976058932 L 301.12820512821 76.36043146540386 L 303.48076923077 82.07208629308074 L 305.83333333333 73.0652459878979 L 310.53846153846 71.74717179689556 L 312.89102564103 82.29176532491451 L 315.24358974359 75.04235727440144 L 317.59615384615 75.04235727440144 L 319.94871794872 74.82267824256776 L 324.65384615385 70.6487766377269 L 327.00641025641 73.28492501973166 L 329.35897435897 67.353591160221 L 331.71153846154 69.770060510392 L 334.0641025641 58.786108918705594 L 338.76923076923 58.34675085503815 L 341.12179487179 50.21862667719019 L 343.47435897436 45.60536700868188 L 345.82692307692 48.021836358852966 L 348.17948717949 52.195737963693745 L 352.88461538462 48.46119442252041 L 355.23717948718 53.513812154696154 L 357.58974358974 49.99894764535651 L 359.94230769231 23.857142857142833 L 362.29487179487 27.811365430149948 L 367 28.69008155748483" class="highcharts-graph highcharts-zone-graph-0 highcharts-negative" data-z-index="1" clip-path="url(#highcharts-pcl5je0-177)"></path><path d="M 0 118.5388055774796 L 2.3525641025641 121.61431202315181 L 4.7051282051282 127.32596685082876 L 7.0576923076923 131.939226519337 L 9.4102564102564 138.52959747434886 L 14.115384615385 138.09023941068142 L 16.467948717949 136.55248618784532 L 18.820512820513 129.522757169166 L 21.173076923077 134.35569586950808 L 23.525641025641 127.9850039463299 L 28.230769230769 122.05367008681925 L 30.583333333333 105.79742173112342 L 32.935897435897 110.6303604314654 L 35.288461538462 127.10628781899501 L 37.641025641026 125.12917653249147 L 42.346153846154 128.20468297816367 L 44.698717948718 118.31912654564593 L 47.051282051282 106.0171007629571 L 49.403846153846 103.6006314127861 L 51.75641025641 106.45645882662456 L 56.461538461538 111.94843462246774 L 58.814102564103 106.6761378584583 L 61.166666666667 88.66245724809261 L 63.519230769231 90.20021047092871 L 65.871794871795 89.98053143909495 L 70.576923076923 91.51828466193105 L 72.929487179487 90.41988950276247 L 75.282051282051 87.56406208892395 L 77.634615384615 88.44277821625892 L 79.987179487179 93.27571691660091 L 84.692307692308 90.85924756642991 L 87.044871794872 97.22993948960801 L 89.397435897436 102.28255722178376 L 91.75 100.74480399894766 L 94.102564102564 99.20705077611156 L 98.807692307692 101.62352012628256 L 101.16025641026 102.28255722178376 L 103.51282051282 98.54801368061035 L 105.86538461538 91.73796369376481 L 108.21794871795 100.74480399894766 L 112.92307692308 102.06287818995 L 115.27564102564 106.0171007629571 L 117.62820512821 105.79742173112342 L 119.98076923077 111.5090765588003 L 122.33333333333 118.97816364114705 L 127.03846153846 127.32596685082876 L 129.39102564103 119.63720073664825 L 131.74358974359 110.85003946329917 L 134.09615384615 111.72875559063407 L 136.44871794872 112.38779268613527 L 141.15384615385 108.87292817679563 L 143.50641025641 104.03998947645354 L 145.85897435897 102.94159431728497 L 148.21153846154 95.47250723493815 L 150.5641025641 101.40384109444886 L 155.26923076923 101.62352012628256 L 157.62179487179 102.7219152854512 L 159.97435897436 99.86608787161276 L 162.32692307692 102.28255722178376 L 164.67948717949 103.16127334911866 L 169.38461538462 97.88897658510922 L 171.73717948718 102.94159431728497 L 174.08974358974 100.96448303078134 L 176.44230769231 89.10181531176005 L 178.79487179487 97.22993948960801 L 183.5 107.11549592212575 L 185.85256410256 103.6006314127861 L 188.20512820513 94.1544330439358 L 190.55769230769 98.32833464877666 L 192.91025641026 102.28255722178376 L 197.61538461538 103.6006314127861 L 199.96794871795 112.38779268613527 L 202.32051282051 120.51591686398315 L 204.67307692308 122.49302815048671 L 207.02564102564 111.28939752696661 L 211.73076923077 114.5845830044725 L 214.08333333333 125.34885556432522 L 216.4358974359 125.56853459615891 L 218.78846153846 121.83399105498557 L 221.14102564103 118.75848460931337 L 225.84615384615 119.19784267298081 L 228.19871794872 111.06971849513286 L 230.55128205128 107.5548539857932 L 232.90384615385 111.5090765588003 L 235.25641025641 118.5388055774796 L 239.96153846154 116.56169429097605 L 242.3141025641 118.5388055774796 L 244.66666666667 127.10628781899501 L 247.01923076923 136.55248618784532 L 249.37179487179 136.55248618784532 L 254.07692307692 138.9689555380163 L 256.42948717949 135.45409102867666 L 258.78205128205 143.14285714285717 L 261.13461538462 141.82478295185481 L 263.48717948718 138.09023941068142 L 268.19230769231 137.65088134701398 L 270.54487179487 126.88660878716132 L 272.89743589744 123.81110234148912 L 275.25 100.96448303078134 L 277.60256410256 87.34438305709025 L 282.30769230769 99.86608787161276 L 284.66025641026 97.88897658510922 L 287.01282051282 100.96448303078134 L 289.36538461538 93.93475401210212 L 291.71794871795 99.20705077611156 L 296.42307692308 100.5251249671139 L 298.77564102564 70.4290976058932 L 301.12820512821 76.36043146540386 L 303.48076923077 82.07208629308074 L 305.83333333333 73.0652459878979 L 310.53846153846 71.74717179689556 L 312.89102564103 82.29176532491451 L 315.24358974359 75.04235727440144 L 317.59615384615 75.04235727440144 L 319.94871794872 74.82267824256776 L 324.65384615385 70.6487766377269 L 327.00641025641 73.28492501973166 L 329.35897435897 67.353591160221 L 331.71153846154 69.770060510392 L 334.0641025641 58.786108918705594 L 338.76923076923 58.34675085503815 L 341.12179487179 50.21862667719019 L 343.47435897436 45.60536700868188 L 345.82692307692 48.021836358852966 L 348.17948717949 52.195737963693745 L 352.88461538462 48.46119442252041 L 355.23717948718 53.513812154696154 L 357.58974358974 49.99894764535651 L 359.94230769231 23.857142857142833 L 362.29487179487 27.811365430149948 L 367 28.69008155748483" class="highcharts-graph highcharts-zone-graph-1 " data-z-index="1" clip-path="url(#highcharts-pcl5je0-178)"></path><path d="M -10 118.5388055774796 L 0 118.5388055774796 L 2.3525641025641 121.61431202315181 L 4.7051282051282 127.32596685082876 L 7.0576923076923 131.939226519337 L 9.4102564102564 138.52959747434886 L 14.115384615385 138.09023941068142 L 16.467948717949 136.55248618784532 L 18.820512820513 129.522757169166 L 21.173076923077 134.35569586950808 L 23.525641025641 127.9850039463299 L 28.230769230769 122.05367008681925 L 30.583333333333 105.79742173112342 L 32.935897435897 110.6303604314654 L 35.288461538462 127.10628781899501 L 37.641025641026 125.12917653249147 L 42.346153846154 128.20468297816367 L 44.698717948718 118.31912654564593 L 47.051282051282 106.0171007629571 L 49.403846153846 103.6006314127861 L 51.75641025641 106.45645882662456 L 56.461538461538 111.94843462246774 L 58.814102564103 106.6761378584583 L 61.166666666667 88.66245724809261 L 63.519230769231 90.20021047092871 L 65.871794871795 89.98053143909495 L 70.576923076923 91.51828466193105 L 72.929487179487 90.41988950276247 L 75.282051282051 87.56406208892395 L 77.634615384615 88.44277821625892 L 79.987179487179 93.27571691660091 L 84.692307692308 90.85924756642991 L 87.044871794872 97.22993948960801 L 89.397435897436 102.28255722178376 L 91.75 100.74480399894766 L 94.102564102564 99.20705077611156 L 98.807692307692 101.62352012628256 L 101.16025641026 102.28255722178376 L 103.51282051282 98.54801368061035 L 105.86538461538 91.73796369376481 L 108.21794871795 100.74480399894766 L 112.92307692308 102.06287818995 L 115.27564102564 106.0171007629571 L 117.62820512821 105.79742173112342 L 119.98076923077 111.5090765588003 L 122.33333333333 118.97816364114705 L 127.03846153846 127.32596685082876 L 129.39102564103 119.63720073664825 L 131.74358974359 110.85003946329917 L 134.09615384615 111.72875559063407 L 136.44871794872 112.38779268613527 L 141.15384615385 108.87292817679563 L 143.50641025641 104.03998947645354 L 145.85897435897 102.94159431728497 L 148.21153846154 95.47250723493815 L 150.5641025641 101.40384109444886 L 155.26923076923 101.62352012628256 L 157.62179487179 102.7219152854512 L 159.97435897436 99.86608787161276 L 162.32692307692 102.28255722178376 L 164.67948717949 103.16127334911866 L 169.38461538462 97.88897658510922 L 171.73717948718 102.94159431728497 L 174.08974358974 100.96448303078134 L 176.44230769231 89.10181531176005 L 178.79487179487 97.22993948960801 L 183.5 107.11549592212575 L 185.85256410256 103.6006314127861 L 188.20512820513 94.1544330439358 L 190.55769230769 98.32833464877666 L 192.91025641026 102.28255722178376 L 197.61538461538 103.6006314127861 L 199.96794871795 112.38779268613527 L 202.32051282051 120.51591686398315 L 204.67307692308 122.49302815048671 L 207.02564102564 111.28939752696661 L 211.73076923077 114.5845830044725 L 214.08333333333 125.34885556432522 L 216.4358974359 125.56853459615891 L 218.78846153846 121.83399105498557 L 221.14102564103 118.75848460931337 L 225.84615384615 119.19784267298081 L 228.19871794872 111.06971849513286 L 230.55128205128 107.5548539857932 L 232.90384615385 111.5090765588003 L 235.25641025641 118.5388055774796 L 239.96153846154 116.56169429097605 L 242.3141025641 118.5388055774796 L 244.66666666667 127.10628781899501 L 247.01923076923 136.55248618784532 L 249.37179487179 136.55248618784532 L 254.07692307692 138.9689555380163 L 256.42948717949 135.45409102867666 L 258.78205128205 143.14285714285717 L 261.13461538462 141.82478295185481 L 263.48717948718 138.09023941068142 L 268.19230769231 137.65088134701398 L 270.54487179487 126.88660878716132 L 272.89743589744 123.81110234148912 L 275.25 100.96448303078134 L 277.60256410256 87.34438305709025 L 282.30769230769 99.86608787161276 L 284.66025641026 97.88897658510922 L 287.01282051282 100.96448303078134 L 289.36538461538 93.93475401210212 L 291.71794871795 99.20705077611156 L 296.42307692308 100.5251249671139 L 298.77564102564 70.4290976058932 L 301.12820512821 76.36043146540386 L 303.48076923077 82.07208629308074 L 305.83333333333 73.0652459878979 L 310.53846153846 71.74717179689556 L 312.89102564103 82.29176532491451 L 315.24358974359 75.04235727440144 L 317.59615384615 75.04235727440144 L 319.94871794872 74.82267824256776 L 324.65384615385 70.6487766377269 L 327.00641025641 73.28492501973166 L 329.35897435897 67.353591160221 L 331.71153846154 69.770060510392 L 334.0641025641 58.786108918705594 L 338.76923076923 58.34675085503815 L 341.12179487179 50.21862667719019 L 343.47435897436 45.60536700868188 L 345.82692307692 48.021836358852966 L 348.17948717949 52.195737963693745 L 352.88461538462 48.46119442252041 L 355.23717948718 53.513812154696154 L 357.58974358974 49.99894764535651 L 359.94230769231 23.857142857142833 L 362.29487179487 27.811365430149948 L 367 28.69008155748483 L 377 28.69008155748483" visibility="visible" data-z-index="2" class="highcharts-tracker-line"></path></g><g data-z-index="0.1" class="highcharts-markers highcharts-series-0 highcharts-area-series highcharts-color-0 highcharts-positive highcharts-tracker" transform="translate(1,5) scale(1 1)"></g></g><text x="204" text-anchor="middle" class="highcharts-title" data-z-index="4" y="27"></text><text x="204" text-anchor="middle" class="highcharts-subtitle" data-z-index="4" y="26"></text><g class="highcharts-axis-labels highcharts-xaxis-labels highcharts-nogrid" data-z-index="7"><text x="26.878205128205" text-anchor="middle" transform="translate(0,0)" y="193" opacity="1"><tspan>Jul '23</tspan></text><text x="151.5641025641" text-anchor="middle" transform="translate(0,0)" y="193" opacity="1"><tspan>Sept '23</tspan></text><text x="273.89743589744" text-anchor="middle" transform="translate(0,0)" y="193" opacity="1"><tspan>Nov '23</tspan></text></g><g class="highcharts-axis-labels highcharts-yaxis-labels highcharts-nogrid" data-z-index="7"><text x="398.0469970703125" text-anchor="end" transform="translate(0,0)" y="153" opacity="1"><tspan>18</tspan></text><text x="398.0469970703125" text-anchor="end" transform="translate(0,0)" y="109" opacity="1"><tspan>20</tspan></text><text x="398.0469970703125" text-anchor="end" transform="translate(0,0)" y="65" opacity="1"><tspan>22</tspan></text><text x="398.0469970703125" text-anchor="end" transform="translate(0,0)" y="21" opacity="1"><tspan>24</tspan></text></g></svg>