<svg version="1.1" class="highcharts-root" xmlns="http://www.w3.org/2000/svg" width="408" height="200" viewBox="0 0 408 200"><desc>Created with Highcharts 7.0.1</desc><defs><style>.highcharts-3d-top{filter: url(#highcharts-brighter)}
.highcharts-3d-side{filter: url(#highcharts-darker)}
</style><filter id="highcharts-darker"><feComponentTransfer><feFuncR type="linear" slope="0.6"></feFuncR><feFuncG type="linear" slope="0.6"></feFuncG><feFuncB type="linear" slope="0.6"></feFuncB></feComponentTransfer></filter><filter id="highcharts-brighter"><feComponentTransfer><feFuncR type="linear" slope="1.4"></feFuncR><feFuncG type="linear" slope="1.4"></feFuncG><feFuncB type="linear" slope="1.4"></feFuncB></feComponentTransfer></filter><clipPath id="highcharts-ca96bsi-40"><rect x="0" y="0" width="367" height="167"></rect></clipPath><clipPath id="highcharts-ca96bsi-173"><rect x="0" y="109" width="408" height="63"></rect></clipPath><clipPath id="highcharts-ca96bsi-174"><rect x="0" y="0" width="408" height="109"></rect></clipPath></defs><rect class="highcharts-background" x="0.5" y="0.5" width="406" height="198" rx="0" ry="0"></rect><rect class="highcharts-plot-background" x="1" y="5" width="367" height="167"></rect><g class="highcharts-pane-group" data-z-index="0"></g><g class="highcharts-plot-lines-0" data-z-index="0"><path class="highcharts-plot-line " d="M 1 114 L 368 114"></path></g><g class="highcharts-grid highcharts-xaxis-grid highcharts-nogrid" data-z-index="1"><path data-z-index="1" class="highcharts-grid-line" d="M 26.5 5 L 26.5 172" opacity="1"></path><path data-z-index="1" class="highcharts-grid-line" d="M 153.5 5 L 153.5 172" opacity="1"></path><path data-z-index="1" class="highcharts-grid-line" d="M 276.5 5 L 276.5 172" opacity="1"></path></g><g class="highcharts-grid highcharts-yaxis-grid highcharts-nogrid" data-z-index="1"><path data-z-index="1" class="highcharts-grid-line" d="M 1 148.5 L 368 148.5" opacity="1"></path><path data-z-index="1" class="highcharts-grid-line" d="M 1 104.5 L 368 104.5" opacity="1"></path><path data-z-index="1" class="highcharts-grid-line" d="M 1 60.5 L 368 60.5" opacity="1"></path><path data-z-index="1" class="highcharts-grid-line" d="M 1 16.5 L 368 16.5" opacity="1"></path></g><rect class="highcharts-plot-border" data-z-index="1" x="0.5" y="4.5" width="368" height="168"></rect><g class="highcharts-axis highcharts-xaxis highcharts-nogrid" data-z-index="2"><path class="highcharts-axis-line" d="M 1 172 L 368 172"></path><path class="highcharts-tick" d="M 27 172 L 27 182" opacity="1"></path><path class="highcharts-tick" d="M 154 172 L 154 182" opacity="1"></path><path class="highcharts-tick" d="M 277 172 L 277 182" opacity="1"></path></g><g class="highcharts-axis highcharts-yaxis highcharts-nogrid" data-z-index="2"><path class="highcharts-axis-line" d="M 368 5 L 368 172"></path></g><g class="highcharts-series-group" data-z-index="3"><g data-z-index="0.1" class="highcharts-series highcharts-series-0 highcharts-area-series highcharts-color-0 highcharts-positive" transform="translate(1,5) scale(1 1)" clip-path="url(#highcharts-ca96bsi-40)"><path d="M 0 118.5388055774796 L 2.3831168831169 121.61431202315181 L 4.7662337662338 127.32596685082876 L 7.1493506493506 131.939226519337 L 9.5324675324675 138.52959747434886 L 14.298701298701 138.09023941068142 L 16.681818181818 136.55248618784532 L 19.064935064935 129.522757169166 L 21.448051948052 134.35569586950808 L 23.831168831169 127.9850039463299 L 28.597402597403 122.05367008681925 L 30.980519480519 105.79742173112342 L 33.363636363636 110.6303604314654 L 35.746753246753 127.10628781899501 L 38.12987012987 125.12917653249147 L 42.896103896104 128.20468297816367 L 45.279220779221 118.31912654564593 L 47.662337662338 106.0171007629571 L 50.045454545455 103.6006314127861 L 52.428571428571 106.45645882662456 L 57.194805194805 111.94843462246774 L 59.577922077922 106.6761378584583 L 61.961038961039 88.66245724809261 L 64.344155844156 90.20021047092871 L 66.727272727273 89.98053143909495 L 71.493506493506 91.51828466193105 L 73.876623376623 90.41988950276247 L 76.25974025974 87.56406208892395 L 78.642857142857 88.44277821625892 L 81.025974025974 93.27571691660091 L 85.792207792208 90.85924756642991 L 88.175324675325 97.22993948960801 L 90.558441558442 102.28255722178376 L 92.941558441558 100.74480399894766 L 95.324675324675 99.20705077611156 L 100.09090909091 101.62352012628256 L 102.47402597403 102.28255722178376 L 104.85714285714 98.54801368061035 L 107.24025974026 91.73796369376481 L 109.62337662338 100.74480399894766 L 114.38961038961 102.06287818995 L 116.77272727273 106.0171007629571 L 119.15584415584 105.79742173112342 L 121.53896103896 111.5090765588003 L 123.92207792208 118.97816364114705 L 128.68831168831 127.32596685082876 L 131.07142857143 119.63720073664825 L 133.45454545455 110.85003946329917 L 135.83766233766 111.72875559063407 L 138.22077922078 112.38779268613527 L 142.98701298701 108.87292817679563 L 145.37012987013 104.03998947645354 L 147.75324675325 102.94159431728497 L 150.13636363636 95.47250723493815 L 152.51948051948 101.40384109444886 L 157.28571428571 101.62352012628256 L 159.66883116883 102.7219152854512 L 162.05194805195 99.86608787161276 L 164.43506493506 102.28255722178376 L 166.81818181818 103.16127334911866 L 171.58441558442 97.88897658510922 L 173.96753246753 102.94159431728497 L 176.35064935065 100.96448303078134 L 178.73376623377 89.10181531176005 L 181.11688311688 97.22993948960801 L 185.88311688312 107.11549592212575 L 188.26623376623 103.6006314127861 L 190.64935064935 94.1544330439358 L 193.03246753247 98.32833464877666 L 195.41558441558 102.28255722178376 L 200.18181818182 103.6006314127861 L 202.56493506494 112.38779268613527 L 204.94805194805 120.51591686398315 L 207.33116883117 122.49302815048671 L 209.71428571429 111.28939752696661 L 214.48051948052 114.5845830044725 L 216.86363636364 125.34885556432522 L 219.24675324675 125.56853459615891 L 221.62987012987 121.83399105498557 L 224.01298701299 118.75848460931337 L 228.77922077922 119.19784267298081 L 231.16233766234 111.06971849513286 L 233.54545454545 107.5548539857932 L 235.92857142857 111.5090765588003 L 238.31168831169 118.5388055774796 L 243.07792207792 116.56169429097605 L 245.46103896104 118.5388055774796 L 247.84415584416 127.10628781899501 L 250.22727272727 136.55248618784532 L 252.61038961039 136.55248618784532 L 257.37662337662 138.9689555380163 L 259.75974025974 135.45409102867666 L 262.14285714286 143.14285714285717 L 264.52597402597 141.82478295185481 L 266.90909090909 138.09023941068142 L 271.67532467532 137.65088134701398 L 274.05844155844 126.88660878716132 L 276.44155844156 123.81110234148912 L 278.82467532468 100.96448303078134 L 281.20779220779 87.34438305709025 L 285.97402597403 99.86608787161276 L 288.35714285714 97.88897658510922 L 290.74025974026 100.96448303078134 L 293.12337662338 93.93475401210212 L 295.50649350649 99.20705077611156 L 300.27272727273 100.5251249671139 L 302.65584415584 70.4290976058932 L 305.03896103896 76.36043146540386 L 307.42207792208 82.07208629308074 L 309.80519480519 73.0652459878979 L 314.57142857143 71.74717179689556 L 316.95454545455 82.29176532491451 L 319.33766233766 75.04235727440144 L 321.72077922078 75.04235727440144 L 324.1038961039 74.82267824256776 L 328.87012987013 70.6487766377269 L 331.25324675325 73.28492501973166 L 333.63636363636 67.353591160221 L 336.01948051948 69.770060510392 L 338.4025974026 58.786108918705594 L 343.16883116883 58.34675085503815 L 345.55194805195 50.21862667719019 L 347.93506493506 45.60536700868188 L 350.31818181818 48.021836358852966 L 352.7012987013 52.195737963693745 L 357.46753246753 48.46119442252041 L 359.85064935065 53.513812154696154 L 362.23376623377 49.99894764535651 L 364.61688311688 23.857142857142833 L 367 27.811365430149948 L 367 109.31228624046307 L 364.61688311688 109.31228624046307 L 362.23376623377 109.31228624046307 L 359.85064935065 109.31228624046307 L 357.46753246753 109.31228624046307 L 352.7012987013 109.31228624046307 L 350.31818181818 109.31228624046307 L 347.93506493506 109.31228624046307 L 345.55194805195 109.31228624046307 L 343.16883116883 109.31228624046307 L 338.4025974026 109.31228624046307 L 336.01948051948 109.31228624046307 L 333.63636363636 109.31228624046307 L 331.25324675325 109.31228624046307 L 328.87012987013 109.31228624046307 L 324.1038961039 109.31228624046307 L 321.72077922078 109.31228624046307 L 319.33766233766 109.31228624046307 L 316.95454545455 109.31228624046307 L 314.57142857143 109.31228624046307 L 309.80519480519 109.31228624046307 L 307.42207792208 109.31228624046307 L 305.03896103896 109.31228624046307 L 302.65584415584 109.31228624046307 L 300.27272727273 109.31228624046307 L 295.50649350649 109.31228624046307 L 293.12337662338 109.31228624046307 L 290.74025974026 109.31228624046307 L 288.35714285714 109.31228624046307 L 285.97402597403 109.31228624046307 L 281.20779220779 109.31228624046307 L 278.82467532468 109.31228624046307 L 276.44155844156 109.31228624046307 L 274.05844155844 109.31228624046307 L 271.67532467532 109.31228624046307 L 266.90909090909 109.31228624046307 L 264.52597402597 109.31228624046307 L 262.14285714286 109.31228624046307 L 259.75974025974 109.31228624046307 L 257.37662337662 109.31228624046307 L 252.61038961039 109.31228624046307 L 250.22727272727 109.31228624046307 L 247.84415584416 109.31228624046307 L 245.46103896104 109.31228624046307 L 243.07792207792 109.31228624046307 L 238.31168831169 109.31228624046307 L 235.92857142857 109.31228624046307 L 233.54545454545 109.31228624046307 L 231.16233766234 109.31228624046307 L 228.77922077922 109.31228624046307 L 224.01298701299 109.31228624046307 L 221.62987012987 109.31228624046307 L 219.24675324675 109.31228624046307 L 216.86363636364 109.31228624046307 L 214.48051948052 109.31228624046307 L 209.71428571429 109.31228624046307 L 207.33116883117 109.31228624046307 L 204.94805194805 109.31228624046307 L 202.56493506494 109.31228624046307 L 200.18181818182 109.31228624046307 L 195.41558441558 109.31228624046307 L 193.03246753247 109.31228624046307 L 190.64935064935 109.31228624046307 L 188.26623376623 109.31228624046307 L 185.88311688312 109.31228624046307 L 181.11688311688 109.31228624046307 L 178.73376623377 109.31228624046307 L 176.35064935065 109.31228624046307 L 173.96753246753 109.31228624046307 L 171.58441558442 109.31228624046307 L 166.81818181818 109.31228624046307 L 164.43506493506 109.31228624046307 L 162.05194805195 109.31228624046307 L 159.66883116883 109.31228624046307 L 157.28571428571 109.31228624046307 L 152.51948051948 109.31228624046307 L 150.13636363636 109.31228624046307 L 147.75324675325 109.31228624046307 L 145.37012987013 109.31228624046307 L 142.98701298701 109.31228624046307 L 138.22077922078 109.31228624046307 L 135.83766233766 109.31228624046307 L 133.45454545455 109.31228624046307 L 131.07142857143 109.31228624046307 L 128.68831168831 109.31228624046307 L 123.92207792208 109.31228624046307 L 121.53896103896 109.31228624046307 L 119.15584415584 109.31228624046307 L 116.77272727273 109.31228624046307 L 114.38961038961 109.31228624046307 L 109.62337662338 109.31228624046307 L 107.24025974026 109.31228624046307 L 104.85714285714 109.31228624046307 L 102.47402597403 109.31228624046307 L 100.09090909091 109.31228624046307 L 95.324675324675 109.31228624046307 L 92.941558441558 109.31228624046307 L 90.558441558442 109.31228624046307 L 88.175324675325 109.31228624046307 L 85.792207792208 109.31228624046307 L 81.025974025974 109.31228624046307 L 78.642857142857 109.31228624046307 L 76.25974025974 109.31228624046307 L 73.876623376623 109.31228624046307 L 71.493506493506 109.31228624046307 L 66.727272727273 109.31228624046307 L 64.344155844156 109.31228624046307 L 61.961038961039 109.31228624046307 L 59.577922077922 109.31228624046307 L 57.194805194805 109.31228624046307 L 52.428571428571 109.31228624046307 L 50.045454545455 109.31228624046307 L 47.662337662338 109.31228624046307 L 45.279220779221 109.31228624046307 L 42.896103896104 109.31228624046307 L 38.12987012987 109.31228624046307 L 35.746753246753 109.31228624046307 L 33.363636363636 109.31228624046307 L 30.980519480519 109.31228624046307 L 28.597402597403 109.31228624046307 L 23.831168831169 109.31228624046307 L 21.448051948052 109.31228624046307 L 19.064935064935 109.31228624046307 L 16.681818181818 109.31228624046307 L 14.298701298701 109.31228624046307 L 9.5324675324675 109.31228624046307 L 7.1493506493506 109.31228624046307 L 4.7662337662338 109.31228624046307 L 2.3831168831169 109.31228624046307 L 0 109.31228624046307" class="highcharts-area" data-z-index="0" visibility="hidden"></path><path d="M 0 118.5388055774796 L 2.3831168831169 121.61431202315181 L 4.7662337662338 127.32596685082876 L 7.1493506493506 131.939226519337 L 9.5324675324675 138.52959747434886 L 14.298701298701 138.09023941068142 L 16.681818181818 136.55248618784532 L 19.064935064935 129.522757169166 L 21.448051948052 134.35569586950808 L 23.831168831169 127.9850039463299 L 28.597402597403 122.05367008681925 L 30.980519480519 105.79742173112342 L 33.363636363636 110.6303604314654 L 35.746753246753 127.10628781899501 L 38.12987012987 125.12917653249147 L 42.896103896104 128.20468297816367 L 45.279220779221 118.31912654564593 L 47.662337662338 106.0171007629571 L 50.045454545455 103.6006314127861 L 52.428571428571 106.45645882662456 L 57.194805194805 111.94843462246774 L 59.577922077922 106.6761378584583 L 61.961038961039 88.66245724809261 L 64.344155844156 90.20021047092871 L 66.727272727273 89.98053143909495 L 71.493506493506 91.51828466193105 L 73.876623376623 90.41988950276247 L 76.25974025974 87.56406208892395 L 78.642857142857 88.44277821625892 L 81.025974025974 93.27571691660091 L 85.792207792208 90.85924756642991 L 88.175324675325 97.22993948960801 L 90.558441558442 102.28255722178376 L 92.941558441558 100.74480399894766 L 95.324675324675 99.20705077611156 L 100.09090909091 101.62352012628256 L 102.47402597403 102.28255722178376 L 104.85714285714 98.54801368061035 L 107.24025974026 91.73796369376481 L 109.62337662338 100.74480399894766 L 114.38961038961 102.06287818995 L 116.77272727273 106.0171007629571 L 119.15584415584 105.79742173112342 L 121.53896103896 111.5090765588003 L 123.92207792208 118.97816364114705 L 128.68831168831 127.32596685082876 L 131.07142857143 119.63720073664825 L 133.45454545455 110.85003946329917 L 135.83766233766 111.72875559063407 L 138.22077922078 112.38779268613527 L 142.98701298701 108.87292817679563 L 145.37012987013 104.03998947645354 L 147.75324675325 102.94159431728497 L 150.13636363636 95.47250723493815 L 152.51948051948 101.40384109444886 L 157.28571428571 101.62352012628256 L 159.66883116883 102.7219152854512 L 162.05194805195 99.86608787161276 L 164.43506493506 102.28255722178376 L 166.81818181818 103.16127334911866 L 171.58441558442 97.88897658510922 L 173.96753246753 102.94159431728497 L 176.35064935065 100.96448303078134 L 178.73376623377 89.10181531176005 L 181.11688311688 97.22993948960801 L 185.88311688312 107.11549592212575 L 188.26623376623 103.6006314127861 L 190.64935064935 94.1544330439358 L 193.03246753247 98.32833464877666 L 195.41558441558 102.28255722178376 L 200.18181818182 103.6006314127861 L 202.56493506494 112.38779268613527 L 204.94805194805 120.51591686398315 L 207.33116883117 122.49302815048671 L 209.71428571429 111.28939752696661 L 214.48051948052 114.5845830044725 L 216.86363636364 125.34885556432522 L 219.24675324675 125.56853459615891 L 221.62987012987 121.83399105498557 L 224.01298701299 118.75848460931337 L 228.77922077922 119.19784267298081 L 231.16233766234 111.06971849513286 L 233.54545454545 107.5548539857932 L 235.92857142857 111.5090765588003 L 238.31168831169 118.5388055774796 L 243.07792207792 116.56169429097605 L 245.46103896104 118.5388055774796 L 247.84415584416 127.10628781899501 L 250.22727272727 136.55248618784532 L 252.61038961039 136.55248618784532 L 257.37662337662 138.9689555380163 L 259.75974025974 135.45409102867666 L 262.14285714286 143.14285714285717 L 264.52597402597 141.82478295185481 L 266.90909090909 138.09023941068142 L 271.67532467532 137.65088134701398 L 274.05844155844 126.88660878716132 L 276.44155844156 123.81110234148912 L 278.82467532468 100.96448303078134 L 281.20779220779 87.34438305709025 L 285.97402597403 99.86608787161276 L 288.35714285714 97.88897658510922 L 290.74025974026 100.96448303078134 L 293.12337662338 93.93475401210212 L 295.50649350649 99.20705077611156 L 300.27272727273 100.5251249671139 L 302.65584415584 70.4290976058932 L 305.03896103896 76.36043146540386 L 307.42207792208 82.07208629308074 L 309.80519480519 73.0652459878979 L 314.57142857143 71.74717179689556 L 316.95454545455 82.29176532491451 L 319.33766233766 75.04235727440144 L 321.72077922078 75.04235727440144 L 324.1038961039 74.82267824256776 L 328.87012987013 70.6487766377269 L 331.25324675325 73.28492501973166 L 333.63636363636 67.353591160221 L 336.01948051948 69.770060510392 L 338.4025974026 58.786108918705594 L 343.16883116883 58.34675085503815 L 345.55194805195 50.21862667719019 L 347.93506493506 45.60536700868188 L 350.31818181818 48.021836358852966 L 352.7012987013 52.195737963693745 L 357.46753246753 48.46119442252041 L 359.85064935065 53.513812154696154 L 362.23376623377 49.99894764535651 L 364.61688311688 23.857142857142833 L 367 27.811365430149948 L 367 109.31228624046307 L 364.61688311688 109.31228624046307 L 362.23376623377 109.31228624046307 L 359.85064935065 109.31228624046307 L 357.46753246753 109.31228624046307 L 352.7012987013 109.31228624046307 L 350.31818181818 109.31228624046307 L 347.93506493506 109.31228624046307 L 345.55194805195 109.31228624046307 L 343.16883116883 109.31228624046307 L 338.4025974026 109.31228624046307 L 336.01948051948 109.31228624046307 L 333.63636363636 109.31228624046307 L 331.25324675325 109.31228624046307 L 328.87012987013 109.31228624046307 L 324.1038961039 109.31228624046307 L 321.72077922078 109.31228624046307 L 319.33766233766 109.31228624046307 L 316.95454545455 109.31228624046307 L 314.57142857143 109.31228624046307 L 309.80519480519 109.31228624046307 L 307.42207792208 109.31228624046307 L 305.03896103896 109.31228624046307 L 302.65584415584 109.31228624046307 L 300.27272727273 109.31228624046307 L 295.50649350649 109.31228624046307 L 293.12337662338 109.31228624046307 L 290.74025974026 109.31228624046307 L 288.35714285714 109.31228624046307 L 285.97402597403 109.31228624046307 L 281.20779220779 109.31228624046307 L 278.82467532468 109.31228624046307 L 276.44155844156 109.31228624046307 L 274.05844155844 109.31228624046307 L 271.67532467532 109.31228624046307 L 266.90909090909 109.31228624046307 L 264.52597402597 109.31228624046307 L 262.14285714286 109.31228624046307 L 259.75974025974 109.31228624046307 L 257.37662337662 109.31228624046307 L 252.61038961039 109.31228624046307 L 250.22727272727 109.31228624046307 L 247.84415584416 109.31228624046307 L 245.46103896104 109.31228624046307 L 243.07792207792 109.31228624046307 L 238.31168831169 109.31228624046307 L 235.92857142857 109.31228624046307 L 233.54545454545 109.31228624046307 L 231.16233766234 109.31228624046307 L 228.77922077922 109.31228624046307 L 224.01298701299 109.31228624046307 L 221.62987012987 109.31228624046307 L 219.24675324675 109.31228624046307 L 216.86363636364 109.31228624046307 L 214.48051948052 109.31228624046307 L 209.71428571429 109.31228624046307 L 207.33116883117 109.31228624046307 L 204.94805194805 109.31228624046307 L 202.56493506494 109.31228624046307 L 200.18181818182 109.31228624046307 L 195.41558441558 109.31228624046307 L 193.03246753247 109.31228624046307 L 190.64935064935 109.31228624046307 L 188.26623376623 109.31228624046307 L 185.88311688312 109.31228624046307 L 181.11688311688 109.31228624046307 L 178.73376623377 109.31228624046307 L 176.35064935065 109.31228624046307 L 173.96753246753 109.31228624046307 L 171.58441558442 109.31228624046307 L 166.81818181818 109.31228624046307 L 164.43506493506 109.31228624046307 L 162.05194805195 109.31228624046307 L 159.66883116883 109.31228624046307 L 157.28571428571 109.31228624046307 L 152.51948051948 109.31228624046307 L 150.13636363636 109.31228624046307 L 147.75324675325 109.31228624046307 L 145.37012987013 109.31228624046307 L 142.98701298701 109.31228624046307 L 138.22077922078 109.31228624046307 L 135.83766233766 109.31228624046307 L 133.45454545455 109.31228624046307 L 131.07142857143 109.31228624046307 L 128.68831168831 109.31228624046307 L 123.92207792208 109.31228624046307 L 121.53896103896 109.31228624046307 L 119.15584415584 109.31228624046307 L 116.77272727273 109.31228624046307 L 114.38961038961 109.31228624046307 L 109.62337662338 109.31228624046307 L 107.24025974026 109.31228624046307 L 104.85714285714 109.31228624046307 L 102.47402597403 109.31228624046307 L 100.09090909091 109.31228624046307 L 95.324675324675 109.31228624046307 L 92.941558441558 109.31228624046307 L 90.558441558442 109.31228624046307 L 88.175324675325 109.31228624046307 L 85.792207792208 109.31228624046307 L 81.025974025974 109.31228624046307 L 78.642857142857 109.31228624046307 L 76.25974025974 109.31228624046307 L 73.876623376623 109.31228624046307 L 71.493506493506 109.31228624046307 L 66.727272727273 109.31228624046307 L 64.344155844156 109.31228624046307 L 61.961038961039 109.31228624046307 L 59.577922077922 109.31228624046307 L 57.194805194805 109.31228624046307 L 52.428571428571 109.31228624046307 L 50.045454545455 109.31228624046307 L 47.662337662338 109.31228624046307 L 45.279220779221 109.31228624046307 L 42.896103896104 109.31228624046307 L 38.12987012987 109.31228624046307 L 35.746753246753 109.31228624046307 L 33.363636363636 109.31228624046307 L 30.980519480519 109.31228624046307 L 28.597402597403 109.31228624046307 L 23.831168831169 109.31228624046307 L 21.448051948052 109.31228624046307 L 19.064935064935 109.31228624046307 L 16.681818181818 109.31228624046307 L 14.298701298701 109.31228624046307 L 9.5324675324675 109.31228624046307 L 7.1493506493506 109.31228624046307 L 4.7662337662338 109.31228624046307 L 2.3831168831169 109.31228624046307 L 0 109.31228624046307" class="highcharts-area highcharts-zone-area-0 highcharts-negative" data-z-index="0" clip-path="url(#highcharts-ca96bsi-173)"></path><path d="M 0 118.5388055774796 L 2.3831168831169 121.61431202315181 L 4.7662337662338 127.32596685082876 L 7.1493506493506 131.939226519337 L 9.5324675324675 138.52959747434886 L 14.298701298701 138.09023941068142 L 16.681818181818 136.55248618784532 L 19.064935064935 129.522757169166 L 21.448051948052 134.35569586950808 L 23.831168831169 127.9850039463299 L 28.597402597403 122.05367008681925 L 30.980519480519 105.79742173112342 L 33.363636363636 110.6303604314654 L 35.746753246753 127.10628781899501 L 38.12987012987 125.12917653249147 L 42.896103896104 128.20468297816367 L 45.279220779221 118.31912654564593 L 47.662337662338 106.0171007629571 L 50.045454545455 103.6006314127861 L 52.428571428571 106.45645882662456 L 57.194805194805 111.94843462246774 L 59.577922077922 106.6761378584583 L 61.961038961039 88.66245724809261 L 64.344155844156 90.20021047092871 L 66.727272727273 89.98053143909495 L 71.493506493506 91.51828466193105 L 73.876623376623 90.41988950276247 L 76.25974025974 87.56406208892395 L 78.642857142857 88.44277821625892 L 81.025974025974 93.27571691660091 L 85.792207792208 90.85924756642991 L 88.175324675325 97.22993948960801 L 90.558441558442 102.28255722178376 L 92.941558441558 100.74480399894766 L 95.324675324675 99.20705077611156 L 100.09090909091 101.62352012628256 L 102.47402597403 102.28255722178376 L 104.85714285714 98.54801368061035 L 107.24025974026 91.73796369376481 L 109.62337662338 100.74480399894766 L 114.38961038961 102.06287818995 L 116.77272727273 106.0171007629571 L 119.15584415584 105.79742173112342 L 121.53896103896 111.5090765588003 L 123.92207792208 118.97816364114705 L 128.68831168831 127.32596685082876 L 131.07142857143 119.63720073664825 L 133.45454545455 110.85003946329917 L 135.83766233766 111.72875559063407 L 138.22077922078 112.38779268613527 L 142.98701298701 108.87292817679563 L 145.37012987013 104.03998947645354 L 147.75324675325 102.94159431728497 L 150.13636363636 95.47250723493815 L 152.51948051948 101.40384109444886 L 157.28571428571 101.62352012628256 L 159.66883116883 102.7219152854512 L 162.05194805195 99.86608787161276 L 164.43506493506 102.28255722178376 L 166.81818181818 103.16127334911866 L 171.58441558442 97.88897658510922 L 173.96753246753 102.94159431728497 L 176.35064935065 100.96448303078134 L 178.73376623377 89.10181531176005 L 181.11688311688 97.22993948960801 L 185.88311688312 107.11549592212575 L 188.26623376623 103.6006314127861 L 190.64935064935 94.1544330439358 L 193.03246753247 98.32833464877666 L 195.41558441558 102.28255722178376 L 200.18181818182 103.6006314127861 L 202.56493506494 112.38779268613527 L 204.94805194805 120.51591686398315 L 207.33116883117 122.49302815048671 L 209.71428571429 111.28939752696661 L 214.48051948052 114.5845830044725 L 216.86363636364 125.34885556432522 L 219.24675324675 125.56853459615891 L 221.62987012987 121.83399105498557 L 224.01298701299 118.75848460931337 L 228.77922077922 119.19784267298081 L 231.16233766234 111.06971849513286 L 233.54545454545 107.5548539857932 L 235.92857142857 111.5090765588003 L 238.31168831169 118.5388055774796 L 243.07792207792 116.56169429097605 L 245.46103896104 118.5388055774796 L 247.84415584416 127.10628781899501 L 250.22727272727 136.55248618784532 L 252.61038961039 136.55248618784532 L 257.37662337662 138.9689555380163 L 259.75974025974 135.45409102867666 L 262.14285714286 143.14285714285717 L 264.52597402597 141.82478295185481 L 266.90909090909 138.09023941068142 L 271.67532467532 137.65088134701398 L 274.05844155844 126.88660878716132 L 276.44155844156 123.81110234148912 L 278.82467532468 100.96448303078134 L 281.20779220779 87.34438305709025 L 285.97402597403 99.86608787161276 L 288.35714285714 97.88897658510922 L 290.74025974026 100.96448303078134 L 293.12337662338 93.93475401210212 L 295.50649350649 99.20705077611156 L 300.27272727273 100.5251249671139 L 302.65584415584 70.4290976058932 L 305.03896103896 76.36043146540386 L 307.42207792208 82.07208629308074 L 309.80519480519 73.0652459878979 L 314.57142857143 71.74717179689556 L 316.95454545455 82.29176532491451 L 319.33766233766 75.04235727440144 L 321.72077922078 75.04235727440144 L 324.1038961039 74.82267824256776 L 328.87012987013 70.6487766377269 L 331.25324675325 73.28492501973166 L 333.63636363636 67.353591160221 L 336.01948051948 69.770060510392 L 338.4025974026 58.786108918705594 L 343.16883116883 58.34675085503815 L 345.55194805195 50.21862667719019 L 347.93506493506 45.60536700868188 L 350.31818181818 48.021836358852966 L 352.7012987013 52.195737963693745 L 357.46753246753 48.46119442252041 L 359.85064935065 53.513812154696154 L 362.23376623377 49.99894764535651 L 364.61688311688 23.857142857142833 L 367 27.811365430149948 L 367 109.31228624046307 L 364.61688311688 109.31228624046307 L 362.23376623377 109.31228624046307 L 359.85064935065 109.31228624046307 L 357.46753246753 109.31228624046307 L 352.7012987013 109.31228624046307 L 350.31818181818 109.31228624046307 L 347.93506493506 109.31228624046307 L 345.55194805195 109.31228624046307 L 343.16883116883 109.31228624046307 L 338.4025974026 109.31228624046307 L 336.01948051948 109.31228624046307 L 333.63636363636 109.31228624046307 L 331.25324675325 109.31228624046307 L 328.87012987013 109.31228624046307 L 324.1038961039 109.31228624046307 L 321.72077922078 109.31228624046307 L 319.33766233766 109.31228624046307 L 316.95454545455 109.31228624046307 L 314.57142857143 109.31228624046307 L 309.80519480519 109.31228624046307 L 307.42207792208 109.31228624046307 L 305.03896103896 109.31228624046307 L 302.65584415584 109.31228624046307 L 300.27272727273 109.31228624046307 L 295.50649350649 109.31228624046307 L 293.12337662338 109.31228624046307 L 290.74025974026 109.31228624046307 L 288.35714285714 109.31228624046307 L 285.97402597403 109.31228624046307 L 281.20779220779 109.31228624046307 L 278.82467532468 109.31228624046307 L 276.44155844156 109.31228624046307 L 274.05844155844 109.31228624046307 L 271.67532467532 109.31228624046307 L 266.90909090909 109.31228624046307 L 264.52597402597 109.31228624046307 L 262.14285714286 109.31228624046307 L 259.75974025974 109.31228624046307 L 257.37662337662 109.31228624046307 L 252.61038961039 109.31228624046307 L 250.22727272727 109.31228624046307 L 247.84415584416 109.31228624046307 L 245.46103896104 109.31228624046307 L 243.07792207792 109.31228624046307 L 238.31168831169 109.31228624046307 L 235.92857142857 109.31228624046307 L 233.54545454545 109.31228624046307 L 231.16233766234 109.31228624046307 L 228.77922077922 109.31228624046307 L 224.01298701299 109.31228624046307 L 221.62987012987 109.31228624046307 L 219.24675324675 109.31228624046307 L 216.86363636364 109.31228624046307 L 214.48051948052 109.31228624046307 L 209.71428571429 109.31228624046307 L 207.33116883117 109.31228624046307 L 204.94805194805 109.31228624046307 L 202.56493506494 109.31228624046307 L 200.18181818182 109.31228624046307 L 195.41558441558 109.31228624046307 L 193.03246753247 109.31228624046307 L 190.64935064935 109.31228624046307 L 188.26623376623 109.31228624046307 L 185.88311688312 109.31228624046307 L 181.11688311688 109.31228624046307 L 178.73376623377 109.31228624046307 L 176.35064935065 109.31228624046307 L 173.96753246753 109.31228624046307 L 171.58441558442 109.31228624046307 L 166.81818181818 109.31228624046307 L 164.43506493506 109.31228624046307 L 162.05194805195 109.31228624046307 L 159.66883116883 109.31228624046307 L 157.28571428571 109.31228624046307 L 152.51948051948 109.31228624046307 L 150.13636363636 109.31228624046307 L 147.75324675325 109.31228624046307 L 145.37012987013 109.31228624046307 L 142.98701298701 109.31228624046307 L 138.22077922078 109.31228624046307 L 135.83766233766 109.31228624046307 L 133.45454545455 109.31228624046307 L 131.07142857143 109.31228624046307 L 128.68831168831 109.31228624046307 L 123.92207792208 109.31228624046307 L 121.53896103896 109.31228624046307 L 119.15584415584 109.31228624046307 L 116.77272727273 109.31228624046307 L 114.38961038961 109.31228624046307 L 109.62337662338 109.31228624046307 L 107.24025974026 109.31228624046307 L 104.85714285714 109.31228624046307 L 102.47402597403 109.31228624046307 L 100.09090909091 109.31228624046307 L 95.324675324675 109.31228624046307 L 92.941558441558 109.31228624046307 L 90.558441558442 109.31228624046307 L 88.175324675325 109.31228624046307 L 85.792207792208 109.31228624046307 L 81.025974025974 109.31228624046307 L 78.642857142857 109.31228624046307 L 76.25974025974 109.31228624046307 L 73.876623376623 109.31228624046307 L 71.493506493506 109.31228624046307 L 66.727272727273 109.31228624046307 L 64.344155844156 109.31228624046307 L 61.961038961039 109.31228624046307 L 59.577922077922 109.31228624046307 L 57.194805194805 109.31228624046307 L 52.428571428571 109.31228624046307 L 50.045454545455 109.31228624046307 L 47.662337662338 109.31228624046307 L 45.279220779221 109.31228624046307 L 42.896103896104 109.31228624046307 L 38.12987012987 109.31228624046307 L 35.746753246753 109.31228624046307 L 33.363636363636 109.31228624046307 L 30.980519480519 109.31228624046307 L 28.597402597403 109.31228624046307 L 23.831168831169 109.31228624046307 L 21.448051948052 109.31228624046307 L 19.064935064935 109.31228624046307 L 16.681818181818 109.31228624046307 L 14.298701298701 109.31228624046307 L 9.5324675324675 109.31228624046307 L 7.1493506493506 109.31228624046307 L 4.7662337662338 109.31228624046307 L 2.3831168831169 109.31228624046307 L 0 109.31228624046307" class="highcharts-area highcharts-zone-area-1 undefined" data-z-index="0" clip-path="url(#highcharts-ca96bsi-174)"></path><path d="M 0 118.5388055774796 L 2.3831168831169 121.61431202315181 L 4.7662337662338 127.32596685082876 L 7.1493506493506 131.939226519337 L 9.5324675324675 138.52959747434886 L 14.298701298701 138.09023941068142 L 16.681818181818 136.55248618784532 L 19.064935064935 129.522757169166 L 21.448051948052 134.35569586950808 L 23.831168831169 127.9850039463299 L 28.597402597403 122.05367008681925 L 30.980519480519 105.79742173112342 L 33.363636363636 110.6303604314654 L 35.746753246753 127.10628781899501 L 38.12987012987 125.12917653249147 L 42.896103896104 128.20468297816367 L 45.279220779221 118.31912654564593 L 47.662337662338 106.0171007629571 L 50.045454545455 103.6006314127861 L 52.428571428571 106.45645882662456 L 57.194805194805 111.94843462246774 L 59.577922077922 106.6761378584583 L 61.961038961039 88.66245724809261 L 64.344155844156 90.20021047092871 L 66.727272727273 89.98053143909495 L 71.493506493506 91.51828466193105 L 73.876623376623 90.41988950276247 L 76.25974025974 87.56406208892395 L 78.642857142857 88.44277821625892 L 81.025974025974 93.27571691660091 L 85.792207792208 90.85924756642991 L 88.175324675325 97.22993948960801 L 90.558441558442 102.28255722178376 L 92.941558441558 100.74480399894766 L 95.324675324675 99.20705077611156 L 100.09090909091 101.62352012628256 L 102.47402597403 102.28255722178376 L 104.85714285714 98.54801368061035 L 107.24025974026 91.73796369376481 L 109.62337662338 100.74480399894766 L 114.38961038961 102.06287818995 L 116.77272727273 106.0171007629571 L 119.15584415584 105.79742173112342 L 121.53896103896 111.5090765588003 L 123.92207792208 118.97816364114705 L 128.68831168831 127.32596685082876 L 131.07142857143 119.63720073664825 L 133.45454545455 110.85003946329917 L 135.83766233766 111.72875559063407 L 138.22077922078 112.38779268613527 L 142.98701298701 108.87292817679563 L 145.37012987013 104.03998947645354 L 147.75324675325 102.94159431728497 L 150.13636363636 95.47250723493815 L 152.51948051948 101.40384109444886 L 157.28571428571 101.62352012628256 L 159.66883116883 102.7219152854512 L 162.05194805195 99.86608787161276 L 164.43506493506 102.28255722178376 L 166.81818181818 103.16127334911866 L 171.58441558442 97.88897658510922 L 173.96753246753 102.94159431728497 L 176.35064935065 100.96448303078134 L 178.73376623377 89.10181531176005 L 181.11688311688 97.22993948960801 L 185.88311688312 107.11549592212575 L 188.26623376623 103.6006314127861 L 190.64935064935 94.1544330439358 L 193.03246753247 98.32833464877666 L 195.41558441558 102.28255722178376 L 200.18181818182 103.6006314127861 L 202.56493506494 112.38779268613527 L 204.94805194805 120.51591686398315 L 207.33116883117 122.49302815048671 L 209.71428571429 111.28939752696661 L 214.48051948052 114.5845830044725 L 216.86363636364 125.34885556432522 L 219.24675324675 125.56853459615891 L 221.62987012987 121.83399105498557 L 224.01298701299 118.75848460931337 L 228.77922077922 119.19784267298081 L 231.16233766234 111.06971849513286 L 233.54545454545 107.5548539857932 L 235.92857142857 111.5090765588003 L 238.31168831169 118.5388055774796 L 243.07792207792 116.56169429097605 L 245.46103896104 118.5388055774796 L 247.84415584416 127.10628781899501 L 250.22727272727 136.55248618784532 L 252.61038961039 136.55248618784532 L 257.37662337662 138.9689555380163 L 259.75974025974 135.45409102867666 L 262.14285714286 143.14285714285717 L 264.52597402597 141.82478295185481 L 266.90909090909 138.09023941068142 L 271.67532467532 137.65088134701398 L 274.05844155844 126.88660878716132 L 276.44155844156 123.81110234148912 L 278.82467532468 100.96448303078134 L 281.20779220779 87.34438305709025 L 285.97402597403 99.86608787161276 L 288.35714285714 97.88897658510922 L 290.74025974026 100.96448303078134 L 293.12337662338 93.93475401210212 L 295.50649350649 99.20705077611156 L 300.27272727273 100.5251249671139 L 302.65584415584 70.4290976058932 L 305.03896103896 76.36043146540386 L 307.42207792208 82.07208629308074 L 309.80519480519 73.0652459878979 L 314.57142857143 71.74717179689556 L 316.95454545455 82.29176532491451 L 319.33766233766 75.04235727440144 L 321.72077922078 75.04235727440144 L 324.1038961039 74.82267824256776 L 328.87012987013 70.6487766377269 L 331.25324675325 73.28492501973166 L 333.63636363636 67.353591160221 L 336.01948051948 69.770060510392 L 338.4025974026 58.786108918705594 L 343.16883116883 58.34675085503815 L 345.55194805195 50.21862667719019 L 347.93506493506 45.60536700868188 L 350.31818181818 48.021836358852966 L 352.7012987013 52.195737963693745 L 357.46753246753 48.46119442252041 L 359.85064935065 53.513812154696154 L 362.23376623377 49.99894764535651 L 364.61688311688 23.857142857142833 L 367 27.811365430149948" class="highcharts-graph" data-z-index="1" visibility="hidden"></path><path d="M 0 118.5388055774796 L 2.3831168831169 121.61431202315181 L 4.7662337662338 127.32596685082876 L 7.1493506493506 131.939226519337 L 9.5324675324675 138.52959747434886 L 14.298701298701 138.09023941068142 L 16.681818181818 136.55248618784532 L 19.064935064935 129.522757169166 L 21.448051948052 134.35569586950808 L 23.831168831169 127.9850039463299 L 28.597402597403 122.05367008681925 L 30.980519480519 105.79742173112342 L 33.363636363636 110.6303604314654 L 35.746753246753 127.10628781899501 L 38.12987012987 125.12917653249147 L 42.896103896104 128.20468297816367 L 45.279220779221 118.31912654564593 L 47.662337662338 106.0171007629571 L 50.045454545455 103.6006314127861 L 52.428571428571 106.45645882662456 L 57.194805194805 111.94843462246774 L 59.577922077922 106.6761378584583 L 61.961038961039 88.66245724809261 L 64.344155844156 90.20021047092871 L 66.727272727273 89.98053143909495 L 71.493506493506 91.51828466193105 L 73.876623376623 90.41988950276247 L 76.25974025974 87.56406208892395 L 78.642857142857 88.44277821625892 L 81.025974025974 93.27571691660091 L 85.792207792208 90.85924756642991 L 88.175324675325 97.22993948960801 L 90.558441558442 102.28255722178376 L 92.941558441558 100.74480399894766 L 95.324675324675 99.20705077611156 L 100.09090909091 101.62352012628256 L 102.47402597403 102.28255722178376 L 104.85714285714 98.54801368061035 L 107.24025974026 91.73796369376481 L 109.62337662338 100.74480399894766 L 114.38961038961 102.06287818995 L 116.77272727273 106.0171007629571 L 119.15584415584 105.79742173112342 L 121.53896103896 111.5090765588003 L 123.92207792208 118.97816364114705 L 128.68831168831 127.32596685082876 L 131.07142857143 119.63720073664825 L 133.45454545455 110.85003946329917 L 135.83766233766 111.72875559063407 L 138.22077922078 112.38779268613527 L 142.98701298701 108.87292817679563 L 145.37012987013 104.03998947645354 L 147.75324675325 102.94159431728497 L 150.13636363636 95.47250723493815 L 152.51948051948 101.40384109444886 L 157.28571428571 101.62352012628256 L 159.66883116883 102.7219152854512 L 162.05194805195 99.86608787161276 L 164.43506493506 102.28255722178376 L 166.81818181818 103.16127334911866 L 171.58441558442 97.88897658510922 L 173.96753246753 102.94159431728497 L 176.35064935065 100.96448303078134 L 178.73376623377 89.10181531176005 L 181.11688311688 97.22993948960801 L 185.88311688312 107.11549592212575 L 188.26623376623 103.6006314127861 L 190.64935064935 94.1544330439358 L 193.03246753247 98.32833464877666 L 195.41558441558 102.28255722178376 L 200.18181818182 103.6006314127861 L 202.56493506494 112.38779268613527 L 204.94805194805 120.51591686398315 L 207.33116883117 122.49302815048671 L 209.71428571429 111.28939752696661 L 214.48051948052 114.5845830044725 L 216.86363636364 125.34885556432522 L 219.24675324675 125.56853459615891 L 221.62987012987 121.83399105498557 L 224.01298701299 118.75848460931337 L 228.77922077922 119.19784267298081 L 231.16233766234 111.06971849513286 L 233.54545454545 107.5548539857932 L 235.92857142857 111.5090765588003 L 238.31168831169 118.5388055774796 L 243.07792207792 116.56169429097605 L 245.46103896104 118.5388055774796 L 247.84415584416 127.10628781899501 L 250.22727272727 136.55248618784532 L 252.61038961039 136.55248618784532 L 257.37662337662 138.9689555380163 L 259.75974025974 135.45409102867666 L 262.14285714286 143.14285714285717 L 264.52597402597 141.82478295185481 L 266.90909090909 138.09023941068142 L 271.67532467532 137.65088134701398 L 274.05844155844 126.88660878716132 L 276.44155844156 123.81110234148912 L 278.82467532468 100.96448303078134 L 281.20779220779 87.34438305709025 L 285.97402597403 99.86608787161276 L 288.35714285714 97.88897658510922 L 290.74025974026 100.96448303078134 L 293.12337662338 93.93475401210212 L 295.50649350649 99.20705077611156 L 300.27272727273 100.5251249671139 L 302.65584415584 70.4290976058932 L 305.03896103896 76.36043146540386 L 307.42207792208 82.07208629308074 L 309.80519480519 73.0652459878979 L 314.57142857143 71.74717179689556 L 316.95454545455 82.29176532491451 L 319.33766233766 75.04235727440144 L 321.72077922078 75.04235727440144 L 324.1038961039 74.82267824256776 L 328.87012987013 70.6487766377269 L 331.25324675325 73.28492501973166 L 333.63636363636 67.353591160221 L 336.01948051948 69.770060510392 L 338.4025974026 58.786108918705594 L 343.16883116883 58.34675085503815 L 345.55194805195 50.21862667719019 L 347.93506493506 45.60536700868188 L 350.31818181818 48.021836358852966 L 352.7012987013 52.195737963693745 L 357.46753246753 48.46119442252041 L 359.85064935065 53.513812154696154 L 362.23376623377 49.99894764535651 L 364.61688311688 23.857142857142833 L 367 27.811365430149948" class="highcharts-graph highcharts-zone-graph-0 highcharts-negative" data-z-index="1" clip-path="url(#highcharts-ca96bsi-173)"></path><path d="M 0 118.5388055774796 L 2.3831168831169 121.61431202315181 L 4.7662337662338 127.32596685082876 L 7.1493506493506 131.939226519337 L 9.5324675324675 138.52959747434886 L 14.298701298701 138.09023941068142 L 16.681818181818 136.55248618784532 L 19.064935064935 129.522757169166 L 21.448051948052 134.35569586950808 L 23.831168831169 127.9850039463299 L 28.597402597403 122.05367008681925 L 30.980519480519 105.79742173112342 L 33.363636363636 110.6303604314654 L 35.746753246753 127.10628781899501 L 38.12987012987 125.12917653249147 L 42.896103896104 128.20468297816367 L 45.279220779221 118.31912654564593 L 47.662337662338 106.0171007629571 L 50.045454545455 103.6006314127861 L 52.428571428571 106.45645882662456 L 57.194805194805 111.94843462246774 L 59.577922077922 106.6761378584583 L 61.961038961039 88.66245724809261 L 64.344155844156 90.20021047092871 L 66.727272727273 89.98053143909495 L 71.493506493506 91.51828466193105 L 73.876623376623 90.41988950276247 L 76.25974025974 87.56406208892395 L 78.642857142857 88.44277821625892 L 81.025974025974 93.27571691660091 L 85.792207792208 90.85924756642991 L 88.175324675325 97.22993948960801 L 90.558441558442 102.28255722178376 L 92.941558441558 100.74480399894766 L 95.324675324675 99.20705077611156 L 100.09090909091 101.62352012628256 L 102.47402597403 102.28255722178376 L 104.85714285714 98.54801368061035 L 107.24025974026 91.73796369376481 L 109.62337662338 100.74480399894766 L 114.38961038961 102.06287818995 L 116.77272727273 106.0171007629571 L 119.15584415584 105.79742173112342 L 121.53896103896 111.5090765588003 L 123.92207792208 118.97816364114705 L 128.68831168831 127.32596685082876 L 131.07142857143 119.63720073664825 L 133.45454545455 110.85003946329917 L 135.83766233766 111.72875559063407 L 138.22077922078 112.38779268613527 L 142.98701298701 108.87292817679563 L 145.37012987013 104.03998947645354 L 147.75324675325 102.94159431728497 L 150.13636363636 95.47250723493815 L 152.51948051948 101.40384109444886 L 157.28571428571 101.62352012628256 L 159.66883116883 102.7219152854512 L 162.05194805195 99.86608787161276 L 164.43506493506 102.28255722178376 L 166.81818181818 103.16127334911866 L 171.58441558442 97.88897658510922 L 173.96753246753 102.94159431728497 L 176.35064935065 100.96448303078134 L 178.73376623377 89.10181531176005 L 181.11688311688 97.22993948960801 L 185.88311688312 107.11549592212575 L 188.26623376623 103.6006314127861 L 190.64935064935 94.1544330439358 L 193.03246753247 98.32833464877666 L 195.41558441558 102.28255722178376 L 200.18181818182 103.6006314127861 L 202.56493506494 112.38779268613527 L 204.94805194805 120.51591686398315 L 207.33116883117 122.49302815048671 L 209.71428571429 111.28939752696661 L 214.48051948052 114.5845830044725 L 216.86363636364 125.34885556432522 L 219.24675324675 125.56853459615891 L 221.62987012987 121.83399105498557 L 224.01298701299 118.75848460931337 L 228.77922077922 119.19784267298081 L 231.16233766234 111.06971849513286 L 233.54545454545 107.5548539857932 L 235.92857142857 111.5090765588003 L 238.31168831169 118.5388055774796 L 243.07792207792 116.56169429097605 L 245.46103896104 118.5388055774796 L 247.84415584416 127.10628781899501 L 250.22727272727 136.55248618784532 L 252.61038961039 136.55248618784532 L 257.37662337662 138.9689555380163 L 259.75974025974 135.45409102867666 L 262.14285714286 143.14285714285717 L 264.52597402597 141.82478295185481 L 266.90909090909 138.09023941068142 L 271.67532467532 137.65088134701398 L 274.05844155844 126.88660878716132 L 276.44155844156 123.81110234148912 L 278.82467532468 100.96448303078134 L 281.20779220779 87.34438305709025 L 285.97402597403 99.86608787161276 L 288.35714285714 97.88897658510922 L 290.74025974026 100.96448303078134 L 293.12337662338 93.93475401210212 L 295.50649350649 99.20705077611156 L 300.27272727273 100.5251249671139 L 302.65584415584 70.4290976058932 L 305.03896103896 76.36043146540386 L 307.42207792208 82.07208629308074 L 309.80519480519 73.0652459878979 L 314.57142857143 71.74717179689556 L 316.95454545455 82.29176532491451 L 319.33766233766 75.04235727440144 L 321.72077922078 75.04235727440144 L 324.1038961039 74.82267824256776 L 328.87012987013 70.6487766377269 L 331.25324675325 73.28492501973166 L 333.63636363636 67.353591160221 L 336.01948051948 69.770060510392 L 338.4025974026 58.786108918705594 L 343.16883116883 58.34675085503815 L 345.55194805195 50.21862667719019 L 347.93506493506 45.60536700868188 L 350.31818181818 48.021836358852966 L 352.7012987013 52.195737963693745 L 357.46753246753 48.46119442252041 L 359.85064935065 53.513812154696154 L 362.23376623377 49.99894764535651 L 364.61688311688 23.857142857142833 L 367 27.811365430149948" class="highcharts-graph highcharts-zone-graph-1 " data-z-index="1" clip-path="url(#highcharts-ca96bsi-174)"></path><path d="M -10 118.5388055774796 L 0 118.5388055774796 L 2.3831168831169 121.61431202315181 L 4.7662337662338 127.32596685082876 L 7.1493506493506 131.939226519337 L 9.5324675324675 138.52959747434886 L 14.298701298701 138.09023941068142 L 16.681818181818 136.55248618784532 L 19.064935064935 129.522757169166 L 21.448051948052 134.35569586950808 L 23.831168831169 127.9850039463299 L 28.597402597403 122.05367008681925 L 30.980519480519 105.79742173112342 L 33.363636363636 110.6303604314654 L 35.746753246753 127.10628781899501 L 38.12987012987 125.12917653249147 L 42.896103896104 128.20468297816367 L 45.279220779221 118.31912654564593 L 47.662337662338 106.0171007629571 L 50.045454545455 103.6006314127861 L 52.428571428571 106.45645882662456 L 57.194805194805 111.94843462246774 L 59.577922077922 106.6761378584583 L 61.961038961039 88.66245724809261 L 64.344155844156 90.20021047092871 L 66.727272727273 89.98053143909495 L 71.493506493506 91.51828466193105 L 73.876623376623 90.41988950276247 L 76.25974025974 87.56406208892395 L 78.642857142857 88.44277821625892 L 81.025974025974 93.27571691660091 L 85.792207792208 90.85924756642991 L 88.175324675325 97.22993948960801 L 90.558441558442 102.28255722178376 L 92.941558441558 100.74480399894766 L 95.324675324675 99.20705077611156 L 100.09090909091 101.62352012628256 L 102.47402597403 102.28255722178376 L 104.85714285714 98.54801368061035 L 107.24025974026 91.73796369376481 L 109.62337662338 100.74480399894766 L 114.38961038961 102.06287818995 L 116.77272727273 106.0171007629571 L 119.15584415584 105.79742173112342 L 121.53896103896 111.5090765588003 L 123.92207792208 118.97816364114705 L 128.68831168831 127.32596685082876 L 131.07142857143 119.63720073664825 L 133.45454545455 110.85003946329917 L 135.83766233766 111.72875559063407 L 138.22077922078 112.38779268613527 L 142.98701298701 108.87292817679563 L 145.37012987013 104.03998947645354 L 147.75324675325 102.94159431728497 L 150.13636363636 95.47250723493815 L 152.51948051948 101.40384109444886 L 157.28571428571 101.62352012628256 L 159.66883116883 102.7219152854512 L 162.05194805195 99.86608787161276 L 164.43506493506 102.28255722178376 L 166.81818181818 103.16127334911866 L 171.58441558442 97.88897658510922 L 173.96753246753 102.94159431728497 L 176.35064935065 100.96448303078134 L 178.73376623377 89.10181531176005 L 181.11688311688 97.22993948960801 L 185.88311688312 107.11549592212575 L 188.26623376623 103.6006314127861 L 190.64935064935 94.1544330439358 L 193.03246753247 98.32833464877666 L 195.41558441558 102.28255722178376 L 200.18181818182 103.6006314127861 L 202.56493506494 112.38779268613527 L 204.94805194805 120.51591686398315 L 207.33116883117 122.49302815048671 L 209.71428571429 111.28939752696661 L 214.48051948052 114.5845830044725 L 216.86363636364 125.34885556432522 L 219.24675324675 125.56853459615891 L 221.62987012987 121.83399105498557 L 224.01298701299 118.75848460931337 L 228.77922077922 119.19784267298081 L 231.16233766234 111.06971849513286 L 233.54545454545 107.5548539857932 L 235.92857142857 111.5090765588003 L 238.31168831169 118.5388055774796 L 243.07792207792 116.56169429097605 L 245.46103896104 118.5388055774796 L 247.84415584416 127.10628781899501 L 250.22727272727 136.55248618784532 L 252.61038961039 136.55248618784532 L 257.37662337662 138.9689555380163 L 259.75974025974 135.45409102867666 L 262.14285714286 143.14285714285717 L 264.52597402597 141.82478295185481 L 266.90909090909 138.09023941068142 L 271.67532467532 137.65088134701398 L 274.05844155844 126.88660878716132 L 276.44155844156 123.81110234148912 L 278.82467532468 100.96448303078134 L 281.20779220779 87.34438305709025 L 285.97402597403 99.86608787161276 L 288.35714285714 97.88897658510922 L 290.74025974026 100.96448303078134 L 293.12337662338 93.93475401210212 L 295.50649350649 99.20705077611156 L 300.27272727273 100.5251249671139 L 302.65584415584 70.4290976058932 L 305.03896103896 76.36043146540386 L 307.42207792208 82.07208629308074 L 309.80519480519 73.0652459878979 L 314.57142857143 71.74717179689556 L 316.95454545455 82.29176532491451 L 319.33766233766 75.04235727440144 L 321.72077922078 75.04235727440144 L 324.1038961039 74.82267824256776 L 328.87012987013 70.6487766377269 L 331.25324675325 73.28492501973166 L 333.63636363636 67.353591160221 L 336.01948051948 69.770060510392 L 338.4025974026 58.786108918705594 L 343.16883116883 58.34675085503815 L 345.55194805195 50.21862667719019 L 347.93506493506 45.60536700868188 L 350.31818181818 48.021836358852966 L 352.7012987013 52.195737963693745 L 357.46753246753 48.46119442252041 L 359.85064935065 53.513812154696154 L 362.23376623377 49.99894764535651 L 364.61688311688 23.857142857142833 L 367 27.811365430149948 L 377 27.811365430149948" visibility="visible" data-z-index="2" class="highcharts-tracker-line"></path></g><g data-z-index="0.1" class="highcharts-markers highcharts-series-0 highcharts-area-series highcharts-color-0 highcharts-positive highcharts-tracker" transform="translate(1,5) scale(1 1)"></g></g><text x="204" text-anchor="middle" class="highcharts-title" data-z-index="4" y="27"></text><text x="204" text-anchor="middle" class="highcharts-subtitle" data-z-index="4" y="26"></text><g class="highcharts-axis-labels highcharts-xaxis-labels highcharts-nogrid" data-z-index="7"><text x="27.214285714286" text-anchor="middle" transform="translate(0,0)" y="193" opacity="1"><tspan>Jul '23</tspan></text><text x="153.51948051948" text-anchor="middle" transform="translate(0,0)" y="193" opacity="1"><tspan>Sept '23</tspan></text><text x="277.44155844156" text-anchor="middle" transform="translate(0,0)" y="193" opacity="1"><tspan>Nov '23</tspan></text></g><g class="highcharts-axis-labels highcharts-yaxis-labels highcharts-nogrid" data-z-index="7"><text x="398.0469970703125" text-anchor="end" transform="translate(0,0)" y="153" opacity="1"><tspan>18</tspan></text><text x="398.0469970703125" text-anchor="end" transform="translate(0,0)" y="109" opacity="1"><tspan>20</tspan></text><text x="398.0469970703125" text-anchor="end" transform="translate(0,0)" y="65" opacity="1"><tspan>22</tspan></text><text x="398.0469970703125" text-anchor="end" transform="translate(0,0)" y="21" opacity="1"><tspan>24</tspan></text></g></svg>